<svg width="24" height="24" viewBox="0 0 24 24" fill="none" xmlns="http://www.w3.org/2000/svg">
<path fill-rule="evenodd" clip-rule="evenodd" d="M1 4C1 3.44772 1.44772 3 2 3H6.9C7.22973 3 7.53826 3.16254 7.72473 3.43447L9.2268 5.625H19.5C20.0523 5.625 20.5 6.07272 20.5 6.625V8H18.5V7.625H8.7C8.37027 7.625 8.06174 7.46246 7.87527 7.19053L6.37319 5H3V19H9.5V21H2C1.44772 21 1 20.5523 1 20V4Z" fill="black"/>
<path fill-rule="evenodd" clip-rule="evenodd" d="M16.5 9C12.9101 9 10 11.9101 10 15.5C10 19.0899 12.9101 22 16.5 22C20.0899 22 23 19.0899 23 15.5C23 11.9101 20.0899 9 16.5 9ZM15.5 14.5V13H17.5V14.5H19V16.5H17.5V18H15.5V16.5H14V14.5H15.5Z" fill="black"/>
</svg>
