<svg width="24" height="24" viewBox="0 0 24 24" fill="none" xmlns="http://www.w3.org/2000/svg">
<path fill-rule="evenodd" clip-rule="evenodd" d="M9 2C6.23858 2 4 4.23858 4 7C4 9.76142 6.23858 12 9 12C11.7614 12 14 9.76142 14 7C14 4.23858 11.7614 2 9 2Z" fill="black"/>
<path fill-rule="evenodd" clip-rule="evenodd" d="M5.5 13C3.01472 13 1 15.0147 1 17.5V21C1 21.5523 1.44772 22 2 22H16C16.5523 22 17 21.5523 17 21V17.5C17 15.0147 14.9853 13 12.5 13H5.5Z" fill="black"/>
<path fill-rule="evenodd" clip-rule="evenodd" d="M18 13.5V7.5H20V13.5H18Z" fill="black"/>
<path fill-rule="evenodd" clip-rule="evenodd" d="M22 11.5H16V9.5H22V11.5Z" fill="black"/>
</svg>
