<svg width="24" height="24" viewBox="0 0 24 24" fill="none" xmlns="http://www.w3.org/2000/svg">
<path fill-rule="evenodd" clip-rule="evenodd" d="M1 4C1 3.44772 1.44772 3 2 3H22C22.5523 3 23 3.44772 23 4V22C23 22.5523 22.5523 23 22 23H2C1.44772 23 1 22.5523 1 22V4ZM3 5V21H21V5H3Z" fill="black"/>
<path fill-rule="evenodd" clip-rule="evenodd" d="M7 2V5.5H5V2H7Z" fill="black"/>
<path fill-rule="evenodd" clip-rule="evenodd" d="M19 2V5.5H17V2H19Z" fill="black"/>
<path fill-rule="evenodd" clip-rule="evenodd" d="M23 7H1V22.8016H23V7ZM11 14V11H13V14H16V16H13V19H11V16H8V14H11Z" fill="black"/>
</svg>
