<svg width="24" height="24" viewBox="0 0 24 24" fill="none" xmlns="http://www.w3.org/2000/svg">
<path fill-rule="evenodd" clip-rule="evenodd" d="M3 2C3 1.44772 3.44772 1 4 1H18C18.5523 1 19 1.44772 19 2V7.55556H17V3H5V21H9V23H4C3.44772 23 3 22.5523 3 22V2Z" fill="black"/>
<path fill-rule="evenodd" clip-rule="evenodd" d="M2 11H4V13H2L2 11Z" fill="black"/>
<path fill-rule="evenodd" clip-rule="evenodd" d="M2 5L4 5V7H2L2 5Z" fill="black"/>
<path fill-rule="evenodd" clip-rule="evenodd" d="M2 17H4V19H2L2 17Z" fill="black"/>
<path fill-rule="evenodd" clip-rule="evenodd" d="M16 9C12.134 9 9 12.134 9 16C9 19.866 12.134 23 16 23C19.866 23 23 19.866 23 16C23 12.134 19.866 9 16 9ZM15 15V13H17V15H19V17H17V19H15V17H13V15H15Z" fill="black"/>
<path fill-rule="evenodd" clip-rule="evenodd" d="M15 8H7V6H15V8Z" fill="black"/>
</svg>
