<svg width="24" height="24" viewBox="0 0 24 24" fill="none" xmlns="http://www.w3.org/2000/svg">
<path fill-rule="evenodd" clip-rule="evenodd" d="M2 5H5V7H2V5Z" fill="black"/>
<path fill-rule="evenodd" clip-rule="evenodd" d="M2 11H5V13H2V11Z" fill="black"/>
<path fill-rule="evenodd" clip-rule="evenodd" d="M2 17H5V19H2V17Z" fill="black"/>
<path fill-rule="evenodd" clip-rule="evenodd" d="M4 2C4 1.44772 4.44772 1 5 1H21C21.5523 1 22 1.44772 22 2V22C22 22.5523 21.5523 23 21 23H5C4.44772 23 4 22.5523 4 22V2ZM7.5 6C7.5 5.44772 7.94772 5 8.5 5H17.5C18.0523 5 18.5 5.44772 18.5 6V10C18.5 10.5523 18.0523 11 17.5 11H8.5C7.94772 11 7.5 10.5523 7.5 10V6Z" fill="black"/>
</svg>
