<svg width="24" height="24" viewBox="0 0 24 24" fill="none" xmlns="http://www.w3.org/2000/svg">
<path fill-rule="evenodd" clip-rule="evenodd" d="M3.5 1C2.94772 1 2.5 1.44772 2.5 2V13C2.5 13.5523 2.94772 14 3.5 14H6.5V22C6.5 22.4374 6.7843 22.8241 7.20183 22.9545C7.61936 23.0849 8.0732 22.9289 8.32219 22.5692L17.3222 9.56921C17.5339 9.2634 17.5584 8.86535 17.3858 8.53589C17.2132 8.20643 16.8719 8 16.5 8H13.653L14.4899 2.14142C14.5309 1.85444 14.4454 1.5638 14.2555 1.3448C14.0655 1.1258 13.7899 1 13.5 1H3.5Z" fill="black"/>
<path fill-rule="evenodd" clip-rule="evenodd" d="M17.5 13C17.9 13 18.2615 13.2384 18.4191 13.6061L21.4191 20.6061L19.5808 21.3939L17.5 16.5386L15.4191 21.3939L13.5808 20.6061L16.5808 13.6061C16.7384 13.2384 17.0999 13 17.5 13Z" fill="black"/>
<path fill-rule="evenodd" clip-rule="evenodd" d="M19.5 19.5H15.5V17.5H19.5V19.5Z" fill="black"/>
</svg>
