<svg width="24" height="24" viewBox="0 0 24 24" fill="none" xmlns="http://www.w3.org/2000/svg">
<path fill-rule="evenodd" clip-rule="evenodd" d="M21.3753 3.21914C21.6755 2.979 22.0867 2.93219 22.4332 3.09871C22.7797 3.26523 23 3.6156 23 4.00001V20C23 20.3844 22.7797 20.7348 22.4332 20.9013C22.0867 21.0678 21.6755 21.021 21.3753 20.7809L11.3753 12.7809C11.1381 12.5911 11 12.3038 11 12C11 11.6962 11.1381 11.4089 11.3753 11.2191L21.3753 3.21914Z" fill="black"/>
<path fill-rule="evenodd" clip-rule="evenodd" d="M11.3753 3.21914C11.6755 2.979 12.0867 2.93219 12.4332 3.09871C12.7797 3.26523 13 3.6156 13 4.00001V20C13 20.3844 12.7797 20.7348 12.4332 20.9013C12.0867 21.0678 11.6755 21.021 11.3753 20.7809L1.37531 12.7809C1.13809 12.5911 1 12.3038 1 12C1 11.6962 1.13809 11.4089 1.37531 11.2191L11.3753 3.21914Z" fill="black"/>
</svg>
