<svg width="24" height="24" viewBox="0 0 24 24" fill="none" xmlns="http://www.w3.org/2000/svg">
<path fill-rule="evenodd" clip-rule="evenodd" d="M1 8C1 7.44772 1.44772 7 2 7H6.5V9H3V15H10.5V17H2C1.44772 17 1 16.5523 1 16V8ZM18.5 9H9.87059V7H19.5C20.0523 7 20.5 7.44772 20.5 8V16C20.5 16.5523 20.0523 17 19.5 17H13.5V15H18.5V9Z" fill="black"/>
<path fill-rule="evenodd" clip-rule="evenodd" d="M19.5 9C18.9477 9 18.5 9.44772 18.5 10V14C18.5 14.5523 18.9477 15 19.5 15H22C22.5523 15 23 14.5523 23 14V10C23 9.44772 22.5523 9 22 9H19.5Z" fill="black"/>
<path fill-rule="evenodd" clip-rule="evenodd" d="M7.07153 11.6287L11.0715 1.62866L12.9285 2.37144L9.47704 11.0001H14C14.2996 11.0001 14.5834 11.1344 14.7733 11.3661C14.9633 11.5978 15.0393 11.9024 14.9806 12.1962L12.9806 22.1962L11.0194 21.8039L12.7802 13.0001H8C7.66818 13.0001 7.35797 12.8355 7.17194 12.5607C6.98591 12.2859 6.94829 11.9368 7.07153 11.6287Z" fill="black"/>
</svg>
