<svg width="24" height="24" viewBox="0 0 24 24" fill="none" xmlns="http://www.w3.org/2000/svg">
<path fill-rule="evenodd" clip-rule="evenodd" d="M18.5 10C18.5 9.44772 18.9477 9 19.5 9H22C22.5523 9 23 9.44772 23 10V14C23 14.5523 22.5523 15 22 15H19.5C18.9477 15 18.5 14.5523 18.5 14V10ZM20.5 11V13H21V11H20.5Z" fill="black"/>
<path fill-rule="evenodd" clip-rule="evenodd" d="M1 7C1 6.44772 1.44772 6 2 6H19.5C20.0523 6 20.5 6.44772 20.5 7V17C20.5 17.5523 20.0523 18 19.5 18H2C1.44772 18 1 17.5523 1 17V7ZM3.5 9.5V14.5H5.5V9.5H3.5ZM6.5 14.5V9.5H8.5V14.5H6.5ZM9.5 9.5V14.5H11.5V9.5H9.5ZM12.5 14.5V9.5H14.5V14.5H12.5ZM15.5 9.5V14.5H17.5V9.5H15.5Z" fill="black"/>
</svg>
