<svg width="24" height="24" viewBox="0 0 24 24" fill="none" xmlns="http://www.w3.org/2000/svg">
<path fill-rule="evenodd" clip-rule="evenodd" d="M18.5 10C18.5 9.44772 18.9477 9 19.5 9H22C22.5523 9 23 9.44772 23 10V14C23 14.5523 22.5523 15 22 15H19.5C18.9477 15 18.5 14.5523 18.5 14V10ZM20.5 11V13H21V11H20.5Z" fill="black"/>
<path fill-rule="evenodd" clip-rule="evenodd" d="M1 7C1 6.44772 1.44772 6 2 6H19.5C20.0523 6 20.5 6.44772 20.5 7V17C20.5 17.5523 20.0523 18 19.5 18H2C1.44772 18 1 17.5523 1 17V7ZM4.5 13H7.5V11H4.5V13ZM14 11V10H16V11H17V13H16V14H14V13H13V11H14Z" fill="black"/>
</svg>
