<svg width="24" height="24" viewBox="0 0 24 24" fill="none" xmlns="http://www.w3.org/2000/svg">
<path fill-rule="evenodd" clip-rule="evenodd" d="M11.5758 1.09442C11.9272 0.929843 12.3421 0.983388 12.6402 1.23179L18.6402 6.23179C18.8682 6.42178 19 6.70323 19 7.00001C19 7.29679 18.8682 7.57824 18.6402 7.76823L12.6402 12.7682C12.3421 13.0166 11.9272 13.0702 11.5758 12.9056C11.2245 12.741 11 12.388 11 12V2.00001C11 1.61199 11.2245 1.259 11.5758 1.09442ZM13 4.13505V9.86497L16.438 7.00001L13 4.13505Z" fill="black"/>
<path fill-rule="evenodd" clip-rule="evenodd" d="M11.5758 11.0944C11.9272 10.9298 12.3421 10.9834 12.6402 11.2318L18.6402 16.2318C18.8682 16.4218 19 16.7032 19 17C19 17.2968 18.8682 17.5782 18.6402 17.7682L12.6402 22.7682C12.3421 23.0166 11.9272 23.0702 11.5758 22.9056C11.2245 22.741 11 22.388 11 22V12C11 11.612 11.2245 11.259 11.5758 11.0944ZM13 14.1351V19.865L16.438 17L13 14.1351Z" fill="black"/>
<path fill-rule="evenodd" clip-rule="evenodd" d="M5.35986 16.2317L11.3599 11.2317L12.6402 12.7681L6.64023 17.7681L5.35986 16.2317Z" fill="black"/>
<path fill-rule="evenodd" clip-rule="evenodd" d="M5.35986 7.76831L11.3599 12.7683L12.6402 11.2319L6.64023 6.23187L5.35986 7.76831Z" fill="black"/>
</svg>
