<svg width="24" height="24" viewBox="0 0 24 24" fill="none" xmlns="http://www.w3.org/2000/svg">
<path fill-rule="evenodd" clip-rule="evenodd" d="M7 5C7 3.34315 8.34315 2 10 2H14C15.6569 2 17 3.34315 17 5V6C17 6.55228 16.5523 7 16 7H8C7.44772 7 7 6.55228 7 6V5ZM10 4C9.44772 4 9 4.44772 9 5H15C15 4.44772 14.5523 4 14 4H10Z" fill="black"/>
<path fill-rule="evenodd" clip-rule="evenodd" d="M1 8C1 6.34315 2.34315 5 4 5H20C21.6569 5 23 6.34315 23 8V19C23 20.6569 21.6569 22 20 22H4C2.34315 22 1 20.6569 1 19V8ZM4 7C3.44772 7 3 7.44772 3 8V19C3 19.5523 3.44772 20 4 20H20C20.5523 20 21 19.5523 21 19V8C21 7.44772 20.5523 7 20 7H4Z" fill="black"/>
<path fill-rule="evenodd" clip-rule="evenodd" d="M4 5C2.34315 5 1 6.34315 1 8V11C1 11.4416 1.28967 11.8309 1.71265 11.9578L11.7127 14.9578C11.9001 15.0141 12.0999 15.0141 12.2873 14.9578L22.2873 11.9578C22.7103 11.8309 23 11.4416 23 11V8C23 6.34315 21.6569 5 20 5H4ZM11 16V12H13V16H11Z" fill="black"/>
</svg>
