<svg width="24" height="24" viewBox="0 0 24 24" fill="none" xmlns="http://www.w3.org/2000/svg">
<path fill-rule="evenodd" clip-rule="evenodd" d="M11.6257 9.21997C11.8623 9.40976 12 9.69669 12 10V22C12 22.5523 11.5523 23 11 23H2C1.44772 23 1 22.5523 1 22V12C1 11.5313 1.32553 11.1255 1.78307 11.0238L10.7831 9.02382C11.0792 8.95802 11.3891 9.03017 11.6257 9.21997ZM3 12.8022V21H10V11.2466L3 12.8022Z" fill="black"/>
<path fill-rule="evenodd" clip-rule="evenodd" d="M4 15.5V14H6V15.5H4Z" fill="black"/>
<path fill-rule="evenodd" clip-rule="evenodd" d="M4 19.5V18H6V19.5H4Z" fill="black"/>
<path fill-rule="evenodd" clip-rule="evenodd" d="M23 2.00001C23 1.70348 22.8684 1.42225 22.6407 1.23226C22.4131 1.04226 22.1129 0.963094 21.8211 1.01614L10.8211 3.01614C10.3456 3.10259 10 3.51672 10 4.00001V22C10 22.5523 10.4477 23 11 23H22C22.5523 23 23 22.5523 23 22V2.00001ZM13.5 7.5V6H15.5V7.5H13.5ZM13.5 10.5V12H15.5V10.5H13.5ZM13.5 16.5V15H15.5V16.5H13.5ZM17.5 6V7.5H19.5V6H17.5ZM17.5 12V10.5H19.5V12H17.5ZM17.5 15V16.5H19.5V15H17.5Z" fill="black"/>
<path fill-rule="evenodd" clip-rule="evenodd" d="M7 15.5V14H9V15.5H7Z" fill="black"/>
<path fill-rule="evenodd" clip-rule="evenodd" d="M7 19.5V18H9V19.5H7Z" fill="black"/>
</svg>
