<svg width="24" height="24" viewBox="0 0 24 24" fill="none" xmlns="http://www.w3.org/2000/svg">
<path fill-rule="evenodd" clip-rule="evenodd" d="M23 10C23 9.44772 22.5523 9 22 9H13C12.4477 9 12 9.44772 12 10V22C12 22.5523 12.4477 23 13 23H22C22.5523 23 23 22.5523 23 22V10ZM21 11V21H14V11H21Z" fill="black"/>
<path fill-rule="evenodd" clip-rule="evenodd" d="M13 1C13.5523 1 14 1.44772 14 2V22C14 22.5523 13.5523 23 13 23H2C1.44771 23 1 22.5523 1 22V2C1 1.44772 1.44771 1 2 1H13ZM10.5 7.5V6H8.5V7.5H10.5ZM10.5 10.5V12H8.5V10.5H10.5ZM10.5 16.5V15H8.5V16.5H10.5ZM6.5 6V7.5H4.5V6H6.5ZM6.5 12V10.5H4.5V12H6.5ZM6.5 15V16.5H4.5V15H6.5Z" fill="black"/>
<path fill-rule="evenodd" clip-rule="evenodd" d="M20 15V13.5H18V15H20Z" fill="black"/>
<path fill-rule="evenodd" clip-rule="evenodd" d="M20 19V17.5H18V19H20Z" fill="black"/>
<path fill-rule="evenodd" clip-rule="evenodd" d="M17 15V13.5H15V15H17Z" fill="black"/>
<path fill-rule="evenodd" clip-rule="evenodd" d="M17 19V17.5H15V19H17Z" fill="black"/>
</svg>
