<svg width="24" height="24" viewBox="0 0 24 24" fill="none" xmlns="http://www.w3.org/2000/svg">
<path fill-rule="evenodd" clip-rule="evenodd" d="M1 4C1 3.44772 1.44772 3 2 3H22C22.5523 3 23 3.44772 23 4V22C23 22.5523 22.5523 23 22 23H2C1.44772 23 1 22.5523 1 22V4ZM3 5V21H21V5H3Z" fill="black"/>
<path fill-rule="evenodd" clip-rule="evenodd" d="M7 2V6H5V2H7Z" fill="black"/>
<path fill-rule="evenodd" clip-rule="evenodd" d="M19 2V6H17V2H19Z" fill="black"/>
<path fill-rule="evenodd" clip-rule="evenodd" d="M2 8C1.44772 8 1 8.44772 1 9V21.9363C1 22.4886 1.44772 22.9363 2 22.9363H22C22.5523 22.9363 23 22.4886 23 21.9363V9C23 8.44772 22.5523 8 22 8H2Z" fill="black"/>
</svg>
