<svg width="24" height="24" viewBox="0 0 24 24" fill="none" xmlns="http://www.w3.org/2000/svg">
<path fill-rule="evenodd" clip-rule="evenodd" d="M7.55279 4.65836C8.06096 3.64201 9.09975 3 10.2361 3H13.7639C14.9002 3 15.939 3.64201 16.4472 4.65836L16.8416 5.44721C17.011 5.786 17.3573 6 17.7361 6H19C20.6569 6 22 7.34315 22 9V18C22 19.6569 20.6569 21 19 21H5C3.34315 21 2 19.6569 2 18V9C2 7.34315 3.34315 6 5 6H6.26393C6.6427 6 6.98897 5.786 7.15836 5.44721L7.55279 4.65836ZM9 13C9 11.3431 10.3431 10 12 10C13.6569 10 15 11.3431 15 13C15 14.6569 13.6569 16 12 16C10.3431 16 9 14.6569 9 13ZM12 8C9.23858 8 7 10.2386 7 13C7 15.7614 9.23858 18 12 18C14.7614 18 17 15.7614 17 13C17 10.2386 14.7614 8 12 8Z" fill="black"/>
</svg>
