<svg width="24" height="24" viewBox="0 0 24 24" fill="none" xmlns="http://www.w3.org/2000/svg">
<path fill-rule="evenodd" clip-rule="evenodd" d="M1.29285 21.293L21.2928 1.29297L22.7071 2.70718L2.70706 22.7072L1.29285 21.293Z" fill="black"/>
<path fill-rule="evenodd" clip-rule="evenodd" d="M10.2361 5C9.8573 5 9.51103 5.214 9.34164 5.55279L8.94721 6.34164C8.43904 7.35799 7.40025 8 6.26393 8H5C4.44772 8 4 8.44772 4 9V18.5572L14.8005 7.32466C15.0939 7.01959 15.1634 6.56288 14.9741 6.18434L14.6584 5.55279C14.489 5.214 14.1427 5 13.7639 5H10.2361ZM7.55279 4.65836C8.06096 3.64201 9.09975 3 10.2361 3H13.7639C14.9002 3 15.939 3.64201 16.4472 4.65836L16.763 5.28991C17.3308 6.42555 17.1222 7.79566 16.2422 8.71088L4.9278 20.4779C4.60703 20.8115 4.16419 21 3.70139 21C2.76174 21 2 20.2383 2 19.2986V9C2 7.34315 3.34315 6 5 6H6.26393C6.6427 6 6.98897 5.786 7.15836 5.44721L7.55279 4.65836ZM19.7071 9.12132L18.7929 8.20711L20.2071 6.79289L21.1213 7.70711C21.6839 8.26972 22 9.03278 22 9.82843V18C22 19.6569 20.6569 21 19 21H7V19H19C19.5523 19 20 18.5523 20 18V9.82843C20 9.56321 19.8946 9.30886 19.7071 9.12132Z" fill="black"/>
<path fill-rule="evenodd" clip-rule="evenodd" d="M12 8C9.23858 8 7 10.2386 7 13C7 14.0425 7.24774 14.9267 7.84401 15.7679C8.01356 16.0071 8.27954 16.1599 8.57159 16.1857C8.86364 16.2116 9.15233 16.108 9.36129 15.9024L14.9397 10.4122C15.1433 10.2118 15.2515 9.93391 15.237 9.64862C15.2224 9.36333 15.0866 9.09787 14.8637 8.9192C14.437 8.57712 14.0009 8.33434 13.5032 8.18569C13.0173 8.04056 12.5212 8 12 8Z" fill="black"/>
<path fill-rule="evenodd" clip-rule="evenodd" d="M16.1522 12L17.1209 11.7515L17.1222 11.7566L17.1246 11.7661L17.1325 11.7983C17.1391 11.8252 17.1481 11.8629 17.1587 11.9095C17.1799 12.0024 17.208 12.1321 17.2361 12.2825C17.2899 12.57 17.3541 12.9851 17.3541 13.371C17.3541 16.1324 15.1155 18.371 12.3541 18.371H12.349C12.0567 18.371 11.7684 18.371 11.4796 18.3061C11.183 18.2395 10.929 18.1145 10.6799 17.992L10.6775 17.9908C10.3891 17.8489 10.1864 17.5769 10.133 17.2598C10.0795 16.9428 10.1817 16.6194 10.4077 16.3907L15.4409 11.2971C15.6941 11.0409 16.0656 10.9407 16.4133 11.0347C16.7611 11.1288 17.0314 11.4026 17.1209 11.7515C17.1208 11.7514 17.1209 11.7515 16.1522 12Z" fill="black"/>
</svg>
