<svg width="24" height="24" viewBox="0 0 24 24" fill="none" xmlns="http://www.w3.org/2000/svg">
<path fill-rule="evenodd" clip-rule="evenodd" d="M2.00001 8C1.69669 8 1.40976 8.13767 1.21997 8.37427C1.03017 8.61087 0.958023 8.92083 1.02382 9.21693L3.24604 19.2169C3.34772 19.6745 3.75353 20 4.22223 20H19.7778C20.2465 20 20.6523 19.6745 20.754 19.2169L22.9762 9.21693C23.042 8.92083 22.9698 8.61087 22.7801 8.37427C22.5903 8.13767 22.3033 8 22 8H2.00001Z" fill="black"/>
<path fill-rule="evenodd" clip-rule="evenodd" d="M12 1C12.2919 1 12.5693 1.12756 12.7592 1.34921L18.7592 8.34921L17.2407 9.65079L12 3.53659L6.75924 9.65079L5.24072 8.34921L11.2407 1.34921C11.4307 1.12756 11.7081 1 12 1Z" fill="black"/>
</svg>
