<svg width="24" height="24" viewBox="0 0 24 24" fill="none" xmlns="http://www.w3.org/2000/svg">
<path fill-rule="evenodd" clip-rule="evenodd" d="M6.00001 6C5.68933 6 5.3963 6.1444 5.20702 6.39076C5.01774 6.63713 4.95372 6.95747 5.03377 7.25766L7.03377 14.7577C7.15051 15.1954 7.54696 15.5 8.00001 15.5H18C18.4531 15.5 18.8495 15.1954 18.9662 14.7577L20.9662 7.25766C21.0463 6.95747 20.9823 6.63713 20.793 6.39076C20.6037 6.1444 20.3107 6 20 6H6.00001Z" fill="black"/>
<path fill-rule="evenodd" clip-rule="evenodd" d="M3 4H5.5C5.95887 4 6.35885 4.3123 6.47014 4.75746L6.97014 6.75746L5.02986 7.24254L4.71922 6H3V4Z" fill="black"/>
<path fill-rule="evenodd" clip-rule="evenodd" d="M8.5 16C7.11929 16 6 17.1193 6 18.5C6 19.8807 7.11929 21 8.5 21C9.88071 21 11 19.8807 11 18.5C11 17.1193 9.88071 16 8.5 16Z" fill="black"/>
<path fill-rule="evenodd" clip-rule="evenodd" d="M17.5 16C16.1193 16 15 17.1193 15 18.5C15 19.8807 16.1193 21 17.5 21C18.8807 21 20 19.8807 20 18.5C20 17.1193 18.8807 16 17.5 16Z" fill="black"/>
</svg>
