<svg width="24" height="24" viewBox="0 0 24 24" fill="none" xmlns="http://www.w3.org/2000/svg">
<path fill-rule="evenodd" clip-rule="evenodd" d="M2 6C2 4.34315 3.34315 3 5 3H19C20.6569 3 22 4.34315 22 6V20C22 20.3688 21.797 20.7077 21.4719 20.8817C21.1467 21.0557 20.7522 21.0366 20.4453 20.8321L16.1972 18H5C3.34315 18 2 16.6569 2 15V6ZM7 8.5C5.89543 8.5 5 9.39543 5 10.5C5 11.6046 5.89543 12.5 7 12.5C8.10457 12.5 9 11.6046 9 10.5C9 9.39543 8.10457 8.5 7 8.5ZM10 10.5C10 9.39543 10.8954 8.5 12 8.5C13.1046 8.5 14 9.39543 14 10.5C14 11.6046 13.1046 12.5 12 12.5C10.8954 12.5 10 11.6046 10 10.5ZM17 8.5C15.8954 8.5 15 9.39543 15 10.5C15 11.6046 15.8954 12.5 17 12.5C18.1046 12.5 19 11.6046 19 10.5C19 9.39543 18.1046 8.5 17 8.5Z" fill="current"/>
</svg>
