<svg width="24" height="24" viewBox="0 0 24 24" fill="none" xmlns="http://www.w3.org/2000/svg">
<path fill-rule="evenodd" clip-rule="evenodd" d="M6 16C4.067 16 2.5 17.567 2.5 19.5C2.5 21.433 4.067 23 6 23C7.933 23 9.5 21.433 9.5 19.5C9.5 17.567 7.933 16 6 16Z" fill="black"/>
<path fill-rule="evenodd" clip-rule="evenodd" d="M20.5 6.5H11.5V4.5H20.5V6.5Z" fill="black"/>
<path fill-rule="evenodd" clip-rule="evenodd" d="M20.5 13.5H11.5V11.5H20.5V13.5Z" fill="black"/>
<path fill-rule="evenodd" clip-rule="evenodd" d="M20.5 21.5H11.5V19.5H20.5V21.5Z" fill="black"/>
<path fill-rule="evenodd" clip-rule="evenodd" d="M10.2071 2.70718L6.20706 6.70718C5.81654 7.09771 5.18337 7.09771 4.79285 6.70718L2.79285 4.70718L4.20706 3.29297L5.49995 4.58586L8.79285 1.29297L10.2071 2.70718Z" fill="black"/>
<path fill-rule="evenodd" clip-rule="evenodd" d="M10.2071 9.70718L6.20706 13.7072C5.81654 14.0977 5.18337 14.0977 4.79285 13.7072L2.79285 11.7072L4.20706 10.293L5.49995 11.5859L8.79285 8.29297L10.2071 9.70718Z" fill="black"/>
</svg>
