<svg width="24" height="24" viewBox="0 0 24 24" fill="none" xmlns="http://www.w3.org/2000/svg">
<path fill-rule="evenodd" clip-rule="evenodd" d="M4.35364 16.3535C3.80135 16.3535 3.35364 16.8012 3.35364 17.3535V21.3535C3.35364 21.9058 3.80135 22.3535 4.35364 22.3535H8.35364C8.90592 22.3535 9.35364 21.9058 9.35364 21.3535V17.3535C9.35364 16.8012 8.90592 16.3535 8.35364 16.3535H4.35364Z" fill="black"/>
<path fill-rule="evenodd" clip-rule="evenodd" d="M15.8536 4.85352H11.8536V2.85352H15.8536V4.85352Z" fill="black"/>
<path fill-rule="evenodd" clip-rule="evenodd" d="M15.8536 11.8535H11.8536V9.85352H15.8536V11.8535Z" fill="black"/>
<path fill-rule="evenodd" clip-rule="evenodd" d="M15.8536 18.8535H11.8536V16.8535H15.8536V18.8535Z" fill="black"/>
<path fill-rule="evenodd" clip-rule="evenodd" d="M20.8536 7.85352H11.8536V5.85352H20.8536V7.85352Z" fill="black"/>
<path fill-rule="evenodd" clip-rule="evenodd" d="M20.8536 14.8535H11.8536V12.8535H20.8536V14.8535Z" fill="black"/>
<path fill-rule="evenodd" clip-rule="evenodd" d="M20.8536 21.8535H11.8536V19.8535H20.8536V21.8535Z" fill="black"/>
<path fill-rule="evenodd" clip-rule="evenodd" d="M10.5607 3.0607L6.5607 7.0607C6.17017 7.45122 5.53701 7.45122 5.14648 7.0607L3.14648 5.0607L4.5607 3.64648L5.85359 4.93938L9.14648 1.64648L10.5607 3.0607Z" fill="black"/>
<path fill-rule="evenodd" clip-rule="evenodd" d="M10.5607 10.0607L6.5607 14.0607C6.17017 14.4512 5.53701 14.4512 5.14648 14.0607L3.14648 12.0607L4.5607 10.6465L5.85359 11.9394L9.14648 8.64648L10.5607 10.0607Z" fill="black"/>
</svg>
