<svg width="24" height="24" viewBox="0 0 24 24" fill="none" xmlns="http://www.w3.org/2000/svg">
<path fill-rule="evenodd" clip-rule="evenodd" d="M1 4C1 3.44772 1.44772 3 2 3H22C22.5523 3 23 3.44772 23 4V22C23 22.5523 22.5523 23 22 23H2C1.44772 23 1 22.5523 1 22V4ZM3 5V21H21V5H3Z" fill="black"/>
<path fill-rule="evenodd" clip-rule="evenodd" d="M7 1.5V5.5H5V1.5H7Z" fill="black"/>
<path fill-rule="evenodd" clip-rule="evenodd" d="M19 1.5V5.5H17V1.5H19Z" fill="black"/>
<path fill-rule="evenodd" clip-rule="evenodd" d="M1 8C1 7.44772 1.44772 7 2 7H22C22.5523 7 23 7.44772 23 8V22C23 22.5523 22.5523 23 22 23H2C1.44772 23 1 22.5523 1 22V8ZM10.7071 19.2071L18.7071 11.2071L17.2929 9.79289L10 17.0858L7.20711 14.2929L5.79289 15.7071L9.29289 19.2071C9.68342 19.5976 10.3166 19.5976 10.7071 19.2071Z" fill="black"/>
</svg>
