<svg width="24" height="24" viewBox="0 0 24 24" fill="none" xmlns="http://www.w3.org/2000/svg">
<path fill-rule="evenodd" clip-rule="evenodd" d="M1 3.5C1 2.94772 1.44772 2.5 2 2.5H20C20.5523 2.5 21 2.94772 21 3.5V9.5H19V4.5H3V18.5H10V20.5H2C1.44772 20.5 1 20.0523 1 19.5V3.5Z" fill="black"/>
<path fill-rule="evenodd" clip-rule="evenodd" d="M2 6.5H20V8.5H2V6.5Z" fill="black"/>
<path fill-rule="evenodd" clip-rule="evenodd" d="M5 5V1.5H7V5H5Z" fill="black"/>
<path fill-rule="evenodd" clip-rule="evenodd" d="M15 5V1.5H17V5H15Z" fill="black"/>
<path fill-rule="evenodd" clip-rule="evenodd" d="M11 16.5C11 13.1863 13.6863 10.5 17 10.5C20.3137 10.5 23 13.1863 23 16.5C23 19.8137 20.3137 22.5 17 22.5C13.6863 22.5 11 19.8137 11 16.5ZM17.2071 18.7071L19.7071 16.2071L18.2929 14.7929L16.5 16.5858L15.7071 15.7929L14.2929 17.2071L15.7929 18.7071C16.1834 19.0976 16.8166 19.0976 17.2071 18.7071Z" fill="black"/>
</svg>
