<svg width="24" height="24" viewBox="0 0 24 24" fill="none" xmlns="http://www.w3.org/2000/svg">
<path fill-rule="evenodd" clip-rule="evenodd" d="M5 5.5C4.17157 5.5 3.5 6.17157 3.5 7V18C3.5 18.8284 4.17157 19.5 5 19.5H16C16.8284 19.5 17.5 18.8284 17.5 18V10.5H19.5V18C19.5 19.933 17.933 21.5 16 21.5H5C3.067 21.5 1.5 19.933 1.5 18V7C1.5 5.067 3.067 3.5 5 3.5H15V5.5H5Z" fill="black"/>
<path fill-rule="evenodd" clip-rule="evenodd" d="M22.2071 4.20718L10.7071 15.7072C10.3165 16.0977 9.68337 16.0977 9.29285 15.7072L5.29285 11.7072L6.70706 10.293L9.99995 13.5859L20.7928 2.79297L22.2071 4.20718Z" fill="black"/>
</svg>
