<svg width="24" height="24" viewBox="0 0 24 24" fill="none" xmlns="http://www.w3.org/2000/svg">
<path fill-rule="evenodd" clip-rule="evenodd" d="M13 3.5V6.5H11V3.5H13Z" fill="black"/>
<path fill-rule="evenodd" clip-rule="evenodd" d="M6 5.5C3.23858 5.5 1 7.73858 1 10.5V17.5C1 19.7091 2.79086 21.5 5 21.5H5.33726C6.71642 21.5 7.9983 20.7895 8.72925 19.62L9.7605 17.97C9.94324 17.6776 10.2637 17.5 10.6085 17.5H13C13.3148 17.5 13.6111 17.6482 13.8 17.9L15.3 19.9C16.0554 20.9072 17.241 21.5 18.5 21.5H19C21.2091 21.5 23 19.7091 23 17.5V10.5C23 7.73858 20.7614 5.5 18 5.5H6ZM6 13.5H4.5V11.5H6V10H8V11.5H9.5V13.5H8V15H6V13.5ZM17.5 15H15.5V13H17.5V15ZM17.5 12H19.5V10H17.5V12Z" fill="black"/>
</svg>
