<svg width="24" height="24" viewBox="0 0 24 24" fill="none" xmlns="http://www.w3.org/2000/svg">
<path fill-rule="evenodd" clip-rule="evenodd" d="M1 2C1 1.44772 1.44772 1 2 1H14C14.5523 1 15 1.44772 15 2V3.5H13V3H3V17H7.5V19H2C1.44772 19 1 18.5523 1 18V2Z" fill="black"/>
<path fill-rule="evenodd" clip-rule="evenodd" d="M9 6C9 5.44772 9.44772 5 10 5H22C22.5523 5 23 5.44772 23 6V22C23 22.5523 22.5523 23 22 23H10C9.44772 23 9 22.5523 9 22V6ZM13 12H17V10H13V12ZM19 15H13V13H19V15ZM13 18H16V16H13V18Z" fill="black"/>
</svg>
