<svg width="24" height="24" viewBox="0 0 24 24" fill="none" xmlns="http://www.w3.org/2000/svg">
<path fill-rule="evenodd" clip-rule="evenodd" d="M5.5 14C3.01472 14 1 16.0147 1 18.5C1 20.9853 3.01472 23 5.5 23C7.98528 23 10 20.9853 10 18.5C10 16.0147 7.98528 14 5.5 14Z" fill="black"/>
<path fill-rule="evenodd" clip-rule="evenodd" d="M18.5 14C16.0147 14 14 16.0147 14 18.5C14 20.9853 16.0147 23 18.5 23C20.9853 23 23 20.9853 23 18.5C23 16.0147 20.9853 14 18.5 14Z" fill="black"/>
<path fill-rule="evenodd" clip-rule="evenodd" d="M7.29297 15.293L20.293 2.29297L21.7072 3.70718L8.70718 16.7072L7.29297 15.293Z" fill="black"/>
<path fill-rule="evenodd" clip-rule="evenodd" d="M10.707 9.29297L3.70703 2.29297L2.29282 3.70718L9.29282 10.7072L10.707 9.29297ZM16.707 15.293L12.707 11.293L11.2928 12.7072L15.2928 16.7072L16.707 15.293Z" fill="black"/>
</svg>
