<svg width="24" height="24" viewBox="0 0 24 24" fill="none" xmlns="http://www.w3.org/2000/svg">
<path fill-rule="evenodd" clip-rule="evenodd" d="M12.9996 1C6.9245 1 1.99963 5.92487 1.99963 12C1.99963 18.0751 6.9245 23 12.9996 23C16.5991 23 19.7948 21.2701 21.7999 18.6006C22.0275 18.2976 22.0643 17.8921 21.895 17.5531C21.7256 17.2141 21.3793 17 21.0004 17C16.8581 17 13.4996 13.642 13.4996 9.5C13.4996 6.94482 14.7765 4.68769 16.7315 3.33197C17.0427 3.11618 17.2053 2.74313 17.1515 2.36829C17.0978 1.99344 16.8369 1.68111 16.4776 1.56146C15.3832 1.19697 14.2134 1 12.9996 1Z" fill="black"/>
</svg>
