<svg width="24" height="24" viewBox="0 0 24 24" fill="none" xmlns="http://www.w3.org/2000/svg">
<path fill-rule="evenodd" clip-rule="evenodd" d="M6 10.5C4.34315 10.5 3 11.8431 3 13.5V14.951C3 15.2904 3.05761 15.6274 3.17038 15.9476L3.34999 16.4576C3.46355 16.78 3.73394 17.0221 4.06691 17.0994C4.39988 17.1768 4.74929 17.0787 4.99336 16.8393L9.20016 12.714C9.43986 12.4789 9.54561 12.1393 9.48173 11.8097C9.41784 11.4801 9.19284 11.2046 8.88268 11.0761L8.04312 10.7284C7.67914 10.5776 7.28903 10.5 6.89507 10.5H6Z" fill="black"/>
<path fill-rule="evenodd" clip-rule="evenodd" d="M17.5 10.5C15.8431 10.5 14.5 11.8431 14.5 13.5V18C14.5 19.6569 15.8431 21 17.5 21H18C19.6569 21 21 19.6569 21 18L21 13.5C21 11.8431 19.6569 10.5 18 10.5H17.5Z" fill="black"/>
<path fill-rule="evenodd" clip-rule="evenodd" d="M14.7929 5L11 5C7.68629 5 5 7.68629 5 11V13.5655H3V11C3 6.58172 6.58173 3 11 3L14.7929 3C15.5109 3 16.1994 3.28521 16.7071 3.79289L15.2929 5.20711C15.1603 5.0745 14.9804 5 14.7929 5ZM19.0547 5.16795C20.27 5.97816 21 7.34215 21 8.80278V15.5H19V8.80278C19 8.01085 18.6042 7.27133 17.9453 6.83205L19.0547 5.16795Z" fill="black"/>
<path fill-rule="evenodd" clip-rule="evenodd" d="M2.29297 20.293L20.293 2.29297L21.7072 3.70718L3.70718 21.7072L2.29297 20.293Z" fill="black"/>
<path fill-rule="evenodd" clip-rule="evenodd" d="M10 15.5C10 15.1076 9.77053 14.7515 9.41322 14.5894C9.0559 14.4272 8.63679 14.4891 8.3415 14.7474L4.3415 18.2474L5 19H4C4 20.1046 4.89543 21 6.00001 21H7C8.65685 21 10 19.6569 10 18V15.5Z" fill="black"/>
</svg>
