<svg width="24" height="24" viewBox="0 0 24 24" fill="none" xmlns="http://www.w3.org/2000/svg">
<path fill-rule="evenodd" clip-rule="evenodd" d="M4.26898 6.9114C4.4581 6.70878 4.72284 6.59375 5 6.59375H19C19.2772 6.59375 19.5419 6.70878 19.731 6.9114C19.9202 7.11402 20.0167 7.38604 19.9976 7.66255L18.9976 22.1626C18.9615 22.6869 18.5256 23.0938 18 23.0938H6C5.47442 23.0938 5.03853 22.6869 5.00237 22.1626L4.00237 7.66255C3.9833 7.38604 4.07985 7.11402 4.26898 6.9114ZM11 10.0938V19.0938H13V10.0938H11ZM8.00154 19.1492L7.50154 10.1492L9.49846 10.0383L9.99846 19.0383L8.00154 19.1492ZM16.4985 10.1492L15.9985 19.1492L14.0015 19.0383L14.5015 10.0383L16.4985 10.1492Z" fill="black"/>
<path fill-rule="evenodd" clip-rule="evenodd" d="M12 2.90625C11.4477 2.90625 11 3.35397 11 3.90625V4.59375H9V3.90625C9 2.2494 10.3431 0.90625 12 0.90625C13.6569 0.90625 15 2.2494 15 3.90625V4.59375H13V3.90625C13 3.35397 12.5523 2.90625 12 2.90625Z" fill="black"/>
<path fill-rule="evenodd" clip-rule="evenodd" d="M4.0415 5.82788C4.27954 4.40902 5.51353 3.32788 7.00002 3.32788H17C18.4865 3.32788 19.7205 4.40902 19.9585 5.82788H4.0415ZM4.13381 7.82788C4.30671 8.12678 4.62988 8.32788 5.00002 8.32788H19C19.3702 8.32788 19.6933 8.12678 19.8662 7.82788H4.13381Z" fill="black"/>
</svg>
