<svg width="24" height="24" viewBox="0 0 24 24" fill="none" xmlns="http://www.w3.org/2000/svg">
<path fill-rule="evenodd" clip-rule="evenodd" d="M12 6V1H6C4.34315 1 3 2.34315 3 4V20C3 21.6569 4.34315 23 6 23H18C19.6569 23 21 21.6569 21 20V9H15C13.3431 9 12 7.65685 12 6ZM14 6V1.55604C14.073 1.60804 14.144 1.66346 14.2125 1.72223L19.9524 6.6421C20.0808 6.75215 20.1986 6.87198 20.3053 7H15C14.4477 7 14 6.55228 14 6ZM8.06888 13L8.50254 19.0712C8.53992 19.5946 8.97536 20 9.5 20H14.5C15.0246 20 15.4601 19.5946 15.4975 19.0712L15.9311 13H16.5V11H15H13V10H11V11H9H7.5V13H8.06888ZM10.4311 18L10.074 13H13.926L13.5689 18H10.4311Z" fill="black"/>
</svg>
