<svg width="24" height="24" viewBox="0 0 24 24" fill="none" xmlns="http://www.w3.org/2000/svg">
<path fill-rule="evenodd" clip-rule="evenodd" d="M1.09058 3.5C1.09058 2.94772 1.53829 2.5 2.09058 2.5H8.09058C8.42493 2.5 8.73716 2.6671 8.92263 2.9453L10.6258 5.5H22.0906C22.6429 5.5 23.0906 5.94772 23.0906 6.5V20.5C23.0906 21.0523 22.6429 21.5 22.0906 21.5H2.09058C1.53829 21.5 1.09058 21.0523 1.09058 20.5V3.5ZM8.15946 11.5L8.59312 17.5712C8.6305 18.0946 9.06594 18.5 9.59058 18.5H14.5906C15.1152 18.5 15.5507 18.0946 15.588 17.5712L16.0217 11.5H16.5906V9.5H15.0906H13.0906V9H11.0906V9.5H9.09058H7.59058V11.5H8.15946ZM10.1646 11.5H14.0166L13.6595 16.5H10.5217L10.1646 11.5Z" fill="black"/>
</svg>
