<svg width="24" height="24" viewBox="0 0 24 24" fill="none" xmlns="http://www.w3.org/2000/svg">
<path fill-rule="evenodd" clip-rule="evenodd" d="M22 6H2V4H22V6Z" fill="black"/>
<path fill-rule="evenodd" clip-rule="evenodd" d="M4.26898 6.81765C4.4581 6.61503 4.72284 6.5 5 6.5H19C19.2772 6.5 19.5419 6.61503 19.731 6.81765C19.9202 7.02027 20.0167 7.29229 19.9976 7.5688L18.9976 22.0688C18.9615 22.5931 18.5256 23 18 23H6C5.47442 23 5.03853 22.5931 5.00237 22.0688L4.00237 7.5688C3.9833 7.29229 4.07985 7.02027 4.26898 6.81765ZM11 10V19H13V10H11ZM8.00154 19.0555L7.50154 10.0555L9.49846 9.94453L9.99846 18.9445L8.00154 19.0555ZM16.4985 10.0555L15.9985 19.0555L14.0015 18.9445L14.5015 9.94453L16.4985 10.0555Z" fill="black"/>
<path fill-rule="evenodd" clip-rule="evenodd" d="M5 4C5 2.34315 6.34315 1 8 1H16C17.6569 1 19 2.34315 19 4V5C19 5.55228 18.5523 6 18 6H6C5.44772 6 5 5.55228 5 5V4ZM8 3C7.44772 3 7 3.44772 7 4H17C17 3.44772 16.5523 3 16 3H8Z" fill="black"/>
</svg>
