<svg width="24" height="24" viewBox="0 0 24 24" fill="none" xmlns="http://www.w3.org/2000/svg">
<path fill-rule="evenodd" clip-rule="evenodd" d="M9 16C9 12.134 12.134 9 16 9C19.866 9 23 12.134 23 16C23 19.866 19.866 23 16 23C12.134 23 9 19.866 9 16ZM13.0644 15.5L13.3355 19.5665C13.3706 20.0918 13.8069 20.5 14.3333 20.5H17.6667C18.1931 20.5 18.6294 20.0918 18.6645 19.5665L18.9356 15.5H19.5V13.5H18H17V13H15V13.5H14H12.5V15.5H13.0644ZM15.2689 18.5L15.0689 15.5H16.9311L16.7311 18.5H15.2689Z" fill="black"/>
<path fill-rule="evenodd" clip-rule="evenodd" d="M1 2C1 1.44772 1.44772 1 2 1H6.9C7.22973 1 7.53826 1.16254 7.72473 1.43447L9.2268 3.625H19.5C20.0523 3.625 20.5 4.07272 20.5 4.625V8H18.5V5.625H8.7C8.37027 5.625 8.06174 5.46246 7.87527 5.19053L6.37319 3H3V19H8V21H2C1.44772 21 1 20.5523 1 20V2Z" fill="black"/>
</svg>
