<svg width="24" height="24" viewBox="0 0 24 24" fill="none" xmlns="http://www.w3.org/2000/svg">
<path fill-rule="evenodd" clip-rule="evenodd" d="M5 10.5C5 6.63401 8.13401 3.5 12 3.5C15.866 3.5 19 6.63401 19 10.5C19 14.366 15.866 17.5 12 17.5C8.13401 17.5 5 14.366 5 10.5ZM11 7.10331C10.1298 7.383 9.5 8.1991 9.5 9.16228C9.5 10.093 10.0956 10.9193 10.9785 11.2136L12.389 11.6838C12.4553 11.7059 12.5 11.7679 12.5 11.8377C12.5 11.9273 12.4273 12 12.3377 12H9.5V14H11V15H13V13.8967C13.8702 13.617 14.5 12.8009 14.5 11.8377C14.5 10.907 13.9044 10.0807 13.0215 9.78641L11.611 9.31623C11.5447 9.29414 11.5 9.23213 11.5 9.16228C11.5 9.07265 11.5727 9 11.6623 9H14.5V7H13V6H11V7.10331Z" fill="black"/>
<path fill-rule="evenodd" clip-rule="evenodd" d="M20 20H4V18H20V20Z" fill="black"/>
</svg>
