<svg width="24" height="24" viewBox="0 0 24 24" fill="none" xmlns="http://www.w3.org/2000/svg">
<path fill-rule="evenodd" clip-rule="evenodd" d="M1 12C1 5.92487 5.92487 1 12 1C18.0751 1 23 5.92487 23 12C23 18.0751 18.0751 23 12 23C5.92487 23 1 18.0751 1 12ZM13 5.33333V6.65735C14.2798 6.99995 15.2222 8.16769 15.2222 9.55554V9.77776H13.2222V9.55554C13.2222 9.00326 12.7745 8.55554 12.2222 8.55554H11.7778C11.2255 8.55554 10.7778 9.00326 10.7778 9.55554V9.65281C10.7778 10.0316 10.9918 10.3778 11.3306 10.5472L13.5639 11.6639C14.5802 12.1721 15.2222 13.2108 15.2222 14.3472V14.4444C15.2222 15.8323 14.2798 17 13 17.3426V18.6667H11V17.3426C9.72019 17 8.77777 15.8323 8.77777 14.4444V14.2222H10.7778V14.4444C10.7778 14.9967 11.2255 15.4444 11.7778 15.4444H12.2222C12.7745 15.4444 13.2222 14.9967 13.2222 14.4444V14.3472C13.2222 13.9684 13.0082 13.6221 12.6694 13.4527L10.4361 12.3361C9.41978 11.8279 8.77777 10.7891 8.77777 9.65281V9.55554C8.77777 8.16768 9.72019 6.99994 11 6.65735V5.33333H13Z" fill="black"/>
</svg>
