<svg width="24" height="24" viewBox="0 0 24 24" fill="none" xmlns="http://www.w3.org/2000/svg">
<path fill-rule="evenodd" clip-rule="evenodd" d="M12 6V1H6C4.34315 1 3 2.34315 3 4V20C3 21.6569 4.34315 23 6 23H18C19.6569 23 21 21.6569 21 20V9H15C13.3431 9 12 7.65685 12 6ZM14 6V1.55604C14.073 1.60804 14.144 1.66346 14.2125 1.72223L19.9524 6.6421C20.0808 6.75215 20.1986 6.87198 20.3053 7H15C14.4477 7 14 6.55228 14 6ZM8 17V19H16V17H8ZM13 12.5858V9H11V12.5858L9.70711 11.2929L8.29289 12.7071L11.2929 15.7071C11.6834 16.0976 12.3166 16.0976 12.7071 15.7071L15.7071 12.7071L14.2929 11.2929L13 12.5858Z" fill="black"/>
</svg>
