<svg width="24" height="24" viewBox="0 0 24 24" fill="none" xmlns="http://www.w3.org/2000/svg">
<path fill-rule="evenodd" clip-rule="evenodd" d="M2 17V14H4V17C4 17.5523 4.44772 18 5 18H19C19.5523 18 20 17.5523 20 17V14H22V17C22 18.6569 20.6569 20 19 20H5C3.34315 20 2 18.6569 2 17Z" fill="black"/>
<path fill-rule="evenodd" clip-rule="evenodd" d="M11 16V5H13V16H11Z" fill="black"/>
<path fill-rule="evenodd" clip-rule="evenodd" d="M12 17C11.6962 17 11.4089 16.8619 11.2191 16.6247L7.21915 11.6247L8.78088 10.3753L12 14.3992L15.2191 10.3753L16.7809 11.6247L12.7809 16.6247C12.5911 16.8619 12.3038 17 12 17Z" fill="black"/>
</svg>
