<svg width="24" height="24" viewBox="0 0 24 24" fill="none" xmlns="http://www.w3.org/2000/svg">
<path fill-rule="evenodd" clip-rule="evenodd" d="M11.0625 2C7.37844 2 4.41885 4.94784 4.1456 8.61965C2.31933 9.07555 1 10.778 1 12.75C1 15.0599 2.81022 17 5.125 17H17.625C18.2396 17 18.8244 16.8609 19.3494 16.6118C21.5006 15.7594 23 13.6109 23 11.125C23 7.91766 20.4902 5.25 17.3125 5.25C17.1676 5.25 17.0237 5.25562 16.8813 5.26668C15.6511 3.31194 13.514 2 11.0625 2ZM11.2929 21.7071C11.6834 22.0976 12.3166 22.0976 12.7071 21.7071L15.7071 18.7071L14.2929 17.2929L13 18.5858V13H11V18.5858L9.70712 17.2929L8.29291 18.7071L11.2929 21.7071Z" fill="black"/>
</svg>
