<svg width="24" height="24" viewBox="0 0 24 24" fill="none" xmlns="http://www.w3.org/2000/svg">
<path fill-rule="evenodd" clip-rule="evenodd" d="M16.5 10C12.9101 10 10 12.9101 10 16.5C10 20.0899 12.9101 23 16.5 23C20.0899 23 23 20.0899 23 16.5C23 12.9101 20.0899 10 16.5 10ZM17.5 17.0858V13.5H15.5V17.0858L14.7071 16.2929L13.2929 17.7071L15.7929 20.2071C16.1834 20.5976 16.8166 20.5976 17.2071 20.2071L19.7071 17.7071L18.2929 16.2929L17.5 17.0858Z" fill="black"/>
<path fill-rule="evenodd" clip-rule="evenodd" d="M4 3C3.44772 3 3 3.44772 3 4V20C3 20.5523 3.44772 21 4 21H9.5V23H4C2.34315 23 1 21.6569 1 20V4C1 2.34315 2.34315 1 4 1H9.72203C10.4726 1 11.1959 1.28136 11.7492 1.78854L16.5272 6.16834C17.1471 6.73657 17.5 7.53888 17.5 8.3798V8.5H15.5V8.3798C15.5 8.0995 15.3824 7.83206 15.1757 7.64265L10.3978 3.26285C10.2133 3.09379 9.97222 3 9.72203 3H4Z" fill="black"/>
<path fill-rule="evenodd" clip-rule="evenodd" d="M9.5 5.5V2.5H11.5V5.5C11.5 6.05228 11.9477 6.5 12.5 6.5H16V8.5H12.5C10.8431 8.5 9.5 7.15685 9.5 5.5Z" fill="black"/>
</svg>
