<svg width="24" height="24" viewBox="0 0 24 24" fill="none" xmlns="http://www.w3.org/2000/svg">
<path fill-rule="evenodd" clip-rule="evenodd" d="M3 4C3 2.34315 4.34315 1 6 1H18C19.6569 1 21 2.34315 21 4V22C21 22.3375 20.8298 22.6522 20.5473 22.8369C20.2649 23.0216 19.9084 23.0514 19.5992 22.9162L16 21.3415L12.4008 22.9162C12.1453 23.0279 11.8547 23.0279 11.5992 22.9162L8 21.3415L4.40082 22.9162C4.09164 23.0514 3.73509 23.0216 3.45265 22.8369C3.17022 22.6522 3 22.3375 3 22V4ZM10 8C10 6.89543 10.8954 6 12 6C13.1046 6 14 6.89543 14 8C14 9.10457 13.1046 10 12 10C10.8954 10 10 9.10457 10 8ZM12 4C9.79086 4 8 5.79086 8 8C8 10.2091 9.79086 12 12 12C14.2091 12 16 10.2091 16 8C16 5.79086 14.2091 4 12 4ZM13 15H6.5V13H13V15ZM6.5 18H13V16H6.5V18ZM17.5 15H15.5V13H17.5V15ZM15.5 18H17.5V16H15.5V18Z" fill="black"/>
</svg>
