<svg width="24" height="24" viewBox="0 0 24 24" fill="none" xmlns="http://www.w3.org/2000/svg">
<path fill-rule="evenodd" clip-rule="evenodd" d="M6 1C4.34315 1 3 2.34315 3 4V22C3 22.3375 3.17022 22.6522 3.45265 22.8369C3.73509 23.0216 4.09164 23.0514 4.40082 22.9162L8 21.3415L11.5992 22.9162C11.8547 23.0279 12.1453 23.0279 12.4008 22.9162L16 21.3415L19.5992 22.9162C19.9084 23.0514 20.2649 23.0216 20.5473 22.8369C20.8298 22.6522 21 22.3375 21 22V4C21 2.34315 19.6569 1 18 1H6ZM13 12H6.5V10H13V12ZM6.5 16H13V14H6.5V16ZM17.5 12H15.5V10H17.5V12ZM15.5 16H17.5V14H15.5V16ZM13 8H6.5V6H13V8ZM15.5 8H17.5V6H15.5V8Z" fill="black"/>
</svg>
