<svg width="24" height="24" viewBox="0 0 24 24" fill="none" xmlns="http://www.w3.org/2000/svg">
<path fill-rule="evenodd" clip-rule="evenodd" d="M12 6V1H6C4.34315 1 3 2.34315 3 4V20C3 21.6569 4.34315 23 6 23H18C19.6569 23 21 21.6569 21 20V9H15C13.3431 9 12 7.65685 12 6ZM14 6V1.55604C14.073 1.60804 14.144 1.66346 14.2125 1.72223L19.9524 6.6421C20.0808 6.75215 20.1986 6.87198 20.3053 7H15C14.4477 7 14 6.55228 14 6ZM13.2929 10.2929C13.6722 9.91354 14.2834 9.90113 14.6778 10.2648L16.6778 12.1085C16.8763 12.2915 16.9924 12.5471 16.9996 12.817C17.0069 13.0869 16.9046 13.3483 16.7161 13.5417L11.3049 19.0939C10.7402 19.6733 9.96549 20 9.15647 20H8C7.44772 20 7 19.5523 7 19V17.8284C7 17.0328 7.31607 16.2697 7.87868 15.7071L13.2929 10.2929Z" fill="black"/>
</svg>
