<svg width="24" height="24" viewBox="0 0 24 24" fill="none" xmlns="http://www.w3.org/2000/svg">
<path fill-rule="evenodd" clip-rule="evenodd" d="M1 3.5C1 2.94772 1.44772 2.5 2 2.5H19.5C20.0523 2.5 20.5 2.94772 20.5 3.5V9H18.5V4.5H3V18.5H9V20.5H2C1.44772 20.5 1 20.0523 1 19.5V3.5Z" fill="black"/>
<path fill-rule="evenodd" clip-rule="evenodd" d="M2 7H19.5V9H2V7Z" fill="black"/>
<path fill-rule="evenodd" clip-rule="evenodd" d="M4.5 5V2H6.5V5H4.5Z" fill="black"/>
<path fill-rule="evenodd" clip-rule="evenodd" d="M14.5 5V2H16.5V5H14.5Z" fill="black"/>
<path fill-rule="evenodd" clip-rule="evenodd" d="M10 16.5C10 12.9101 12.9101 10 16.5 10C20.0899 10 23 12.9101 23 16.5C23 20.0899 20.0899 23 16.5 23C12.9101 23 10 20.0899 10 16.5ZM16.7929 13.2929C17.1834 12.9024 17.8166 12.9024 18.2071 13.2929L19.7071 14.7929C20.0976 15.1834 20.0976 15.8166 19.7071 16.2071L17.2929 18.6213C16.7303 19.1839 15.9672 19.5 15.1716 19.5H14.5C13.9477 19.5 13.5 19.0523 13.5 18.5V17.8284C13.5 17.0328 13.8161 16.2697 14.3787 15.7071L16.7929 13.2929Z" fill="black"/>
</svg>
