<svg width="24" height="24" viewBox="0 0 24 24" fill="none" xmlns="http://www.w3.org/2000/svg">
<path fill-rule="evenodd" clip-rule="evenodd" d="M19.2071 1.79289C18.8166 1.40237 18.1834 1.40237 17.7929 1.79289L8.7929 10.7929C8.63991 10.9459 8.54066 11.1444 8.51006 11.3586L8.01006 14.8586C7.96555 15.1702 8.07034 15.4845 8.2929 15.7071C8.51547 15.9297 8.82984 16.0345 9.14143 15.9899L12.6414 15.4899C12.8556 15.4594 13.0541 15.3601 13.2071 15.2071L22.2071 6.20711C22.5976 5.81658 22.5976 5.18342 22.2071 4.79289L19.2071 1.79289Z" fill="current"/>
<path fill-rule="evenodd" clip-rule="evenodd" d="M5 6.5C4.17157 6.5 3.5 7.17157 3.5 8V19C3.5 19.8284 4.17157 20.5 5 20.5H16C16.8284 20.5 17.5 19.8284 17.5 19V11.5H19.5V19C19.5 20.933 17.933 22.5 16 22.5H5C3.067 22.5 1.5 20.933 1.5 19V8C1.5 6.067 3.067 4.5 5 4.5H12.5V6.5H5Z" fill="current"/>
</svg>
