<svg width="24" height="24" viewBox="0 0 24 24" fill="none" xmlns="http://www.w3.org/2000/svg">
<path fill-rule="evenodd" clip-rule="evenodd" d="M8 15.5C8 11.3579 11.3579 8 15.5 8C19.6421 8 23 11.3579 23 15.5C23 19.6421 19.6421 23 15.5 23C11.3579 23 8 19.6421 8 15.5ZM16.7929 11.7929C17.1722 11.4135 17.7834 11.4011 18.1778 11.7648L19.6778 13.1476C19.8763 13.3306 19.9924 13.5861 19.9996 13.8561C20.0069 14.126 19.9046 14.3874 19.7161 14.5808L15.8049 18.5939C15.2402 19.1733 14.4655 19.5 13.6565 19.5H13C12.4477 19.5 12 19.0523 12 18.5V17.8284C12 17.0328 12.3161 16.2697 12.8787 15.7071L16.7929 11.7929Z" fill="black"/>
<path fill-rule="evenodd" clip-rule="evenodd" d="M1 2C1 1.44772 1.44772 1 2 1H6.9C7.22973 1 7.53826 1.16254 7.72473 1.43447L9.2268 3.625H19.5C20.0523 3.625 20.5 4.07272 20.5 4.625V7H18.5V5.625H8.7C8.37027 5.625 8.06174 5.46246 7.87527 5.19053L6.37319 3H3V19H7V21H2C1.44772 21 1 20.5523 1 20V2Z" fill="black"/>
</svg>
