<svg width="24" height="24" viewBox="0 0 24 24" fill="none" xmlns="http://www.w3.org/2000/svg">
<path fill-rule="evenodd" clip-rule="evenodd" d="M1 4C1 3.44772 1.44772 3 2 3H22C22.5523 3 23 3.44772 23 4V22C23 22.5523 22.5523 23 22 23H2C1.44772 23 1 22.5523 1 22V4ZM3 5V21H21V5H3Z" fill="black"/>
<path fill-rule="evenodd" clip-rule="evenodd" d="M7 2V5.5H5V2H7Z" fill="black"/>
<path fill-rule="evenodd" clip-rule="evenodd" d="M19 2V5.5H17V2H19Z" fill="black"/>
<path fill-rule="evenodd" clip-rule="evenodd" d="M1 8C1 7.44772 1.44772 7 2 7H22C22.5523 7 23 7.44772 23 8V21.9297C23 22.482 22.5523 22.9297 22 22.9297H2C1.44772 22.9297 1 22.482 1 21.9297V8ZM13.2929 10.2929C13.6722 9.91354 14.2834 9.90113 14.6778 10.2648L16.6778 12.1085C16.8763 12.2915 16.9924 12.5471 16.9996 12.817C17.0069 13.0869 16.9046 13.3483 16.7161 13.5417L11.3049 19.0939C10.7402 19.6733 9.96549 20 9.15648 20H8C7.44772 20 7 19.5523 7 19V17.8284C7 17.0328 7.31607 16.2697 7.87868 15.7071L13.2929 10.2929Z" fill="black"/>
</svg>
