<svg width="24" height="24" viewBox="0 0 24 24" fill="none" xmlns="http://www.w3.org/2000/svg">
<path fill-rule="evenodd" clip-rule="evenodd" d="M10 16.5C10 12.9101 12.9101 10 16.5 10C20.0899 10 23 12.9101 23 16.5C23 20.0899 20.0899 23 16.5 23C12.9101 23 10 20.0899 10 16.5ZM16.7929 13.2929C17.1834 12.9024 17.8166 12.9024 18.2071 13.2929L19.7071 14.7929C20.0976 15.1834 20.0976 15.8166 19.7071 16.2071L17.2929 18.6213C16.7303 19.1839 15.9672 19.5 15.1716 19.5H14.5C13.9477 19.5 13.5 19.0523 13.5 18.5V17.8284C13.5 17.0328 13.8161 16.2697 14.3787 15.7071L16.7929 13.2929Z" fill="black"/>
<path fill-rule="evenodd" clip-rule="evenodd" d="M4 3C3.44772 3 3 3.44772 3 4V20C3 20.5523 3.44772 21 4 21H9.5V23H4C2.34315 23 1 21.6569 1 20V4C1 2.34315 2.34315 1 4 1H9.72203C10.4726 1 11.1959 1.28136 11.7492 1.78854L16.5272 6.16834C17.1471 6.73657 17.5 7.53888 17.5 8.3798V8.5H15.5V8.3798C15.5 8.0995 15.3824 7.83206 15.1757 7.64265L10.3978 3.26285C10.2133 3.09379 9.97222 3 9.72203 3H4Z" fill="black"/>
<path fill-rule="evenodd" clip-rule="evenodd" d="M9.5 5.5V2.5H11.5V5.5C11.5 6.05228 11.9477 6.5 12.5 6.5H16V8.5H12.5C10.8431 8.5 9.5 7.15685 9.5 5.5Z" fill="black"/>
</svg>
