<svg width="24" height="24" viewBox="0 0 24 24" fill="none" xmlns="http://www.w3.org/2000/svg">
<path fill-rule="evenodd" clip-rule="evenodd" d="M1 3.5C1 2.94772 1.44772 2.5 2 2.5H8C8.33435 2.5 8.64658 2.6671 8.83205 2.9453L10.5352 5.5H22C22.5523 5.5 23 5.94772 23 6.5V20.5C23 21.0523 22.5523 21.5 22 21.5H2C1.44772 21.5 1 21.0523 1 20.5V3.5ZM13.2929 8.79289C13.6722 8.41354 14.2834 8.40113 14.6778 8.76476L16.6778 10.6085C16.8763 10.7915 16.9924 11.0471 16.9996 11.317C17.0069 11.5869 16.9046 11.8483 16.7161 12.0417L11.3049 17.5939C10.7402 18.1733 9.96549 18.5 9.15648 18.5H8C7.44772 18.5 7 18.0523 7 17.5V16.3284C7 15.5328 7.31607 14.7697 7.87868 14.2071L13.2929 8.79289Z" fill="black"/>
</svg>
