<svg width="24" height="24" viewBox="0 0 24 24" fill="none" xmlns="http://www.w3.org/2000/svg">
<path fill-rule="evenodd" clip-rule="evenodd" d="M21 13.5C21.731 12.8176 21.7309 12.8175 21.7307 12.8173L21 13.5ZM21.7307 12.8173L21.7252 12.8115L21.712 12.7975L21.6639 12.7469C21.6224 12.7035 21.5621 12.6411 21.4848 12.5624C21.3301 12.4052 21.1066 12.1825 20.8269 11.9163C20.2686 11.3849 19.4804 10.6741 18.5639 9.96083C17.6505 9.24991 16.5897 8.52099 15.4866 7.96605C14.3951 7.41693 13.1876 7 12 7C10.8124 7 9.60491 7.41693 8.51338 7.96605C7.41025 8.52099 6.34954 9.24991 5.43607 9.96083C4.51955 10.6741 3.73145 11.3849 3.17315 11.9163C2.89341 12.1825 2.66992 12.4052 2.51525 12.5624C2.43788 12.6411 2.37764 12.7035 2.33609 12.7469L2.28796 12.7975L2.27476 12.8115L2.27093 12.8156L2.26973 12.8168C2.26956 12.817 2.26899 12.8176 3 13.5L2.26899 12.8176C1.91034 13.2019 1.91034 13.7981 2.26899 14.1824C2.26882 14.1822 2.26899 14.1824 3 13.5L2.26899 14.1824L2.27093 14.1844L2.27476 14.1885L2.28796 14.2025L2.33609 14.2531C2.37764 14.2965 2.43788 14.3589 2.51525 14.4376C2.66992 14.5948 2.89341 14.8175 3.17315 15.0837C3.73145 15.6151 4.51955 16.3259 5.43607 17.0392C6.34954 17.7501 7.41025 18.479 8.51338 19.034C9.60491 19.5831 10.8124 20 12 20C13.1876 20 14.3951 19.5831 15.4866 19.034C16.5897 18.479 17.6505 17.7501 18.5639 17.0392C19.4804 16.3259 20.2686 15.6151 20.8269 15.0837C21.1066 14.8175 21.3301 14.5948 21.4848 14.4376C21.5621 14.3589 21.6224 14.2965 21.6639 14.2531L21.712 14.2025L21.7252 14.1885L21.7303 14.1832C21.7304 14.183 21.731 14.1824 21 13.5L21.731 14.1824C22.0897 13.7981 22.0894 13.2015 21.7307 12.8173ZM10 13.5C10 12.3954 10.8954 11.5 12 11.5C13.1046 11.5 14 12.3954 14 13.5C14 14.6046 13.1046 15.5 12 15.5C10.8954 15.5 10 14.6046 10 13.5ZM12 9.5C9.79086 9.5 8 11.2909 8 13.5C8 15.7091 9.79086 17.5 12 17.5C14.2091 17.5 16 15.7091 16 13.5C16 11.2909 14.2091 9.5 12 9.5Z" fill="black"/>
<path fill-rule="evenodd" clip-rule="evenodd" d="M13 3V6H11V3H13Z" fill="black"/>
<path fill-rule="evenodd" clip-rule="evenodd" d="M4.20706 4.79297L6.20706 6.79297L4.79285 8.20718L2.79285 6.20718L4.20706 4.79297Z" fill="black"/>
<path fill-rule="evenodd" clip-rule="evenodd" d="M19.7929 4.79297L17.7929 6.79297L19.2072 8.20718L21.2072 6.20718L19.7929 4.79297Z" fill="black"/>
</svg>
