<svg width="24" height="24" viewBox="0 0 24 24" fill="none" xmlns="http://www.w3.org/2000/svg">
<path fill-rule="evenodd" clip-rule="evenodd" d="M12 10C10.8954 10 10 10.8954 10 12C10 13.1046 10.8954 14 12 14C13.1046 14 14 13.1046 14 12C14 10.8954 13.1046 10 12 10ZM9 12C9 10.3431 10.3431 9 12 9C13.6569 9 15 10.3431 15 12C15 13.6569 13.6569 15 12 15C10.3431 15 9 13.6569 9 12Z" fill="current"/>
<path fill-rule="evenodd" clip-rule="evenodd" d="M3.69785 12C3.83201 12.1345 4.00369 12.3034 4.20732 12.4972C4.74075 13.0049 5.49054 13.6808 6.35734 14.3554C7.22567 15.0312 8.2016 15.698 9.18748 16.194C10.1792 16.6928 11.1441 17 12 17C12.8559 17 13.8208 16.6928 14.8125 16.194C15.7984 15.698 16.7743 15.0312 17.6427 14.3554C18.5095 13.6808 19.2593 13.0049 19.7927 12.4972C19.9963 12.3034 20.168 12.1345 20.3021 12C20.168 11.8655 19.9963 11.6966 19.7927 11.5028C19.2593 10.9951 18.5095 10.3192 17.6427 9.64458C16.7743 8.96879 15.7984 8.30201 14.8125 7.80604C13.8208 7.30716 12.8559 7 12 7C11.1441 7 10.1792 7.30716 9.18748 7.80604C8.2016 8.30201 7.22567 8.96879 6.35734 9.64458C5.49054 10.3192 4.74075 10.9951 4.20732 11.5028C4.00369 11.6966 3.83201 11.8655 3.69785 12ZM21 12C21.3655 11.6588 21.3654 11.6587 21.3653 11.6586L21.3641 11.6573L21.3608 11.6537L21.3486 11.6408L21.3027 11.5926C21.2626 11.5507 21.204 11.49 21.1283 11.413C20.977 11.2592 20.7574 11.0405 20.4821 10.7785C19.9321 10.2549 19.1568 9.55581 18.2568 8.85542C17.3584 8.15621 16.326 7.44799 15.2619 6.91271C14.2037 6.38034 13.0771 6 12 6C10.9229 6 9.79633 6.38034 8.73808 6.91271C7.67403 7.44799 6.64159 8.15621 5.74316 8.85542C4.84321 9.55581 4.06788 10.2549 3.51787 10.7785C3.24257 11.0405 3.023 11.2592 2.8717 11.413C2.79603 11.49 2.73739 11.5507 2.69735 11.5926L2.6514 11.6408L2.63925 11.6537L2.63594 11.6573L2.63498 11.6583C2.63488 11.6584 2.63449 11.6588 3 12L2.63498 11.6583C2.45565 11.8504 2.45517 12.1491 2.63449 12.3412L3 12C2.63449 12.3412 2.63439 12.3411 2.63449 12.3412L2.63594 12.3427L2.63925 12.3463L2.6514 12.3592L2.69735 12.4074C2.73739 12.4493 2.79603 12.51 2.8717 12.587C3.023 12.7408 3.24257 12.9595 3.51787 13.2215C4.06788 13.7451 4.84321 14.4442 5.74316 15.1446C6.64159 15.8438 7.67403 16.552 8.73808 17.0873C9.79633 17.6197 10.9229 18 12 18C13.0771 18 14.2037 17.6197 15.2619 17.0873C16.326 16.552 17.3584 15.8438 18.2568 15.1446C19.1568 14.4442 19.9321 13.7451 20.4821 13.2215C20.7574 12.9595 20.977 12.7408 21.1283 12.587C21.204 12.51 21.2626 12.4493 21.3027 12.4074L21.3486 12.3592L21.3608 12.3463L21.3641 12.3427L21.365 12.3417C21.3651 12.3416 21.3655 12.3412 21 12ZM21 12L21.365 12.3417C21.5443 12.1496 21.5446 11.8507 21.3653 11.6586L21 12Z" fill="current"/>
</svg>
