<svg width="24" height="24" viewBox="0 0 24 24" fill="none" xmlns="http://www.w3.org/2000/svg">
<path fill-rule="evenodd" clip-rule="evenodd" d="M20.845 12C21.576 11.3176 21.5758 11.3175 21.5757 11.3173L20.845 12ZM21.5757 11.3173L21.5702 11.3115L21.557 11.2975L21.5089 11.2469C21.4673 11.2035 21.4071 11.1411 21.3297 11.0624C21.1751 10.9052 20.9516 10.6825 20.6718 10.4163C20.1135 9.88488 19.3254 9.17413 18.4089 8.46083C17.4954 7.74991 16.4347 7.02099 15.3316 6.46605C14.2401 5.91693 13.0326 5.5 11.845 5.5C10.6574 5.5 9.44989 5.91693 8.35835 6.46605C7.25522 7.02099 6.19451 7.74991 5.28104 8.46083C4.36452 9.17413 3.57642 9.88488 3.01812 10.4163C2.73838 10.6825 2.51489 10.9052 2.36022 11.0624C2.28285 11.1411 2.22261 11.2035 2.18106 11.2469L2.13293 11.2975L2.11973 11.3115L2.11591 11.3156L2.1147 11.3168C2.11453 11.317 2.11396 11.3176 2.84497 12L2.11396 11.3176C1.75531 11.7019 1.75531 12.2981 2.11396 12.6824C2.1138 12.6822 2.11396 12.6824 2.84497 12L2.11396 12.6824L2.11591 12.6844L2.11973 12.6885L2.13293 12.7025L2.18106 12.7531C2.22261 12.7965 2.28285 12.8589 2.36022 12.9376C2.51489 13.0948 2.73838 13.3175 3.01812 13.5837C3.57642 14.1151 4.36452 14.8259 5.28104 15.5392C6.19451 16.2501 7.25522 16.979 8.35835 17.534C9.44989 18.0831 10.6574 18.5 11.845 18.5C13.0326 18.5 14.2401 18.0831 15.3316 17.534C16.4347 16.979 17.4954 16.2501 18.4089 15.5392C19.3254 14.8259 20.1135 14.1151 20.6718 13.5837C20.9516 13.3175 21.1751 13.0948 21.3297 12.9376C21.4071 12.8589 21.4673 12.7965 21.5089 12.7531L21.557 12.7025L21.5702 12.6885L21.5752 12.6832C21.5754 12.683 21.576 12.6824 20.845 12L21.576 12.6824C21.9346 12.2981 21.9343 11.7015 21.5757 11.3173ZM10.345 12C10.345 11.1716 11.0165 10.5 11.845 10.5C12.6734 10.5 13.345 11.1716 13.345 12C13.345 12.8284 12.6734 13.5 11.845 13.5C11.0165 13.5 10.345 12.8284 10.345 12ZM11.845 8.5C9.91197 8.5 8.34497 10.067 8.34497 12C8.34497 13.933 9.91197 15.5 11.845 15.5C13.778 15.5 15.345 13.933 15.345 12C15.345 10.067 13.778 8.5 11.845 8.5Z" fill="black"/>
</svg>
