<svg width="24" height="24" viewBox="0 0 24 24" fill="none" xmlns="http://www.w3.org/2000/svg">
<path fill-rule="evenodd" clip-rule="evenodd" d="M21.4231 13.1995C23.6817 10.4958 23.5128 6.51229 20.9241 4.00119C18.4925 1.6426 14.7383 1.37006 12 3.17728C9.2617 1.37006 5.5075 1.6426 3.07593 4.00119C0.487146 6.51228 0.318271 10.4958 2.57685 13.1995C2.62271 13.279 2.67972 13.3526 2.74682 13.4177L11.3037 21.7178C11.6917 22.094 12.3083 22.094 12.6962 21.7178L21.2532 13.4177C21.3203 13.3526 21.3773 13.279 21.4231 13.1995ZM16 6.99997C17.1046 6.99997 18 7.8954 18 8.99997H20C20 6.79083 18.2091 4.99997 16 4.99997V6.99997Z" fill="black"/>
</svg>
