<svg width="24" height="24" viewBox="0 0 24 24" fill="none" xmlns="http://www.w3.org/2000/svg">
<path fill-rule="evenodd" clip-rule="evenodd" d="M19.8797 5.07789C17.813 3.07325 14.5154 2.97799 12.3324 4.79606C12.236 4.87639 12.1174 4.91464 12 4.9117C11.8826 4.91464 11.764 4.87639 11.6675 4.79606C9.48458 2.97799 6.18698 3.07325 4.12032 5.07789C2.06075 7.07565 1.96529 10.2498 3.82994 12.3564C3.85119 12.3804 3.86973 12.4059 3.88557 12.4325L12 20.3034L20.1144 12.4325C20.1303 12.4059 20.1488 12.3804 20.17 12.3564C22.0347 10.2498 21.9392 7.07565 19.8797 5.07789ZM21.0072 12.9172C23.1328 10.4123 22.9878 6.6996 20.5759 4.3601C18.2335 2.08802 14.5648 1.89806 12 3.78672C9.43523 1.89806 5.76645 2.08802 3.42406 4.3601C1.01219 6.69959 0.867157 10.4123 2.9928 12.9172C3.01804 12.9695 3.05244 13.0175 3.09495 13.0588L11.6519 21.3589C11.8458 21.547 12.1542 21.547 12.3481 21.3589L20.905 13.0588C20.9475 13.0175 20.9819 12.9695 21.0072 12.9172Z" fill="current"/>
<path fill-rule="evenodd" clip-rule="evenodd" d="M18.5 9C18.5 7.61929 17.3807 6.5 16 6.5V5.5C17.933 5.5 19.5 7.067 19.5 9H18.5Z" fill="current"/>
</svg>
