<svg width="24" height="24" viewBox="0 0 24 24" fill="none" xmlns="http://www.w3.org/2000/svg">
<path fill-rule="evenodd" clip-rule="evenodd" d="M19.7814 5.2108C18.1511 3.5964 15.5038 3.5964 13.8735 5.2108L3.71364 15.2716C2.76212 16.2139 2.76212 17.7375 3.71364 18.6797C4.6706 19.6273 6.22615 19.6273 7.18311 18.6797L15.7174 10.2286C15.9956 9.95314 15.9956 9.5106 15.7174 9.23513C15.4338 8.95428 14.9699 8.95428 14.6863 9.23513L6.9648 16.8814L5.55753 15.4602L13.279 7.81401C14.3421 6.76132 16.0616 6.76132 17.1247 7.81401C18.1932 8.87208 18.1932 10.5917 17.1247 11.6497L8.59038 20.1008C6.85399 21.8203 4.04276 21.8203 2.30637 20.1008C0.564543 18.376 0.564543 15.5754 2.30637 13.8505L12.4662 3.78968C14.876 1.40344 18.7789 1.40344 21.1886 3.78968C23.6038 6.1813 23.6038 10.063 21.1886 12.4546L11.8415 21.7106L10.4343 20.2894L19.7814 11.0335C21.4062 9.42446 21.4062 6.81982 19.7814 5.2108Z" fill="black"/>
</svg>
