<svg width="24" height="24" viewBox="0 0 24 24" fill="none" xmlns="http://www.w3.org/2000/svg">
<path fill-rule="evenodd" clip-rule="evenodd" d="M12 6V1H6C4.34315 1 3 2.34315 3 4V20C3 21.6569 4.34315 23 6 23H18C19.6569 23 21 21.6569 21 20V9H15C13.3431 9 12 7.65685 12 6ZM14 6V1.55604C14.073 1.60804 14.144 1.66346 14.2125 1.72223L19.9524 6.6421C20.0808 6.75215 20.1986 6.87198 20.3053 7H15C14.4477 7 14 6.55228 14 6ZM15.845 11.0798C14.3328 9.64007 11.9004 9.64007 10.3882 11.0798L6.31047 14.962L7.68953 16.4105L11.7673 12.5283C12.5071 11.8239 13.7261 11.8239 14.4659 12.5283C15.178 13.2062 15.178 14.2841 14.4659 14.962L11.4076 17.8737C11.2308 18.0421 10.9247 18.0421 10.7478 17.8737C10.5988 17.7318 10.5988 17.523 10.7478 17.3811L13.8061 14.4694L12.4271 13.0209L9.36877 15.9326C8.3918 16.8627 8.3918 18.3921 9.36877 19.3222C10.318 20.2259 11.8375 20.2259 12.7867 19.3222L15.845 16.4105C17.385 14.9444 17.385 12.546 15.845 11.0798Z" fill="black"/>
</svg>
