<svg width="24" height="24" viewBox="0 0 24 24" fill="none" xmlns="http://www.w3.org/2000/svg">
<path fill-rule="evenodd" clip-rule="evenodd" d="M5.5 1C4.94772 1 4.5 1.44772 4.5 2V12C4.5 12.5523 4.94772 13 5.5 13H7.83804C8.10264 13 8.35646 12.8951 8.5439 12.7084L15.274 6.0019C15.3954 5.88091 15.4837 5.73073 15.5304 5.56579L16.4622 2.27224C16.5475 1.97074 16.4866 1.64669 16.2976 1.39678C16.1086 1.14687 15.8133 1 15.5 1H5.5ZM15 8C14.7348 8 14.4804 8.10536 14.2929 8.29289L8.79289 13.7929C8.60536 13.9804 8.5 14.2348 8.5 14.5V22C8.5 22.4374 8.7843 22.8241 9.20183 22.9545C9.61936 23.0849 10.0732 22.9289 10.3222 22.5692L19.3222 9.56921C19.5339 9.2634 19.5584 8.86535 19.3858 8.53589C19.2132 8.20643 18.8719 8 18.5 8H15Z" fill="black"/>
<path fill-rule="evenodd" clip-rule="evenodd" d="M2.29285 20.293L20.2928 2.29297L21.7071 3.70718L3.70706 21.7072L2.29285 20.293Z" fill="black"/>
</svg>
