<svg width="24" height="24" viewBox="0 0 24 24" fill="none" xmlns="http://www.w3.org/2000/svg">
<path fill-rule="evenodd" clip-rule="evenodd" d="M5.5 1C4.94772 1 4.5 1.44772 4.5 2V13C4.5 13.5523 4.94772 14 5.5 14H8.5V22C8.5 22.4374 8.7843 22.8241 9.20183 22.9545C9.61936 23.0849 10.0732 22.9289 10.3222 22.5692L19.3222 9.56921C19.5339 9.2634 19.5584 8.86535 19.3858 8.53589C19.2132 8.20643 18.8719 8 18.5 8H15.653L16.4899 2.14142C16.5309 1.85444 16.4454 1.5638 16.2555 1.3448C16.0655 1.1258 15.7899 1 15.5 1H5.5Z" fill="black"/>
</svg>
