<svg width="24" height="24" viewBox="0 0 24 24" fill="none" xmlns="http://www.w3.org/2000/svg">
<path fill-rule="evenodd" clip-rule="evenodd" d="M4 1C2.34315 1 1 2.34315 1 4V20C1 21.6569 2.34315 23 4 23H20C21.6569 23 23 21.6569 23 20V8.82843C23 8.03278 22.6839 7.26972 22.1213 6.70711L17.2929 1.87868C16.7303 1.31607 15.9672 1 15.1716 1H4ZM18 12V14H6V12H18ZM6 15V17H18V15H6ZM18 18V20H6V18H18ZM6 2.49594C5.44772 2.49594 5 2.94365 5 3.49594V8.49594C5 9.04822 5.44772 9.49594 6 9.49594H10V2.49594H6ZM14 9.49594H12V2.49594H14C14.5523 2.49594 15 2.94365 15 3.49594V8.49594C15 9.04822 14.5523 9.49594 14 9.49594Z" fill="black"/>
</svg>
