<svg width="24" height="24" viewBox="0 0 24 24" fill="none" xmlns="http://www.w3.org/2000/svg">
<path fill-rule="evenodd" clip-rule="evenodd" d="M4 1C2.34315 1 1 2.34315 1 4V20C1 21.6569 2.34315 23 4 23H20C21.6569 23 23 21.6569 23 20V8.82843C23 8.03278 22.6839 7.26972 22.1213 6.70711L17.2929 1.87868C16.7303 1.31607 15.9672 1 15.1716 1H4ZM6 12C5.44772 12 5 12.4477 5 13V21C5 21.5523 5.44772 22 6 22H18C18.5523 22 19 21.5523 19 21V13C19 12.4477 18.5523 12 18 12H6ZM5 3C5 2.44772 5.44772 2 6 2H14C14.5523 2 15 2.44772 15 3V8C15 8.55228 14.5523 9 14 9H6C5.44772 9 5 8.55228 5 8V3Z" fill="black"/>
</svg>
