<svg width="24" height="24" viewBox="0 0 24 24" fill="none" xmlns="http://www.w3.org/2000/svg">
<path fill-rule="evenodd" clip-rule="evenodd" d="M2.6247 3.21914C2.32453 2.979 1.91328 2.93219 1.56681 3.09871C1.22035 3.26523 1 3.6156 1 4.00001V20C1 20.3844 1.22035 20.7348 1.56681 20.9013C1.91328 21.0678 2.32453 21.021 2.6247 20.7809L12.6247 12.7809C12.8619 12.5911 13 12.3038 13 12C13 11.6962 12.8619 11.4089 12.6247 11.2191L2.6247 3.21914Z" fill="black"/>
<path fill-rule="evenodd" clip-rule="evenodd" d="M12.6247 3.21914C12.3245 2.979 11.9133 2.93219 11.5668 3.09871C11.2203 3.26523 11 3.6156 11 4.00001V20C11 20.3844 11.2203 20.7348 11.5668 20.9013C11.9133 21.0678 12.3245 21.021 12.6247 20.7809L22.6247 12.7809C22.8619 12.5911 23 12.3038 23 12C23 11.6962 22.8619 11.4089 22.6247 11.2191L12.6247 3.21914Z" fill="black"/>
</svg>
