<svg width="24" height="24" viewBox="0 0 24 24" fill="none" xmlns="http://www.w3.org/2000/svg">
<path fill-rule="evenodd" clip-rule="evenodd" d="M2 1.5C1.44772 1.5 1 1.94772 1 2.5V10.5C1 11.0523 1.44772 11.5 2 11.5H10.5C11.0523 11.5 11.5 11.0523 11.5 10.5V2.5C11.5 1.94772 11.0523 1.5 10.5 1.5H2Z" fill="black"/>
<path fill-rule="evenodd" clip-rule="evenodd" d="M2 12.5C1.44772 12.5 1 12.9477 1 13.5V21.5C1 22.0523 1.44772 22.5 2 22.5H10.5C11.0523 22.5 11.5 22.0523 11.5 21.5V13.5C11.5 12.9477 11.0523 12.5 10.5 12.5H2Z" fill="black"/>
<path fill-rule="evenodd" clip-rule="evenodd" d="M13.5 1.5C12.9477 1.5 12.5 1.94772 12.5 2.5V10.5C12.5 11.0523 12.9477 11.5 13.5 11.5H22C22.5523 11.5 23 11.0523 23 10.5V2.5C23 1.94772 22.5523 1.5 22 1.5H13.5Z" fill="black"/>
<path fill-rule="evenodd" clip-rule="evenodd" d="M13.5 12.5C12.9477 12.5 12.5 12.9477 12.5 13.5V21.5C12.5 22.0523 12.9477 22.5 13.5 22.5H22C22.5523 22.5 23 22.0523 23 21.5V13.5C23 12.9477 22.5523 12.5 22 12.5H13.5Z" fill="black"/>
</svg>
