<svg width="24" height="24" viewBox="0 0 24 24" fill="none" xmlns="http://www.w3.org/2000/svg">
<path fill-rule="evenodd" clip-rule="evenodd" d="M6 10.5C4.34315 10.5 3 11.8431 3 13.5V18C3 19.6569 4.34315 21 6 21H6.5C8.15685 21 9.5 19.6569 9.5 18V13.5C9.5 11.8431 8.15685 10.5 6.5 10.5H6Z" fill="black"/>
<path fill-rule="evenodd" clip-rule="evenodd" d="M17.5 10.5C15.8431 10.5 14.5 11.8431 14.5 13.5V18C14.5 19.6569 15.8431 21 17.5 21H18C19.6569 21 21 19.6569 21 18L21 13.5C21 11.8431 19.6569 10.5 18 10.5H17.5Z" fill="black"/>
<path fill-rule="evenodd" clip-rule="evenodd" d="M11 5C7.68629 5 5 7.68629 5 11V15.5H3V11C3 6.58172 6.58173 3 11 3L13 3C17.4183 3 21 6.58173 21 11V15.5H19V11C19 7.68629 16.3137 5 13 5L11 5Z" fill="black"/>
</svg>
