<svg width="24" height="24" viewBox="0 0 24 24" fill="none" xmlns="http://www.w3.org/2000/svg">
<path fill-rule="evenodd" clip-rule="evenodd" d="M12 1C5.92487 1 1 5.92487 1 12C1 18.0751 5.92487 23 12 23C18.0751 23 23 18.0751 23 12C23 5.92487 18.0751 1 12 1ZM11.2222 6.8889C10.6699 6.8889 10.2222 7.33662 10.2222 7.8889V9.22224H8.22223V7.8889C8.22223 6.23205 9.56538 4.8889 11.2222 4.8889H12.7778C14.4346 4.8889 15.7778 6.23205 15.7778 7.88891V9.50492C15.7778 10.3006 15.4617 11.0636 14.8991 11.6262L13.2929 13.2324C13.1054 13.42 13 13.6743 13 13.9396V15.8889H11V13.9396C11 13.1439 11.3161 12.3808 11.8787 11.8182L13.4849 10.212C13.6724 10.0245 13.7778 9.77014 13.7778 9.50492V7.88891C13.7778 7.33662 13.3301 6.8889 12.7778 6.8889H11.2222ZM11 17V19.2222H13V17H11Z" fill="black"/>
</svg>
