<svg width="24" height="24" viewBox="0 0 24 24" fill="none" xmlns="http://www.w3.org/2000/svg">
<path fill-rule="evenodd" clip-rule="evenodd" d="M12 2C6.47715 2 2 6.47715 2 12C2 13.5225 2.34094 14.9681 2.95146 16.2622L2.16998 20.0701C1.95576 21.114 2.8678 22.0421 3.91523 21.8461L7.86443 21.1072C9.12598 21.6809 10.527 22 12 22C17.5228 22 22 17.5228 22 12C22 6.47715 17.5228 2 12 2ZM11.5 7C10.9477 7 10.5 7.44772 10.5 8V9H8.5V8C8.5 6.34315 9.84315 5 11.5 5H12.5C14.1569 5 15.5 6.34315 15.5 8V9.17157C15.5 9.96722 15.1839 10.7303 14.6213 11.2929L13.2929 12.6213C13.1054 12.8089 13 13.0632 13 13.3284V15H11V13.3284C11 12.5328 11.3161 11.7697 11.8787 11.2071L13.2071 9.87868C13.3946 9.69114 13.5 9.43679 13.5 9.17157V8C13.5 7.44772 13.0523 7 12.5 7H11.5ZM11 16V18H13V16H11Z" fill="black"/>
</svg>
