<svg width="24" height="24" viewBox="0 0 24 24" fill="none" xmlns="http://www.w3.org/2000/svg">
<path fill-rule="evenodd" clip-rule="evenodd" d="M3.73635 7.16173C3.73652 7.1619 3.73669 7.1621 3.00027 7.83862C2.26385 8.51515 2.26406 8.51538 2.26429 8.51562L2.26617 8.51766L2.27001 8.52182L2.28224 8.53493C2.29239 8.54578 2.30655 8.5608 2.32459 8.5797C2.36068 8.6175 2.41238 8.67089 2.47886 8.73764C2.61174 8.87107 2.80408 9.05829 3.0492 9.28135C3.53844 9.72657 4.24332 10.3195 5.11026 10.9135C6.8223 12.0867 9.27401 13.3386 12.0003 13.3386C14.7265 13.3386 17.1782 12.0867 18.8903 10.9135C19.7572 10.3195 20.4621 9.72657 20.9513 9.28135C21.1965 9.05829 21.3888 8.87107 21.5217 8.73764C21.5882 8.67089 21.6399 8.6175 21.676 8.5797C21.694 8.5608 21.7082 8.54578 21.7183 8.53493L21.7305 8.52182L21.7344 8.51766L21.7357 8.5162C21.736 8.51595 21.7367 8.51515 21.0003 7.83862C20.2639 7.1621 20.264 7.1619 20.2642 7.16173L20.2582 7.16813L20.2294 7.19862C20.2025 7.22674 20.1607 7.27003 20.1046 7.32633C19.9924 7.43899 19.8237 7.60333 19.6053 7.80215C19.1673 8.20068 18.5346 8.73278 17.7598 9.26371C16.1883 10.3405 14.14 11.3386 12.0003 11.3386C9.86055 11.3386 7.81225 10.3405 6.24079 9.26371C5.46599 8.73278 4.83323 8.20068 4.39529 7.80215C4.17682 7.60333 4.00817 7.43899 3.89597 7.32633C3.8399 7.27003 3.79803 7.22674 3.77118 7.19862L3.74233 7.16813L3.73635 7.16173Z" fill="black"/>
<path fill-rule="evenodd" clip-rule="evenodd" d="M13.0002 16.8386V12.3386H11.0002V16.8386H13.0002Z" fill="black"/>
<path fill-rule="evenodd" clip-rule="evenodd" d="M5.20743 15.0457L8.20743 12.0457L6.79321 10.6314L3.79321 13.6314L5.20743 15.0457Z" fill="black"/>
<path fill-rule="evenodd" clip-rule="evenodd" d="M18.7932 15.0457L15.7932 12.0457L17.2074 10.6314L20.2074 13.6314L18.7932 15.0457Z" fill="black"/>
</svg>
