<svg width="24" height="24" viewBox="0 0 24 24" fill="none" xmlns="http://www.w3.org/2000/svg">
<path fill-rule="evenodd" clip-rule="evenodd" d="M4.29285 18.293L18.2928 4.29297L19.7071 5.70718L5.70706 19.7072L4.29285 18.293Z" fill="black"/>
<path d="M2.42224 11.4581C2.6823 11.1445 3.88968 9.7183 5.4951 8.29655C6.38699 7.5067 7.42523 6.69705 8.51219 6.08011C9.58606 5.4706 10.7926 5.00008 12 5.00008L12.1036 5.00004C13.0181 4.99948 13.981 4.9989 14.8762 5.38592C15.1822 5.51816 15.4021 5.79414 15.4627 6.12186C15.2963 6.36036 15.1146 6.47678 14.8762 6.70974L6.39676 14.9978C6.02514 15.361 5.73944 15.6883 5.34621 15.3486C4.06178 14.2389 3.35642 13.6341 2.97022 13.3056C2.77676 13.141 2.66573 13.0478 2.60314 12.996L2.56804 12.9671C2.51828 12.9318 2.47148 12.8918 2.42837 12.8473C2.42837 12.8473 2.42837 12.8473 2.39574 12.8119L2.42837 12.8473L2.42704 12.8459L2.42565 12.8444L2.42264 12.8413L2.41561 12.8339C2.41072 12.8286 2.40382 12.8211 2.39574 12.8119C2.39254 12.8084 2.33876 12.749 2.28851 12.6654C2.27286 12.6394 2.24421 12.5893 2.21729 12.5221C2.19728 12.4722 2.13837 12.3184 2.14622 12.1119C2.15366 11.9164 2.22726 11.6616 2.42224 11.4581Z" fill="black"/>
<path d="M15.8847 6.83366C16.2213 6.49931 16.7466 6.44754 17.142 6.70974C18.5716 7.65767 19.7419 8.84463 20.5468 9.77821C20.9518 10.248 21.2705 10.6609 21.4894 10.9585C21.599 11.1075 21.6839 11.228 21.7424 11.313C21.7717 11.3554 21.7945 11.389 21.8104 11.4128L21.8293 11.4412L21.8348 11.4496L21.8366 11.4524L21.8373 11.4534L21 12.0001L21.7595 12.6506L21.7541 12.6568L21.741 12.672L21.6931 12.7269C21.6518 12.7741 21.5917 12.8419 21.5145 12.9276C21.3601 13.0987 21.137 13.3412 20.8577 13.6313C20.3001 14.2102 19.5128 14.9848 18.5969 15.7624C17.6844 16.5371 16.6234 17.3328 15.5183 17.9392C14.4268 18.5383 13.2076 19.0001 12 19.0001C10.28 19.0001 8.69087 18.0109 7.29795 16.9926C7.06171 16.8199 6.91298 16.5524 6.89094 16.2606C6.86891 15.9688 6.97579 15.682 7.18341 15.4758L9.43579 13.2387C9.32432 13.4035 9.26361 13.5992 9.26403 13.8012C9.26459 14.0718 9.37483 14.3307 9.56957 14.5187C10.1982 15.1253 11.0563 15.5001 11.9999 15.5001C13.9329 15.5001 15.4999 13.9331 15.4999 12.0001C15.4999 11.1596 15.3185 10.2716 14.5909 9.55688C14.2031 9.17603 13.5822 9.17459 13.1927 9.55364L10.882 11.8023L15.8847 6.83366Z" fill="black"/>
<path d="M21.7595 12.6506C21.7595 12.6506 21.7598 12.6502 21 12.0001C21.8378 11.4542 21.8373 11.4534 21.8373 11.4534C22.0796 11.8252 22.048 12.3134 21.7595 12.6506Z" fill="black"/>
</svg>
