<svg width="24" height="24" viewBox="0 0 24 24" fill="none" xmlns="http://www.w3.org/2000/svg">
<path fill-rule="evenodd" clip-rule="evenodd" d="M13 6C9.68629 6 7 8.68629 7 12H5C5 7.58172 8.58172 4 13 4C17.4183 4 21 7.58172 21 12C21 16.4183 17.4183 20 13 20C10.0887 20 7.54178 18.4443 6.14347 16.1237L7.85652 15.0915C8.90801 16.8365 10.8186 18 13 18C16.3137 18 19 15.3137 19 12C19 8.68629 16.3137 6 13 6Z" fill="black"/>
<path fill-rule="evenodd" clip-rule="evenodd" d="M11.5 13V9H13.5V12H16.5V14H12.5C11.9477 14 11.5 13.5523 11.5 13Z" fill="black"/>
<path fill-rule="evenodd" clip-rule="evenodd" d="M6.27737 10.6133L4.83207 8.44531L3.16797 9.55471L5.16797 12.5547C5.47432 13.0142 6.09519 13.1384 6.55472 12.8321L9.55472 10.8321L8.44532 9.16796L6.27737 10.6133Z" fill="black"/>
</svg>
