<svg width="24" height="24" viewBox="0 0 24 24" fill="none" xmlns="http://www.w3.org/2000/svg">
<path fill-rule="evenodd" clip-rule="evenodd" d="M13.6641 2.90766C12.6564 2.23586 11.3436 2.23586 10.3359 2.90766L3.3359 7.57432C2.5013 8.13072 2 9.06742 2 10.0705V19.0001C2 20.657 3.34315 22.0001 5 22.0001H9C9.55228 22.0001 10 21.5524 10 21.0001V16.0001C10 15.4478 10.4477 15.0001 11 15.0001H13C13.5523 15.0001 14 15.4478 14 16.0001V21.0001C14 21.5524 14.4477 22.0001 15 22.0001H19C20.6569 22.0001 22 20.657 22 19.0001V10.0705C22 9.06742 21.4987 8.13072 20.6641 7.57432L13.6641 2.90766Z" fill="black"/>
</svg>
