<svg width="24" height="24" viewBox="0 0 24 24" fill="none" xmlns="http://www.w3.org/2000/svg">
<path fill-rule="evenodd" clip-rule="evenodd" d="M12.6441 4.84983C12.2719 4.53638 11.7281 4.53638 11.3558 4.84984L3.14411 11.765L1.85583 10.2352L10.0676 3.32001C11.1842 2.37966 12.8157 2.37966 13.9324 3.32001L22.1441 10.2352L20.8558 11.765L12.6441 4.84983Z" fill="black"/>
<path fill-rule="evenodd" clip-rule="evenodd" d="M10.0476 3.35651C11.1711 2.39353 12.8289 2.39353 13.9524 3.35651L18.9524 7.64222C19.6173 8.21217 20 9.04422 20 9.91999V19.0001C20 20.657 18.6569 22.0001 17 22.0001H7C5.34315 22.0001 4 20.657 4 19.0001V9.91999C4 9.04422 4.38269 8.21217 5.04763 7.64222L10.0476 3.35651ZM8.5 15.0001C8.5 13.3433 9.84315 12.0001 11.5 12.0001H12.5C14.1569 12.0001 15.5 13.3433 15.5 15.0001V19.0001C15.5 19.5524 15.0523 20.0001 14.5 20.0001H9.5C8.94772 20.0001 8.5 19.5524 8.5 19.0001V15.0001Z" fill="black"/>
</svg>
