<svg width="121" height="50" viewBox="0 0 121 50" fill="none" xmlns="http://www.w3.org/2000/svg">
<path fill-rule="evenodd" clip-rule="evenodd" d="M22.4892 6.63072C21.0854 8.30898 18.8393 9.63268 16.5932 9.44358C16.3124 7.17439 17.4121 4.76337 18.6989 3.27421C20.1027 1.54867 22.5594 0.319525 24.5482 0.224976C24.7821 2.58872 23.8697 4.90519 22.4892 6.63072ZM24.525 9.89264C22.5462 9.77758 20.7407 10.4939 19.2823 11.0724C18.3438 11.4447 17.549 11.76 16.9444 11.76C16.2658 11.76 15.4383 11.4279 14.5091 11.0549L14.5091 11.0549C13.2916 10.5663 11.8997 10.0077 10.44 10.0345C7.09419 10.0817 3.98237 11.9964 2.27438 15.0456C-1.23518 21.1441 1.3619 30.1736 4.75448 35.1374C6.41567 37.5957 8.40442 40.2904 11.0249 40.1958C12.1778 40.1519 13.007 39.7964 13.8653 39.4285C14.8534 39.0049 15.8798 38.5648 17.4825 38.5648C19.0296 38.5648 20.0112 38.9934 20.9534 39.4048C21.8493 39.796 22.7097 40.1716 23.9869 40.1486C26.701 40.1013 28.4089 37.6903 30.0701 35.232C31.8628 32.5936 32.6506 30.0186 32.7702 29.6278L32.7781 29.602L32.7842 29.5826C32.7813 29.5797 32.7592 29.5695 32.7201 29.5514C32.1208 29.2743 27.5404 27.1558 27.4965 21.475C27.4524 16.7068 31.1296 14.2909 31.7084 13.9106C31.7436 13.8875 31.7674 13.8719 31.7781 13.8637C29.4384 10.3654 25.7885 9.98719 24.525 9.89264ZM43.3127 39.8885V3.03775H57C64.0659 3.03775 69.0027 7.95434 69.0027 15.1401C69.0027 22.3259 63.9723 27.2898 56.8128 27.2898H48.9748V39.8885H43.3127ZM48.9751 7.85985H55.5029C60.4162 7.85985 63.2239 10.5072 63.2239 15.1638C63.2239 19.8204 60.4162 22.4914 55.4795 22.4914H48.9751V7.85985ZM87.6972 35.4685C86.1998 38.3522 82.9008 40.1723 79.3444 40.1723C74.0801 40.1723 70.4068 37.0049 70.4068 32.2301C70.4068 27.5026 73.9631 24.7843 80.5377 24.3825L87.6036 23.957V21.9242C87.6036 18.9222 85.6617 17.2913 82.1989 17.2913C79.3444 17.2913 77.2621 18.7804 76.841 21.0496H71.7404C71.9042 16.2749 76.3496 12.8001 82.3627 12.8001C88.8437 12.8001 93.0551 16.2276 93.0551 21.546V39.8887H87.8142V35.4685H87.6972ZM80.8652 35.7994C77.847 35.7994 75.9284 34.3339 75.9284 32.0883C75.9284 29.7718 77.7768 28.4245 81.3097 28.2118L87.6035 27.8099V29.89C87.6035 33.3411 84.7023 35.7994 80.8652 35.7994ZM110.439 41.3306C108.17 47.7836 105.573 49.911 100.051 49.911C99.6296 49.911 98.2258 49.8637 97.8983 49.7691V45.3489C98.2492 45.3962 99.1149 45.4435 99.5595 45.4435C102.063 45.4435 103.467 44.3798 104.332 41.6142L104.847 39.9832L95.2544 13.1548H101.174L107.842 34.9248H107.959L114.627 13.1548H120.383L110.439 41.3306Z" fill="black"/>
</svg>
