<svg width="24" height="24" viewBox="0 0 24 24" fill="none" xmlns="http://www.w3.org/2000/svg">
<path fill-rule="evenodd" clip-rule="evenodd" d="M4.5 2C3.94772 2 3.5 2.44772 3.5 3V7C3.5 7.55228 3.94772 8 4.5 8H8.5C9.05228 8 9.5 7.55228 9.5 7V3C9.5 2.44772 9.05228 2 8.5 2H4.5Z" fill="black"/>
<path fill-rule="evenodd" clip-rule="evenodd" d="M4.5 9C3.94772 9 3.5 9.44772 3.5 10V14C3.5 14.5523 3.94772 15 4.5 15H8.5C9.05228 15 9.5 14.5523 9.5 14V10C9.5 9.44772 9.05228 9 8.5 9H4.5Z" fill="black"/>
<path fill-rule="evenodd" clip-rule="evenodd" d="M4.5 16C3.94772 16 3.5 16.4477 3.5 17V21C3.5 21.5523 3.94772 22 4.5 22H8.5C9.05228 22 9.5 21.5523 9.5 21V17C9.5 16.4477 9.05228 16 8.5 16H4.5Z" fill="black"/>
<path fill-rule="evenodd" clip-rule="evenodd" d="M15 4.5H11V2.5H15V4.5Z" fill="black"/>
<path fill-rule="evenodd" clip-rule="evenodd" d="M15 11.5H11V9.5H15V11.5Z" fill="black"/>
<path fill-rule="evenodd" clip-rule="evenodd" d="M15 18.5H11V16.5H15V18.5Z" fill="black"/>
<path fill-rule="evenodd" clip-rule="evenodd" d="M20 7.5H11V5.5H20V7.5Z" fill="black"/>
<path fill-rule="evenodd" clip-rule="evenodd" d="M20 14.5H11V12.5H20V14.5Z" fill="black"/>
<path fill-rule="evenodd" clip-rule="evenodd" d="M20 21.5H11V19.5H20V21.5Z" fill="black"/>
</svg>
