<svg width="24" height="24" viewBox="0 0 24 24" fill="none" xmlns="http://www.w3.org/2000/svg">
<path fill-rule="evenodd" clip-rule="evenodd" d="M4 12C4 7.58172 7.58172 4 12 4C16.4183 4 20 7.58172 20 12C20 16.4183 16.4183 20 12 20C7.58172 20 4 16.4183 4 12ZM10 12C10 10.8954 10.8954 10 12 10C13.1046 10 14 10.8954 14 12C14 13.1046 13.1046 14 12 14C10.8954 14 10 13.1046 10 12ZM12 8C9.79086 8 8 9.79086 8 12C8 14.2091 9.79086 16 12 16C14.2091 16 16 14.2091 16 12C16 9.79086 14.2091 8 12 8Z" fill="black"/>
<path fill-rule="evenodd" clip-rule="evenodd" d="M22 13H19V11H22V13Z" fill="black"/>
<path fill-rule="evenodd" clip-rule="evenodd" d="M5 13H2V11H5V13Z" fill="black"/>
<path fill-rule="evenodd" clip-rule="evenodd" d="M13 2V5H11V2H13Z" fill="black"/>
<path fill-rule="evenodd" clip-rule="evenodd" d="M13 19V22H11V19H13Z" fill="black"/>
</svg>
