<svg width="24" height="24" viewBox="0 0 24 24" fill="none" xmlns="http://www.w3.org/2000/svg">
<path fill-rule="evenodd" clip-rule="evenodd" d="M7.0638 3.8761C8.36132 2.62693 10.122 2 12 2C13.878 2 15.6387 2.62693 16.9362 3.8761C18.2414 5.1327 19 6.94418 19 9.15789C19 10.8263 18.1441 12.6348 17.1821 14.1753C16.1969 15.7531 14.9917 17.2173 14.0894 18.2339C12.968 19.4974 11.032 19.4974 9.91062 18.2339C9.00832 17.2173 7.80314 15.7531 6.81785 14.1753C5.85587 12.6348 5 10.8263 5 9.15789C5 6.94418 5.75856 5.1327 7.0638 3.8761ZM11 8C11 7.44772 11.4477 7 12 7C12.5523 7 13 7.44772 13 8C13 8.55228 12.5523 9 12 9C11.4477 9 11 8.55228 11 8ZM12 5C10.3431 5 9 6.34315 9 8C9 9.65685 10.3431 11 12 11C13.6569 11 15 9.65685 15 8C15 6.34315 13.6569 5 12 5Z" fill="black"/>
<path fill-rule="evenodd" clip-rule="evenodd" d="M5.0325 18.5004C5.04324 18.4881 5.05652 18.4739 5.07287 18.4577C5.19796 18.3337 5.4328 18.1706 5.81476 17.9967C6.57394 17.6513 7.71595 17.3522 9.1255 17.1739L8.8745 15.1897C7.35222 15.3823 5.99423 15.7177 4.98637 16.1764C4.48481 16.4046 4.01936 16.686 3.66506 17.0371C3.30777 17.3911 3 17.8844 3 18.5001C3 19.3115 3.52434 19.9006 4.03444 20.2775C4.56412 20.6688 5.26665 20.9791 6.04487 21.2223C7.61323 21.7124 9.71849 22.0001 12 22.0001C14.2815 22.0001 16.3868 21.7124 17.9551 21.2223C18.7334 20.9791 19.4359 20.6688 19.9656 20.2775C20.4757 19.9006 21 19.3115 21 18.5001C21 17.8844 20.6922 17.3911 20.3349 17.0371C19.9806 16.686 19.5152 16.4046 19.0136 16.1764C18.0058 15.7177 16.6478 15.3823 15.1255 15.1897L14.8745 17.1739C16.2841 17.3522 17.4261 17.6513 18.1852 17.9967C18.5672 18.1706 18.802 18.3337 18.9271 18.4577C18.9435 18.4739 18.9568 18.4881 18.9675 18.5004C18.9344 18.5389 18.8764 18.5955 18.7771 18.6689C18.4971 18.8757 18.0281 19.1041 17.3586 19.3134C16.0315 19.7281 14.1368 20.0001 12 20.0001C9.86323 20.0001 7.9685 19.7281 6.64142 19.3134C5.97193 19.1041 5.50289 18.8757 5.22292 18.6689C5.12358 18.5955 5.06561 18.5389 5.0325 18.5004ZM4.9902 18.5597C4.99007 18.5597 4.99063 18.5582 4.99228 18.555C4.99116 18.5582 4.99033 18.5597 4.9902 18.5597ZM19.0098 18.5597C19.0097 18.5597 19.0088 18.5582 19.0077 18.555C19.0094 18.5582 19.0099 18.5597 19.0098 18.5597ZM19.0069 18.4453C19.0079 18.4423 19.0086 18.4408 19.0088 18.4408C19.0089 18.4409 19.0084 18.4423 19.0069 18.4453ZM4.99305 18.4453C4.99161 18.4423 4.99112 18.4409 4.99124 18.4408C4.99135 18.4408 4.99207 18.4423 4.99305 18.4453Z" fill="black"/>
</svg>
