<svg width="24" height="24" viewBox="0 0 24 24" fill="none" xmlns="http://www.w3.org/2000/svg">
<path fill-rule="evenodd" clip-rule="evenodd" d="M8.66382 3C8.11154 3 7.66382 3.44772 7.66382 4V8.37815H5.66382V4C5.66382 2.34315 7.00696 1 8.66382 1H15.1008C16.7576 1 18.1008 2.34315 18.1008 4V8.37815H16.1008V4C16.1008 3.44771 15.6531 3 15.1008 3H8.66382Z" fill="black"/>
<path fill-rule="evenodd" clip-rule="evenodd" d="M6 7C4.34315 7 3 8.34315 3 10V20C3 21.6569 4.34315 23 6 23H18C19.6569 23 21 21.6569 21 20V10C21 8.34315 19.6569 7 18 7H6ZM11.8824 12.0168C10.6896 12.0168 9.72269 12.9837 9.72269 14.1765C9.72269 15.0084 10.1931 15.7304 10.8824 16.0912V18.8151H12.8824V16.0912C13.5716 15.7304 14.042 15.0084 14.042 14.1765C14.042 12.9837 13.0751 12.0168 11.8824 12.0168Z" fill="black"/>
</svg>
