<svg width="24" height="24" viewBox="0 0 24 24" fill="none" xmlns="http://www.w3.org/2000/svg">
<path fill-rule="evenodd" clip-rule="evenodd" d="M15 13H3V11H15V13Z" fill="black"/>
<path fill-rule="evenodd" clip-rule="evenodd" d="M12.2071 7.79297L15.7071 11.293C16.0976 11.6835 16.0976 12.3167 15.7071 12.7072L12.2071 16.2072L10.7928 14.793L13.5857 12.0001L10.7928 9.20718L12.2071 7.79297Z" fill="black"/>
<path fill-rule="evenodd" clip-rule="evenodd" d="M8 4C8 3.44772 8.44772 3 9 3H21C21.5523 3 22 3.44772 22 4V20C22 20.5523 21.5523 21 21 21H9C8.44772 21 8 20.5523 8 20V17H10V19H20V5H10V7H8V4Z" fill="black"/>
</svg>
