<svg width="24" height="24" viewBox="0 0 24 24" fill="none" xmlns="http://www.w3.org/2000/svg">
<path fill-rule="evenodd" clip-rule="evenodd" d="M3 13H15V11H3V13Z" fill="black"/>
<path fill-rule="evenodd" clip-rule="evenodd" d="M5.79294 7.79297L2.29294 11.293C1.90242 11.6835 1.90242 12.3167 2.29294 12.7072L5.79294 16.2072L7.20715 14.793L4.41426 12.0001L7.20715 9.20718L5.79294 7.79297Z" fill="black"/>
<path fill-rule="evenodd" clip-rule="evenodd" d="M8 4C8 3.44772 8.44772 3 9 3H21C21.5523 3 22 3.44772 22 4V20C22 20.5523 21.5523 21 21 21H9C8.44772 21 8 20.5523 8 20V17H10V19H20V5H10V7H8V4Z" fill="black"/>
</svg>
