<svg width="24" height="24" viewBox="0 0 24 24" fill="none" xmlns="http://www.w3.org/2000/svg">
<path fill-rule="evenodd" clip-rule="evenodd" d="M1.5 13H13.5V11H1.5V13Z" fill="current"/>
<path fill-rule="evenodd" clip-rule="evenodd" d="M4.29294 7.79297L0.79294 11.293C0.402416 11.6835 0.402416 12.3167 0.79294 12.7072L4.29294 16.2072L5.70715 14.793L2.91426 12.0001L5.70715 9.20718L4.29294 7.79297Z" fill="current"/>
<path fill-rule="evenodd" clip-rule="evenodd" d="M14.5 5C11.7825 5 9.42483 6.54837 8.26436 8.81567L6.48401 7.90442C7.97315 4.995 11.0028 3 14.5 3C19.4706 3 23.5 7.02944 23.5 12C23.5 16.9706 19.4706 21 14.5 21C11.0028 21 7.97315 19.005 6.48401 16.0956L8.26436 15.1843C9.42483 17.4516 11.7825 19 14.5 19C18.366 19 21.5 15.866 21.5 12C21.5 8.13401 18.366 5 14.5 5Z" fill="current"/>
</svg>
