<svg width="24" height="24" viewBox="0 0 24 24" fill="none" xmlns="http://www.w3.org/2000/svg">
<path fill-rule="evenodd" clip-rule="evenodd" d="M14.8356 3.01361C15.1256 2.96529 15.4221 3.04698 15.6464 3.23699C15.8707 3.42699 16 3.70606 16 4.00001V19C16 19.4888 15.6466 19.906 15.1644 19.9864L9.1644 20.9864C8.87445 21.0347 8.57792 20.953 8.35363 20.763C8.12933 20.573 8 20.294 8 20V5.00001C8 4.51117 8.35341 4.09398 8.8356 4.01361L14.8356 3.01361Z" fill="black"/>
<path fill-rule="evenodd" clip-rule="evenodd" d="M7.5 3.73621V20.7638L2.8356 19.9864C2.35341 19.906 2 19.4888 2 19V4.00001C2 3.70606 2.12933 3.42699 2.35363 3.23699C2.57792 3.04698 2.87445 2.96529 3.1644 3.01361L7.5 3.73621Z" fill="black"/>
<path fill-rule="evenodd" clip-rule="evenodd" d="M16.4377 20.2534V3.22583L21.1644 4.01361C21.6466 4.09398 22 4.51117 22 5V20C22 20.294 21.8707 20.573 21.6464 20.763C21.4221 20.953 21.1256 21.0347 20.8356 20.9864L16.4377 20.2534Z" fill="black"/>
</svg>
