<svg width="24" height="24" viewBox="0 0 24 24" fill="none" xmlns="http://www.w3.org/2000/svg">
<path fill-rule="evenodd" clip-rule="evenodd" d="M6.36989 4.44722C7.84995 3.0732 9.85619 2.38403 12 2.38403C14.1438 2.38403 16.15 3.0732 17.6301 4.44722C19.1212 5.83149 20 7.8392 20 10.3117C20 12.2323 18.9373 14.3343 17.757 16.1154C16.5483 17.9395 15.0877 19.6137 14.0551 20.7174C12.9345 21.9153 11.0655 21.9153 9.94488 20.7174C8.91232 19.6137 7.45167 17.9395 6.24296 16.1154C5.06271 14.3343 4 12.2323 4 10.3117C4 7.8392 4.87878 5.83149 6.36989 4.44722ZM10 9.38403C10 8.27946 10.8954 7.38403 12 7.38403C13.1046 7.38403 14 8.27946 14 9.38403C14 10.4886 13.1046 11.384 12 11.384C10.8954 11.384 10 10.4886 10 9.38403ZM12 5.38403C9.79086 5.38403 8 7.17489 8 9.38403C8 11.5932 9.79086 13.384 12 13.384C14.2091 13.384 16 11.5932 16 9.38403C16 7.17489 14.2091 5.38403 12 5.38403Z" fill="black"/>
</svg>
