<svg width="128" height="79" viewBox="0 0 128 79" fill="none" xmlns="http://www.w3.org/2000/svg">
<path d="M81.1702 70.347H46.726V8.95325H81.1702V70.347Z" fill="#FF5F00"/>
<path d="M48.9326 39.645C48.9326 27.191 54.812 16.0974 63.9676 8.94816C57.2723 3.72031 48.8225 0.599982 39.6392 0.599982C17.8988 0.599982 0.275757 18.0808 0.275757 39.645C0.275757 61.2093 17.8988 78.6901 39.6392 78.6901C48.8225 78.6901 57.2723 75.5697 63.9676 70.3419C54.812 63.1927 48.9326 52.099 48.9326 39.645" fill="#EB001B"/>
<path d="M127.625 39.645C127.625 61.2093 110.002 78.6901 88.2613 78.6901C79.0781 78.6901 70.6282 75.5697 63.9304 70.3419C73.0886 63.1927 78.968 52.099 78.968 39.645C78.968 27.191 73.0886 16.0974 63.9304 8.94816C70.6282 3.72031 79.0781 0.599982 88.2613 0.599982C110.002 0.599982 127.625 18.0808 127.625 39.645" fill="#F79E1B"/>
</svg>
