<svg width="24" height="24" viewBox="0 0 24 24" fill="none" xmlns="http://www.w3.org/2000/svg">
<path fill-rule="evenodd" clip-rule="evenodd" d="M2.98597 4.17571L12 11.2302L21.014 4.17571C20.6973 4.06197 20.3559 4 20 4H4C3.64411 4 3.3027 4.06197 2.98597 4.17571ZM1.41126 5.48299C1.14988 5.92807 1 6.44653 1 7V17C1 18.6569 2.34315 20 4 20H20C21.6569 20 23 18.6569 23 17V7C23 6.44653 22.8501 5.92807 22.5887 5.48299L12.6163 13.2875C12.2543 13.5708 11.7457 13.5708 11.3837 13.2875L1.41126 5.48299Z" fill="black"/>
</svg>
