<svg width="24" height="24" viewBox="0 0 24 24" fill="none" xmlns="http://www.w3.org/2000/svg">
<path fill-rule="evenodd" clip-rule="evenodd" d="M12 2C10.3431 2 9 3.34315 9 5V10.5C9 10.9045 9.24364 11.2691 9.61732 11.4239C9.99099 11.5787 10.4211 11.4931 10.7071 11.2071L14.7071 7.20711C14.8946 7.01957 15 6.76522 15 6.5V5C15 3.34315 13.6569 2 12 2Z" fill="black"/>
<path fill-rule="evenodd" clip-rule="evenodd" d="M8 10.5V13.2929C8 13.4804 8.0745 13.6603 8.20711 13.7929L6.79289 15.2071C6.28521 14.6994 6 14.0109 6 13.2929V10.5H8ZM16 12.5V10.5H18V12.5C18 15.8137 15.3137 18.5 12 18.5H11.5C10.241 18.5 9.05542 17.9072 8.3 16.9L7.7 16.1L9.3 14.9L9.9 15.7C10.2777 16.2036 10.8705 16.5 11.5 16.5H12C14.2091 16.5 16 14.7091 16 12.5Z" fill="black"/>
<path fill-rule="evenodd" clip-rule="evenodd" d="M11 22V17.5H13V22H11Z" fill="black"/>
<path fill-rule="evenodd" clip-rule="evenodd" d="M3.29285 19.293L19.2928 3.29297L20.7071 4.70718L4.70706 20.7072L3.29285 19.293Z" fill="black"/>
<path fill-rule="evenodd" clip-rule="evenodd" d="M15 10C15 9.59557 14.7564 9.23093 14.3827 9.07615C14.009 8.92137 13.5789 9.00692 13.2929 9.29292L9.79289 12.7929L10.5 13.5H9.5C9.5 14.6046 10.3954 15.5 11.5 15.5H12.25C13.7688 15.5 15 14.2688 15 12.75V10Z" fill="black"/>
</svg>
