<svg width="24" height="24" viewBox="0 0 24 24" fill="none" xmlns="http://www.w3.org/2000/svg">
<path fill-rule="evenodd" clip-rule="evenodd" d="M11 1C9.34315 1 8 2.34315 8 4V11C8 12.6569 9.34315 14 11 14H13C14.6569 14 16 12.6569 16 11V4C16 2.34315 14.6569 1 13 1H11Z" fill="black"/>
<path fill-rule="evenodd" clip-rule="evenodd" d="M7 9V11.5C7 13.433 8.567 15 10.5 15H13.5C15.433 15 17 13.433 17 11.5V9H19V11.5C19 14.5376 16.5376 17 13.5 17H10.5C7.46243 17 5 14.5376 5 11.5V9H7Z" fill="black"/>
<path fill-rule="evenodd" clip-rule="evenodd" d="M14 23H10V21H14V23Z" fill="black"/>
<path fill-rule="evenodd" clip-rule="evenodd" d="M11 21V16H13V21H11Z" fill="black"/>
</svg>
