<svg width="24" height="24" viewBox="0 0 24 24" fill="none" xmlns="http://www.w3.org/2000/svg">
<path fill-rule="evenodd" clip-rule="evenodd" d="M11 1C9.34315 1 8 2.34315 8 4V11.5C8 11.9045 8.24364 12.2691 8.61732 12.4239C8.99099 12.5787 9.42111 12.4931 9.70711 12.2071L15.7071 6.20711C15.8946 6.01957 16 5.76522 16 5.5V4C16 2.34315 14.6569 1 13 1H11Z" fill="black"/>
<path fill-rule="evenodd" clip-rule="evenodd" d="M7 9V13.7929C7 13.9804 7.0745 14.1603 7.20711 14.2929L5.79289 15.7071C5.28521 15.1994 5 14.5109 5 13.7929V9H7ZM17 12.5V9H19V12.5C19 15.5376 16.5376 18 13.5 18H10.9443C10.168 18 9.40248 17.8193 8.7082 17.4721L7.55279 16.8944L8.44721 15.1056L9.60263 15.6833C10.0192 15.8916 10.4785 16 10.9443 16H13.5C15.433 16 17 14.433 17 12.5Z" fill="black"/>
<path fill-rule="evenodd" clip-rule="evenodd" d="M14 23H10V21H14V23Z" fill="black"/>
<path fill-rule="evenodd" clip-rule="evenodd" d="M11 22V17H13V22H11Z" fill="black"/>
<path fill-rule="evenodd" clip-rule="evenodd" d="M3.29285 19.293L19.2928 3.29297L20.7071 4.70718L4.70706 20.7072L3.29285 19.293Z" fill="black"/>
<path fill-rule="evenodd" clip-rule="evenodd" d="M15.9999 9.00003C15.9999 8.59557 15.7563 8.23093 15.3826 8.07615C15.0089 7.92137 14.5788 8.00692 14.2928 8.29292L9.2928 13.2929C9.0068 13.5789 8.92125 14.009 9.07603 14.3827C9.23081 14.7564 9.59544 15 9.99991 15H12.9999C14.6568 15 15.9999 13.6569 15.9999 12V9.00003Z" fill="black"/>
</svg>
