<svg width="24" height="24" viewBox="0 0 24 24" fill="none" xmlns="http://www.w3.org/2000/svg">
<path fill-rule="evenodd" clip-rule="evenodd" d="M11 8C11 9.65685 9.65685 11 8 11H1.5V9H8C8.55228 9 9 8.55228 9 8V1.5H11V8Z" fill="black"/>
<path fill-rule="evenodd" clip-rule="evenodd" d="M13 16C13 14.3431 14.3431 13 16 13H22.5V15H16C15.4477 15 15 15.4477 15 16V22.5H13V16Z" fill="black"/>
<path fill-rule="evenodd" clip-rule="evenodd" d="M13 8C13 9.65685 14.3431 11 16 11H22.5V9H16C15.4477 9 15 8.55228 15 8V1.5H13V8Z" fill="black"/>
<path fill-rule="evenodd" clip-rule="evenodd" d="M11 16C11 14.3431 9.65685 13 8 13H1.5V15H8C8.55228 15 9 15.4477 9 16V22.5H11V16Z" fill="black"/>
</svg>
