<svg width="24" height="24" viewBox="0 0 24 24" fill="none" xmlns="http://www.w3.org/2000/svg">
<path fill-rule="evenodd" clip-rule="evenodd" d="M17 10C18.1046 10 19 10.8954 19 12C19 13.1046 18.1046 14 17 14C15.8954 14 15 13.1046 15 12C15 10.8954 15.8954 10 17 10Z" fill="black"/>
<path fill-rule="evenodd" clip-rule="evenodd" d="M12 10C13.1046 10 14 10.8954 14 12C14 13.1046 13.1046 14 12 14C10.8954 14 10 13.1046 10 12C10 10.8954 10.8954 10 12 10Z" fill="black"/>
<path fill-rule="evenodd" clip-rule="evenodd" d="M7 10C8.10457 10 9 10.8954 9 12C9 13.1046 8.10457 14 7 14C5.89543 14 5 13.1046 5 12C5 10.8954 5.89543 10 7 10Z" fill="black"/>
</svg>
