<svg width="24" height="24" viewBox="0 0 24 24" fill="none" xmlns="http://www.w3.org/2000/svg">
<path fill-rule="evenodd" clip-rule="evenodd" d="M6 13C3.79086 13 2 14.7909 2 17C2 18.4064 2.59919 19.6755 3.85431 20.4015L4.52991 20.7924L9.63273 15.5275L9.25436 14.8734C8.92633 14.3064 8.49327 13.8241 7.92322 13.4888C7.35172 13.1527 6.70301 13 6 13Z" fill="black"/>
<path fill-rule="evenodd" clip-rule="evenodd" d="M10 3.5V14.75H8V3.5H10Z" fill="black"/>
<path fill-rule="evenodd" clip-rule="evenodd" d="M17.5 13C15.2909 13 13.5 14.7909 13.5 17C13.5 19.2091 15.2909 21 17.5 21C19.7091 21 21.5 19.2091 21.5 17C21.5 14.7909 19.7091 13 17.5 13Z" fill="black"/>
<path fill-rule="evenodd" clip-rule="evenodd" d="M21.5 6.5V17.25H19.5V6.5H21.5Z" fill="black"/>
<path fill-rule="evenodd" clip-rule="evenodd" d="M9.7834 2.13247C8.85827 1.95448 8 2.66336 8 3.60546V6.5784C8 7.30918 8.52662 7.93361 9.24692 8.0569L15.351 9.10175C15.8317 9.18402 16.3224 9.02751 16.6666 8.68209L19.0444 6.29618C19.8927 5.44488 19.4455 3.99142 18.2653 3.76435L9.7834 2.13247ZM20.6378 8.00963L18.1378 7.6618L17.8622 9.64272L20.3622 9.99055L20.6378 8.00963Z" fill="black"/>
<path fill-rule="evenodd" clip-rule="evenodd" d="M2.29285 20.293L20.2928 2.29297L21.7071 3.70718L3.70706 21.7072L2.29285 20.293Z" fill="black"/>
</svg>
