<svg width="24" height="24" viewBox="0 0 24 24" fill="none" xmlns="http://www.w3.org/2000/svg">
<path fill-rule="evenodd" clip-rule="evenodd" d="M8 13.5C5.79086 13.5 4 15.2909 4 17.5C4 18.3164 4.24565 19.0785 4.66727 19.7126C5.3822 20.7878 6.60772 21.5 8 21.5C10.2091 21.5 12 19.7091 12 17.5C12 16.1077 11.2878 14.8822 10.2126 14.1673C9.57845 13.7456 8.81639 13.5 8 13.5Z" fill="black"/>
<path fill-rule="evenodd" clip-rule="evenodd" d="M12 4V17.75H10V4H12Z" fill="black"/>
<path fill-rule="evenodd" clip-rule="evenodd" d="M11.8638 2.68517C10.9171 2.44849 10 3.16453 10 4.14039V7.10961C10 7.79791 10.4684 8.39789 11.1362 8.56482L18.1362 10.3148C19.0829 10.5515 20 9.83547 20 8.85961V5.89039C20 5.20209 19.5316 4.60211 18.8638 4.43517L11.8638 2.68517Z" fill="black"/>
<path fill-rule="evenodd" clip-rule="evenodd" d="M18.2677 21.1819L13.318 16.2322L14.7322 14.818L19.682 19.7677L18.2677 21.1819Z" fill="black"/>
<path fill-rule="evenodd" clip-rule="evenodd" d="M19.6819 16.2321L14.7322 21.1819L13.318 19.7677L18.2677 14.8179L19.6819 16.2321Z" fill="black"/>
</svg>
