<svg width="24" height="24" viewBox="0 0 24 24" fill="none" xmlns="http://www.w3.org/2000/svg">
<path fill-rule="evenodd" clip-rule="evenodd" d="M8 13C5.79086 13 4 14.7909 4 17C4 19.2091 5.79086 21 8 21C10.2091 21 12 19.2091 12 17C12 14.7909 10.2091 13 8 13Z" fill="black"/>
<path fill-rule="evenodd" clip-rule="evenodd" d="M12 3.5V17.25H10V3.5H12Z" fill="black"/>
<path fill-rule="evenodd" clip-rule="evenodd" d="M11.8638 2.18517C10.9171 1.94849 10 2.66453 10 3.64039V6.60961C10 7.29791 10.4684 7.89789 11.1362 8.06482L18.1362 9.81482C19.0829 10.0515 20 9.33547 20 8.35961V5.39039C20 4.70209 19.5316 4.10211 18.8638 3.93517L11.8638 2.18517Z" fill="black"/>
</svg>
