<svg width="24" height="24" viewBox="0 0 24 24" fill="none" xmlns="http://www.w3.org/2000/svg">
<path fill-rule="evenodd" clip-rule="evenodd" d="M6 13C3.79086 13 2 14.7909 2 17C2 19.2091 3.79086 21 6 21C8.20914 21 10 19.2091 10 17C10 14.7909 8.20914 13 6 13Z" fill="black"/>
<path fill-rule="evenodd" clip-rule="evenodd" d="M10 3.5V17.25H8V3.5H10Z" fill="black"/>
<path fill-rule="evenodd" clip-rule="evenodd" d="M17.5 13C15.2909 13 13.5 14.7909 13.5 17C13.5 19.2091 15.2909 21 17.5 21C19.7091 21 21.5 19.2091 21.5 17C21.5 14.7909 19.7091 13 17.5 13Z" fill="black"/>
<path fill-rule="evenodd" clip-rule="evenodd" d="M21.5 5.5V17.25H19.5V5.5H21.5Z" fill="black"/>
<path fill-rule="evenodd" clip-rule="evenodd" d="M9.75701 2.11658C8.83959 1.95703 8 2.6632 8 3.59439V6.57938C8 7.30865 8.52451 7.93225 9.24299 8.0572L19.743 9.88329C20.6604 10.0428 21.5 9.33666 21.5 8.40547V5.42048C21.5 4.69121 20.9755 4.06762 20.257 3.94266L9.75701 2.11658Z" fill="black"/>
</svg>
