<svg width="24" height="24" viewBox="0 0 24 24" fill="none" xmlns="http://www.w3.org/2000/svg">
<path fill-rule="evenodd" clip-rule="evenodd" d="M13.8965 3.00002C13.8965 2.60623 13.6654 2.2491 13.3061 2.08778C12.9469 1.92646 12.5264 1.99099 12.2321 2.25261L6.89128 7.00002H2.89648C2.3442 7.00002 1.89648 7.44773 1.89648 8.00002V16C1.89648 16.5523 2.3442 17 2.89648 17H6.89129L12.2321 21.7474C12.5264 22.009 12.9469 22.0736 13.3061 21.9123C13.6654 21.7509 13.8965 21.3938 13.8965 21V3.00002Z" fill="black"/>
<path fill-rule="evenodd" clip-rule="evenodd" d="M20.6894 14.8283L15.5681 9.70703L16.9823 8.29282L22.1037 13.4141L20.6894 14.8283Z" fill="black"/>
<path fill-rule="evenodd" clip-rule="evenodd" d="M22.1037 9.70723L16.9823 14.8285L15.5681 13.4143L20.6894 8.29302L22.1037 9.70723Z" fill="black"/>
</svg>
