<svg width="24" height="24" viewBox="0 0 24 24" fill="none" xmlns="http://www.w3.org/2000/svg">
<path fill-rule="evenodd" clip-rule="evenodd" d="M18 3.00001C18 2.61132 17.7748 2.25785 17.4225 2.09364C17.0702 1.92943 16.6546 1.98423 16.357 2.23418L10.5108 7.14287H6C5.44772 7.14287 5 7.59059 5 8.14287V16C5 16.5523 5.44772 17 6 17H8C8.26522 17 8.51957 16.8947 8.70711 16.7071L17.7071 7.70712C17.8946 7.51958 18 7.26523 18 7.00001V3.00001ZM18 10.8157C18 10.4101 17.755 10.0446 17.3798 9.89059C17.0046 9.73654 16.5735 9.82438 16.2885 10.113L10.4719 16.0023C10.268 16.2087 10.1638 16.4935 10.1864 16.7827C10.2089 17.072 10.356 17.3372 10.5893 17.5095L16.406 21.8045C16.7096 22.0287 17.1136 22.0628 17.4506 21.8928C17.7875 21.7227 18 21.3774 18 21V10.8157Z" fill="black"/>
<path fill-rule="evenodd" clip-rule="evenodd" d="M2.29297 20.293L20.293 2.29297L21.7072 3.70718L3.70718 21.7072L2.29297 20.293Z" fill="black"/>
</svg>
