<svg width="24" height="24" viewBox="0 0 24 24" fill="none" xmlns="http://www.w3.org/2000/svg">
<path fill-rule="evenodd" clip-rule="evenodd" d="M1 12C1 5.92487 5.92487 1 12 1C18.0751 1 23 5.92487 23 12C23 18.0751 18.0751 23 12 23C5.92487 23 1 18.0751 1 12ZM17.6881 8.62208C18.4144 6.95603 16.7216 5.26329 15.0556 5.98952L5.92528 9.96939C4.26146 10.6946 4.34623 13.0828 6.05729 13.6882L8.96171 14.7159L9.98942 17.6204C10.5949 19.3314 12.983 19.4162 13.7083 17.7524L17.6881 8.62208ZM15.8547 7.82291L11.8749 16.9532L10.8472 14.0488C10.6458 13.4796 10.198 13.0319 9.62887 12.8305L6.72445 11.8028L15.8547 7.82291Z" fill="black"/>
</svg>
