<svg width="24" height="24" viewBox="0 0 24 24" fill="none" xmlns="http://www.w3.org/2000/svg">
<path fill-rule="evenodd" clip-rule="evenodd" d="M4.66436 3.25261C4.37004 2.99099 3.94958 2.92646 3.59034 3.08778C3.23111 3.2491 3 3.60623 3 4.00002V20C3 20.3938 3.23111 20.7509 3.59034 20.9123C3.94958 21.0736 4.37004 21.009 4.66436 20.7474L13.6644 12.7474C13.8779 12.5577 14 12.2857 14 12C14 11.7144 13.8779 11.4424 13.6644 11.2526L4.66436 3.25261Z" fill="black"/>
<path fill-rule="evenodd" clip-rule="evenodd" d="M16 3C15.4477 3 15 3.44772 15 4V20C15 20.5523 15.4477 21 16 21H20C20.5523 21 21 20.5523 21 20V4C21 3.44772 20.5523 3 20 3H16Z" fill="black"/>
</svg>
