<svg width="24" height="24" viewBox="0 0 24 24" fill="none" xmlns="http://www.w3.org/2000/svg">
<path fill-rule="evenodd" clip-rule="evenodd" d="M19.4239 1.61732C19.2691 1.24364 18.9045 1 18.5 1H9C7.34315 1 6 2.34315 6 4V6.83935C6 7.19821 5.80771 7.52956 5.49614 7.7076L4.01158 8.55592C3.07686 9.09004 2.5 10.0841 2.5 11.1606V17C2.5 17.4045 2.74364 17.7691 3.11732 17.9239C3.49099 18.0787 3.92111 17.9931 4.20711 17.7071L19.2071 2.70711C19.4931 2.42111 19.5787 1.99099 19.4239 1.61732ZM20.3827 3.07612C20.009 2.92134 20.0789 3.0069 19.7929 3.29289L3.29289 19.7929L2.5 20.5C2.5 21.8807 3.61929 23 5 23H18C19.6569 23 21 21.6569 21 20V4C21 3.59554 20.7564 3.2309 20.3827 3.07612ZM9.5 4.5V8.5H11.5V4.5H9.5ZM12.5 7V4.5H14.5V7H12.5ZM8 18V20H17V18H8Z" fill="black"/>
<path fill-rule="evenodd" clip-rule="evenodd" d="M1.29285 21.5859L21.2928 1.58594L22.7071 3.00015L2.70706 23.0002L1.29285 21.5859Z" fill="black"/>
</svg>
