<svg width="24" height="24" viewBox="0 0 24 24" fill="none" xmlns="http://www.w3.org/2000/svg">
<path fill-rule="evenodd" clip-rule="evenodd" d="M3 4C3 2.34315 4.34315 1 6 1H12.2561C12.9759 1 13.6717 1.25881 14.2166 1.7292L16.395 3.60989L15.088 5.12375L12.9096 3.24307C12.728 3.08627 12.496 3 12.2561 3H6C5.44772 3 5 3.44772 5 4V16H3V4ZM15.8481 6.76764C16.9569 5.66147 18.7301 5.59444 19.9193 6.61372L19.9524 6.6421C20.6173 7.21205 21 8.0441 21 8.91987V20C21 21.6569 19.6569 23 18 23H5.41351C4.08057 23 3 21.9194 3 20.5865C3 19.9454 3.25507 19.3306 3.70894 18.8778L15.8481 6.76764ZM18.6177 8.13224C18.2213 7.79247 17.6302 7.81482 17.2606 8.18354L5.12146 20.2937C5.0437 20.3713 5 20.4766 5 20.5865C5 20.8149 5.18514 21 5.41351 21H18C18.5523 21 19 20.5523 19 20V8.91987C19 8.62794 18.8724 8.3506 18.6508 8.16061L18.6177 8.13224Z" fill="black"/>
<path fill-rule="evenodd" clip-rule="evenodd" d="M13 11V14.5H17.5V14C17.5 12.3431 16.1569 11 14.5 11H13ZM11 11.6216V15.5V20H9.5C7.84315 20 6.5 18.6569 6.5 17V16.5C6.5 16.2348 6.60536 15.9804 6.79289 15.7929L10.7071 11.8787C10.7996 11.7862 10.8975 11.7004 11 11.6216ZM13 20H14.5C16.1569 20 17.5 18.6569 17.5 17V16.5H13V20Z" fill="black"/>
<path fill-rule="evenodd" clip-rule="evenodd" d="M1.29297 21.293L21.293 1.29297L22.7072 2.70718L2.70718 22.7072L1.29297 21.293Z" fill="black"/>
</svg>
