<svg width="24" height="24" viewBox="0 0 24 24" fill="none" xmlns="http://www.w3.org/2000/svg">
<path fill-rule="evenodd" clip-rule="evenodd" d="M4 3C3.44772 3 3 3.44772 3 4V20C3 20.5523 3.44772 21 4 21H11V23H4C2.34315 23 1 21.6569 1 20V4C1 2.34315 2.34315 1 4 1H10.3083C10.9805 1 11.6332 1.22575 12.1617 1.64104L17.8535 6.11312C18.5773 6.68187 19 7.55149 19 8.47207V9H17V8.47207C17 8.16521 16.8591 7.87534 16.6178 7.68575L10.9261 3.21368C10.7499 3.07525 10.5323 3 10.3083 3H4Z" fill="black"/>
<path fill-rule="evenodd" clip-rule="evenodd" d="M4.5 13.5C4.5 11.8431 5.84315 10.5 7.5 10.5H10.5V12.5H7.5C6.94772 12.5 6.5 12.9477 6.5 13.5V16.5C6.5 17.0523 6.94772 17.5 7.5 17.5H9.5V19.5H7.5C5.84315 19.5 4.5 18.1569 4.5 16.5V13.5Z" fill="black"/>
<path fill-rule="evenodd" clip-rule="evenodd" d="M16.5 10C12.9101 10 10 12.9101 10 16.5C10 20.0899 12.9101 23 16.5 23C20.0899 23 23 20.0899 23 16.5C23 12.9101 20.0899 10 16.5 10ZM15.0858 16.5L14.0251 15.4393L15.4393 14.0251L16.5 15.0858L17.5607 14.0251L18.9749 15.4393L17.9142 16.5L18.9749 17.5607L17.5607 18.9749L16.5 17.9142L15.4393 18.9749L14.0251 17.5607L15.0858 16.5Z" fill="black"/>
</svg>
