<svg width="24" height="24" viewBox="0 0 24 24" fill="none" xmlns="http://www.w3.org/2000/svg">
<path d="M9.95489 15.3796C8.88094 16.4536 8.88094 18.1948 9.95489 19.2687C11.0288 20.3426 12.77 20.3426 13.844 19.2687C14.9179 18.1948 14.9179 16.4536 13.844 15.3796C12.77 14.3057 11.0288 14.3057 9.95489 15.3796Z" fill="black"/>
<path fill-rule="evenodd" clip-rule="evenodd" d="M16.1421 15.5564C14.8633 14.2777 13.1525 13.6965 11.4774 13.8138L11.3377 11.8187C13.5659 11.6627 15.851 12.4369 17.5563 14.1422L16.1421 15.5564Z" fill="black"/>
<path fill-rule="evenodd" clip-rule="evenodd" d="M11.5378 10.3059C9.22725 10.3933 6.94535 11.3181 5.18193 13.0815L3.76772 11.6673C5.90156 9.53349 8.66764 8.41307 11.4621 8.30733L11.5378 10.3059ZM18.617 13.0815C17.3643 11.8288 15.8514 11.0005 14.2532 10.5936L14.7467 8.65541C16.6836 9.14853 18.5173 10.1534 20.0312 11.6673L18.617 13.0815Z" fill="black"/>
<path fill-rule="evenodd" clip-rule="evenodd" d="M14.2677 7.01527C10.2005 6.26585 5.84963 7.46411 2.70706 10.6067L1.29285 9.19246C4.92023 5.56508 9.94354 4.18484 14.6301 5.04838L14.2677 7.01527ZM21.0918 10.6067C19.8165 9.33132 18.3442 8.37767 16.774 7.74364L17.5228 5.88911C19.3376 6.6219 21.0373 7.72371 22.5061 9.19246L21.0918 10.6067Z" fill="black"/>
<path fill-rule="evenodd" clip-rule="evenodd" d="M2.29285 20.293L20.2928 2.29297L21.7071 3.70718L3.70706 21.7072L2.29285 20.293Z" fill="black"/>
</svg>
