<svg width="24" height="24" viewBox="0 0 24 24" fill="none" xmlns="http://www.w3.org/2000/svg">
<path fill-rule="evenodd" clip-rule="evenodd" d="M6.5 6.5C5.94772 6.5 5.5 6.94772 5.5 7.5V17.5C5.5 18.0523 5.94772 18.5 6.5 18.5H16.5C17.0523 18.5 17.5 18.0523 17.5 17.5V12H19.5V17.5C19.5 19.1569 18.1569 20.5 16.5 20.5H6.5C4.84315 20.5 3.5 19.1569 3.5 17.5V7.5C3.5 5.84315 4.84315 4.5 6.5 4.5H12V6.5H6.5Z" fill="black"/>
<path fill-rule="evenodd" clip-rule="evenodd" d="M16.5 3.5C14.2909 3.5 12.5 5.29086 12.5 7.5C12.5 9.70914 14.2909 11.5 16.5 11.5C18.7091 11.5 20.5 9.70914 20.5 7.5C20.5 5.29086 18.7091 3.5 16.5 3.5Z" fill="black"/>
</svg>
