<svg width="24" height="24" viewBox="0 0 24 24" fill="none" xmlns="http://www.w3.org/2000/svg">
<path fill-rule="evenodd" clip-rule="evenodd" d="M1 3.5C1 2.94772 1.44772 2.5 2 2.5H5.65625V4.5H3V19.5H10V21.5H2C1.44772 21.5 1 21.0523 1 20.5V3.5ZM15 4.5H12V2.5H16C16.5523 2.5 17 2.94772 17 3.5V8.5H15V4.5Z" fill="black"/>
<path fill-rule="evenodd" clip-rule="evenodd" d="M5 2C5 1.44772 5.44772 1 6 1H12C12.5523 1 13 1.44772 13 2V5C13 5.55228 12.5523 6 12 6H6C5.44772 6 5 5.55228 5 5V2ZM7 3V4H11V3H7Z" fill="black"/>
<path fill-rule="evenodd" clip-rule="evenodd" d="M13 10C12.4477 10 12 10.4477 12 11V22C12 22.5523 12.4477 23 13 23H22C22.5523 23 23 22.5523 23 22V11C23 10.4477 22.5523 10 22 10H13ZM18 15.5H15.5V13.5H18V15.5ZM15.5 18.5H19.5V16.5H15.5V18.5Z" fill="black"/>
</svg>
