<svg width="24" height="24" viewBox="0 0 24 24" fill="none" xmlns="http://www.w3.org/2000/svg">
<path fill-rule="evenodd" clip-rule="evenodd" d="M1 5.5C1 3.84315 2.34315 2.5 4 2.5H18.5C20.1569 2.5 21.5 3.84315 21.5 5.5V9.54167H19.5V5.5C19.5 4.94772 19.0523 4.5 18.5 4.5H4C3.44772 4.5 3 4.94772 3 5.5V14.5C3 15.0523 3.44772 15.5 4 15.5H9.5V17.5H4C2.34315 17.5 1 16.1569 1 14.5V5.5Z" fill="black"/>
<path fill-rule="evenodd" clip-rule="evenodd" d="M20.5 8.5H2.5V6.5H20.5V8.5Z" fill="black"/>
<path fill-rule="evenodd" clip-rule="evenodd" d="M6 11C5.72386 11 5.5 11.2239 5.5 11.5C5.5 11.7761 5.72386 12 6 12C6.27614 12 6.5 11.7761 6.5 11.5C6.5 11.2239 6.27614 11 6 11ZM3.5 11.5C3.5 10.1193 4.61929 9 6 9C7.38071 9 8.5 10.1193 8.5 11.5C8.5 12.8807 7.38071 14 6 14C4.61929 14 3.5 12.8807 3.5 11.5Z" fill="black"/>
<path fill-rule="evenodd" clip-rule="evenodd" d="M9 11C8.72386 11 8.5 11.2239 8.5 11.5C8.5 11.7761 8.72386 12 9 12C9.27614 12 9.5 11.7761 9.5 11.5C9.5 11.2239 9.27614 11 9 11ZM6.5 11.5C6.5 10.1193 7.61929 9 9 9C10.3807 9 11.5 10.1193 11.5 11.5C11.5 12.8807 10.3807 14 9 14C7.61929 14 6.5 12.8807 6.5 11.5Z" fill="black"/>
<path fill-rule="evenodd" clip-rule="evenodd" d="M11 15.5C11 12.1863 13.6863 9.5 17 9.5C20.3137 9.5 23 12.1863 23 15.5C23 18.8137 20.3137 21.5 17 21.5C13.6863 21.5 11 18.8137 11 15.5ZM17.2682 17.1402L19.7682 14.1402L18.2318 12.8598L16.4328 15.0186L15.7071 14.2929L14.2929 15.7071L15.7929 17.2071C15.9916 17.4058 16.2646 17.5117 16.5453 17.499C16.826 17.4862 17.0884 17.356 17.2682 17.1402Z" fill="black"/>
</svg>
