<svg width="24" height="24" viewBox="0 0 24 24" fill="none" xmlns="http://www.w3.org/2000/svg">
<path fill-rule="evenodd" clip-rule="evenodd" d="M2 7C2 5.34315 3.34315 4 5 4H19C20.6569 4 22 5.34315 22 7V8.33333H2V7ZM2 10.3333V16C2 17.6569 3.34315 19 5 19H19C20.6569 19 22 17.6569 22 16V10.3333H2ZM7 11C5.61929 11 4.5 12.1193 4.5 13.5C4.5 14.8807 5.61929 16 7 16C7.5628 16 8.08217 15.814 8.5 15.5002C8.91783 15.814 9.4372 16 10 16C11.3807 16 12.5 14.8807 12.5 13.5C12.5 12.1193 11.3807 11 10 11C9.4372 11 8.91783 11.186 8.5 11.4998C8.08217 11.186 7.5628 11 7 11Z" fill="black"/>
</svg>
