<svg width="24" height="24" viewBox="0 0 24 24" fill="none" xmlns="http://www.w3.org/2000/svg">
<path fill-rule="evenodd" clip-rule="evenodd" d="M8.87208 3.63299C8.02809 2.789 6.65971 2.789 5.81572 3.63299L4.42457 5.02414C2.99109 6.45762 2.59717 8.62995 3.43606 10.4755C5.46871 14.9473 9.0527 18.5313 13.5245 20.564C15.3701 21.4029 17.5424 21.0089 18.9759 19.5755L20.367 18.1843C21.211 17.3403 21.211 15.9719 20.367 15.128L18.4956 13.2565C17.8379 12.5988 16.833 12.4357 16.0009 12.8517L14.9624 13.371C14.4533 13.6255 13.8384 13.5258 13.436 13.1233L10.8767 10.5641C10.4743 10.1616 10.3745 9.54674 10.629 9.03766L11.1483 7.99908C11.5643 7.16706 11.4013 6.16218 10.7435 5.5044L8.87208 3.63299Z" fill="current"/>
</svg>
