<svg width="24" height="24" viewBox="0 0 24 24" fill="none" xmlns="http://www.w3.org/2000/svg">
<path fill-rule="evenodd" clip-rule="evenodd" d="M1 6C1 4.34315 2.34315 3 4 3H20C21.6569 3 23 4.34315 23 6V18C23 19.6569 21.6569 21 20 21H4C2.34315 21 1 19.6569 1 18V6ZM4 5C3.44772 5 3 5.44772 3 6V18C3 18.5523 3.44772 19 4 19H20C20.5523 19 21 18.5523 21 18V6C21 5.44772 20.5523 5 20 5H4Z" fill="black"/>
<path fill-rule="evenodd" clip-rule="evenodd" d="M17 6C15.3431 6 14 7.34315 14 9C14 10.6569 15.3431 12 17 12C18.6569 12 20 10.6569 20 9C20 7.34315 18.6569 6 17 6Z" fill="black"/>
<path fill-rule="evenodd" clip-rule="evenodd" d="M8.33634 10.0583C7.9724 9.92831 7.56615 10.0197 7.29289 10.2929L1.29289 16.2929C1.10536 16.4805 1 16.7348 1 17V18C1 19.6569 2.34315 21 4 21H20C21.6569 21 23 19.6569 23 18V16C23 15.5774 22.7343 15.2004 22.3363 15.0583L8.33634 10.0583Z" fill="black"/>
</svg>
