<svg width="24" height="24" viewBox="0 0 24 24" fill="none" xmlns="http://www.w3.org/2000/svg">
<path fill-rule="evenodd" clip-rule="evenodd" d="M2.6585 4.24744C2.36321 3.98906 1.9441 3.92725 1.58678 4.08938C1.22947 4.25152 1 4.60764 1 5.00002V19C1 19.3924 1.22947 19.7485 1.58678 19.9106C1.9441 20.0728 2.36321 20.011 2.6585 19.7526L10.6585 12.7526C10.8755 12.5627 11 12.2884 11 12C11 11.7117 10.8755 11.4373 10.6585 11.2474L2.6585 4.24744Z" fill="black"/>
<path fill-rule="evenodd" clip-rule="evenodd" d="M13 4C12.4477 4 12 4.44772 12 5V19C12 19.5523 12.4477 20 13 20H16C16.5523 20 17 19.5523 17 19V5C17 4.44772 16.5523 4 16 4H13Z" fill="black"/>
<path fill-rule="evenodd" clip-rule="evenodd" d="M19 4C18.4477 4 18 4.44772 18 5V19C18 19.5523 18.4477 20 19 20H22C22.5523 20 23 19.5523 23 19V5C23 4.44772 22.5523 4 22 4H19Z" fill="black"/>
</svg>
