<svg width="24" height="24" viewBox="0 0 24 24" fill="none" xmlns="http://www.w3.org/2000/svg">
<path fill-rule="evenodd" clip-rule="evenodd" d="M19.3356 3.25261C19.63 2.99099 20.0504 2.92646 20.4097 3.08778C20.7689 3.2491 21 3.60623 21 4.00002V20C21 20.3938 20.7689 20.7509 20.4097 20.9123C20.0504 21.0736 19.63 21.009 19.3356 20.7474L10.3356 12.7474C10.1221 12.5577 10 12.2857 10 12C10 11.7144 10.1221 11.4424 10.3356 11.2526L19.3356 3.25261Z" fill="black"/>
<path fill-rule="evenodd" clip-rule="evenodd" d="M8 3C8.55228 3 9 3.44772 9 4V20C9 20.5523 8.55228 21 8 21H4C3.44772 21 3 20.5523 3 20V4C3 3.44772 3.44772 3 4 3H8Z" fill="black"/>
</svg>
