<svg width="24" height="24" viewBox="0 0 24 24" fill="none" xmlns="http://www.w3.org/2000/svg">
<path fill-rule="evenodd" clip-rule="evenodd" d="M12 2C6.47715 2 2 6.47715 2 12C2 17.5228 6.47715 22 12 22C17.5228 22 22 17.5228 22 12C22 6.47715 17.5228 2 12 2ZM12 5C9.79086 5 8 6.79086 8 9C8 11.2091 9.79086 13 12 13C14.2091 13 16 11.2091 16 9C16 6.79086 14.2091 5 12 5ZM5.57086 17.4993C6.90527 15.1925 8.95487 13.5 12 13.5C15.0451 13.5 17.0947 15.1925 18.4291 17.4993C18.6081 17.8087 18.6083 18.19 18.4297 18.4996C18.2512 18.8092 17.9209 19 17.5635 19H6.43646C6.07905 19 5.74881 18.8092 5.57023 18.4996C5.39165 18.19 5.39189 17.8087 5.57086 17.4993Z" fill="black"/>
</svg>
