<svg width="24" height="24" viewBox="0 0 24 24" fill="none" xmlns="http://www.w3.org/2000/svg">
<path fill-rule="evenodd" clip-rule="evenodd" d="M13 5.5C9.41015 5.5 6.5 8.41015 6.5 12H5.5C5.5 7.85786 8.85786 4.5 13 4.5C17.1421 4.5 20.5 7.85786 20.5 12C20.5 16.1421 17.1421 19.5 13 19.5C10.2712 19.5 7.88334 18.0424 6.57174 15.8656L7.42826 15.3495C8.56645 17.2385 10.6361 18.5 13 18.5C16.5899 18.5 19.5 15.5899 19.5 12C19.5 8.41015 16.5899 5.5 13 5.5Z" fill="current"/>
<path fill-rule="evenodd" clip-rule="evenodd" d="M6.13867 11.3066L4.41602 8.72266L3.58397 9.27736L5.58397 12.2774C5.73715 12.5071 6.04758 12.5692 6.27734 12.416L9.27734 10.416L8.72264 9.58398L6.13867 11.3066Z" fill="current"/>
</svg>
