<svg width="24" height="24" viewBox="0 0 24 24" fill="none" xmlns="http://www.w3.org/2000/svg">
<path fill-rule="evenodd" clip-rule="evenodd" d="M10 4C6.68629 4 4 6.68629 4 10C4 13.3137 6.68629 16 10 16C13.3137 16 16 13.3137 16 10C16 6.68629 13.3137 4 10 4ZM2 10C2 5.58172 5.58172 2 10 2C14.4183 2 18 5.58172 18 10C18 14.4183 14.4183 18 10 18C5.58172 18 2 14.4183 2 10Z" fill="current"/>
<path fill-rule="evenodd" clip-rule="evenodd" d="M13.5 10C13.5 8.067 11.933 6.5 10 6.5V4.5C13.0376 4.5 15.5 6.96243 15.5 10H13.5Z" fill="current"/>
<path fill-rule="evenodd" clip-rule="evenodd" d="M15.7071 14.293L21.7071 20.293L20.2929 21.7072L14.2929 15.7072L15.7071 14.293Z" fill="current"/>
</svg>
