<svg width="24" height="24" viewBox="0 0 24 24" fill="none" xmlns="http://www.w3.org/2000/svg">
<g clip-path="url(#clip0_1906_1455)">
<path fill-rule="evenodd" clip-rule="evenodd" d="M0.000869492 10.6836C-0.0163849 10.2688 0.224476 9.88645 0.606086 9.7229L20.4051 1.23762C20.7809 1.07655 21.217 1.16052 21.5061 1.44966C21.7952 1.7388 21.8792 2.17484 21.7181 2.55069L13.2329 22.3497C13.0693 22.7313 12.687 22.9721 12.2722 22.9549C11.8573 22.9376 11.4963 22.6659 11.365 22.272L9.0593 15.3548L15.7071 8.70698C16.0976 8.31646 16.0976 7.6833 15.7071 7.29277C15.3166 6.90225 14.6834 6.90225 14.2929 7.29277L7.66715 13.9185L0.683778 11.5907C0.289903 11.4594 0.0181238 11.0984 0.000869492 10.6836Z" fill="black"/>
</g>
<defs>
<clipPath id="clip0_1906_1455">
<rect width="24" height="24" fill="white"/>
</clipPath>
</defs>
</svg>
