<svg width="24" height="24" viewBox="0 0 24 24" fill="none" xmlns="http://www.w3.org/2000/svg">
<path fill-rule="evenodd" clip-rule="evenodd" d="M9.5 3C9.5 2.44772 9.94772 2 10.5 2H13.5C14.0523 2 14.5 2.44772 14.5 3V4.39866C14.8826 4.52443 15.2524 4.67822 15.6069 4.85756L16.5962 3.86827C16.9867 3.47775 17.6199 3.47775 18.0104 3.86827L20.1317 5.98959C20.3193 6.17713 20.4246 6.43148 20.4246 6.6967C20.4246 6.96192 20.3193 7.21627 20.1317 7.40381L19.1424 8.3931C19.3218 8.74763 19.4756 9.11741 19.6013 9.5H21C21.5523 9.5 22 9.94772 22 10.5V13.5C22 14.0523 21.5523 14.5 21 14.5H19.6013C19.4756 14.8826 19.3218 15.2524 19.1424 15.6069L20.1317 16.5962C20.5223 16.9867 20.5223 17.6199 20.1317 18.0104L18.0104 20.1317C17.6199 20.5223 16.9867 20.5223 16.5962 20.1317L15.6069 19.1424C15.2524 19.3218 14.8826 19.4756 14.5 19.6013V21C14.5 21.5523 14.0523 22 13.5 22H10.5C9.94772 22 9.5 21.5523 9.5 21V19.6013C9.11741 19.4756 8.74763 19.3218 8.3931 19.1424L7.40381 20.1317C7.21627 20.3193 6.96192 20.4246 6.6967 20.4246C6.43148 20.4246 6.17713 20.3193 5.98959 20.1317L3.86827 18.0104C3.47775 17.6199 3.47775 16.9867 3.86827 16.5962L4.85756 15.6069C4.67822 15.2524 4.52443 14.8826 4.39866 14.5H3C2.44772 14.5 2 14.0523 2 13.5V10.5C2 9.94772 2.44772 9.5 3 9.5H4.39866C4.52443 9.11741 4.67822 8.74763 4.85756 8.3931L3.86827 7.40381C3.47775 7.01328 3.47775 6.38012 3.86827 5.98959L5.98959 3.86827C6.38012 3.47775 7.01328 3.47775 7.40381 3.86827L8.3931 4.85756C8.74763 4.67822 9.11741 4.52443 9.5 4.39866V3ZM10 12C10 10.8954 10.8954 10 12 10C13.1046 10 14 10.8954 14 12C14 13.1046 13.1046 14 12 14C10.8954 14 10 13.1046 10 12ZM12 8C9.79086 8 8 9.79086 8 12C8 14.2091 9.79086 16 12 16C14.2091 16 16 14.2091 16 12C16 9.79086 14.2091 8 12 8Z" fill="black"/>
</svg>
