<svg width="24" height="24" viewBox="0 0 24 24" fill="none" xmlns="http://www.w3.org/2000/svg">
<path fill-rule="evenodd" clip-rule="evenodd" d="M6.5 7H3V5H6.5V7ZM21 7H11.5V5H21V7Z" fill="black"/>
<path fill-rule="evenodd" clip-rule="evenodd" d="M9 2.5C7.067 2.5 5.5 4.067 5.5 6C5.5 7.933 7.067 9.5 9 9.5C10.933 9.5 12.5 7.933 12.5 6C12.5 4.067 10.933 2.5 9 2.5Z" fill="black"/>
<path fill-rule="evenodd" clip-rule="evenodd" d="M19 13H21V11H19V13ZM3 13H14V11H3V13Z" fill="black"/>
<path fill-rule="evenodd" clip-rule="evenodd" d="M16.5 8.5C18.433 8.5 20 10.067 20 12C20 13.933 18.433 15.5 16.5 15.5C14.567 15.5 13 13.933 13 12C13 10.067 14.567 8.5 16.5 8.5Z" fill="black"/>
<path fill-rule="evenodd" clip-rule="evenodd" d="M8 19H3V17H8V19ZM21 19H13V17H21V19Z" fill="black"/>
<path fill-rule="evenodd" clip-rule="evenodd" d="M10.5 14.5C8.567 14.5 7 16.067 7 18C7 19.933 8.567 21.5 10.5 21.5C12.433 21.5 14 19.933 14 18C14 16.067 12.433 14.5 10.5 14.5Z" fill="black"/>
</svg>
