<svg width="24" height="24" viewBox="0 0 24 24" fill="none" xmlns="http://www.w3.org/2000/svg">
<path fill-rule="evenodd" clip-rule="evenodd" d="M10.5292 2.67995C11.4425 2.16625 12.5575 2.16625 13.4708 2.67995L19.4708 6.05495C20.4154 6.58631 21 7.58586 21 8.66968V15.3303C21 16.4141 20.4154 17.4137 19.4708 17.945L13.4708 21.32C12.5575 21.8337 11.4425 21.8337 10.5292 21.32L4.52922 17.945C3.58459 17.4137 3 16.4141 3 15.3303V8.66968C3 7.58586 3.58459 6.58631 4.52922 6.05495L10.5292 2.67995ZM10 12C10 10.8954 10.8954 9.99998 12 9.99998C13.1046 9.99998 14 10.8954 14 12C14 13.1046 13.1046 14 12 14C10.8954 14 10 13.1046 10 12ZM12 7.99998C9.79086 7.99998 8 9.79084 8 12C8 14.2091 9.79086 16 12 16C14.2091 16 16 14.2091 16 12C16 9.79084 14.2091 7.99998 12 7.99998Z" fill="current"/>
</svg>
