<svg width="24" height="24" viewBox="0 0 24 24" fill="none" xmlns="http://www.w3.org/2000/svg">
<path fill-rule="evenodd" clip-rule="evenodd" d="M6 8C3.79086 8 2 9.79086 2 12C2 14.2091 3.79086 16 6 16C8.20914 16 10 14.2091 10 12C10 9.79086 8.20914 8 6 8Z" fill="black"/>
<path fill-rule="evenodd" clip-rule="evenodd" d="M18 2C15.7909 2 14 3.79086 14 6C14 8.20914 15.7909 10 18 10C20.2091 10 22 8.20914 22 6C22 3.79086 20.2091 2 18 2Z" fill="black"/>
<path fill-rule="evenodd" clip-rule="evenodd" d="M18 14C15.7909 14 14 15.7909 14 18C14 20.2091 15.7909 22 18 22C20.2091 22 22 20.2091 22 18C22 15.7909 20.2091 14 18 14Z" fill="black"/>
<path fill-rule="evenodd" clip-rule="evenodd" d="M15.4741 7.88057L8.97408 11.3806L8.02588 9.61963L14.5259 6.11963L15.4741 7.88057Z" fill="black"/>
<path fill-rule="evenodd" clip-rule="evenodd" d="M14.5259 17.8806L8.02588 14.3806L8.97408 12.6196L15.4741 16.1196L14.5259 17.8806Z" fill="black"/>
</svg>
