<svg width="24" height="24" viewBox="0 0 24 24" fill="none" xmlns="http://www.w3.org/2000/svg">
<path fill-rule="evenodd" clip-rule="evenodd" d="M14.1823 3.26897C13.8912 2.99727 13.4667 2.92417 13.1015 3.08287C12.7362 3.24158 12.5 3.60182 12.5 4.00002V7.00002H9.5C5.35786 7.00002 2 10.3579 2 14.5V20C2 20.4535 2.30509 20.8501 2.74333 20.9665C3.18158 21.0829 3.64328 20.8899 3.86824 20.4962L5.99676 16.7713C6.97599 15.0576 8.79838 14 10.7721 14H12.5V18C12.5 18.3982 12.7362 18.7585 13.1015 18.9172C13.4667 19.0759 13.8912 19.0028 14.1823 18.7311L21.6823 11.7311C21.885 11.542 22 11.2772 22 11C22 10.7228 21.885 10.4581 21.6823 10.269L14.1823 3.26897Z" fill="black"/>
</svg>
