<svg width="24" height="24" viewBox="0 0 24 24" fill="none" xmlns="http://www.w3.org/2000/svg">
<path fill-rule="evenodd" clip-rule="evenodd" d="M11.6119 0.578365C11.8601 0.473878 12.1399 0.473878 12.3881 0.578365L21.8881 4.57836C22.2713 4.73974 22.5147 5.12145 22.4993 5.53701L22.3155 10.4988C22.1088 16.0801 18.6047 21.0045 13.3994 23.0288L12.3625 23.432C12.1293 23.5227 11.8707 23.5227 11.6376 23.432L10.6006 23.0288C5.39534 21.0045 1.89117 16.0801 1.68446 10.4988L1.50069 5.53701C1.4853 5.12145 1.72869 4.73974 2.11195 4.57836L11.6119 0.578365ZM10.7071 16.7071L18.7071 8.70711L17.2929 7.29289L10 14.5858L7.20711 11.7929L5.79289 13.2071L9.29289 16.7071C9.68342 17.0976 10.3166 17.0976 10.7071 16.7071Z" fill="black"/>
</svg>
