<svg width="24" height="24" viewBox="0 0 24 24" fill="none" xmlns="http://www.w3.org/2000/svg">
<path fill-rule="evenodd" clip-rule="evenodd" d="M4.76475 19.9243C4.97588 21.4022 6.24165 22.5 7.7346 22.5H16.2654C17.7584 22.5 19.0241 21.4022 19.2353 19.9243L20.99 7.64142C21.031 7.35444 20.9454 7.0638 20.7555 6.8448C20.5655 6.6258 20.2899 6.5 20 6.5H4.00001C3.71012 6.5 3.43449 6.6258 3.24455 6.8448C3.05462 7.0638 2.96906 7.35444 3.01006 7.64142L4.76475 19.9243ZM7.7346 20.5C7.23695 20.5 6.81503 20.1341 6.74465 19.6414L5.15302 8.5H18.847L17.2554 19.6414C17.185 20.1341 16.7631 20.5 16.2654 20.5H7.7346Z" fill="black"/>
<path fill-rule="evenodd" clip-rule="evenodd" d="M7 6.5C7 3.73858 9.23858 1.5 12 1.5C14.7614 1.5 17 3.73858 17 6.5V7.5C17 8.05228 16.5523 8.5 16 8.5H8C7.44772 8.5 7 8.05228 7 7.5V6.5ZM12 3.5C10.3431 3.5 9 4.84315 9 6.5H15C15 4.84315 13.6569 3.5 12 3.5Z" fill="black"/>
<path fill-rule="evenodd" clip-rule="evenodd" d="M7.5 11.5C7.5 13.9853 9.51472 16 12 16C14.4853 16 16.5 13.9853 16.5 11.5V11H14.5V11.5C14.5 12.8807 13.3807 14 12 14C10.6193 14 9.5 12.8807 9.5 11.5V11H7.5V11.5Z" fill="black"/>
</svg>
