<svg width="24" height="24" viewBox="0 0 24 24" fill="none" xmlns="http://www.w3.org/2000/svg">
<path fill-rule="evenodd" clip-rule="evenodd" d="M7 6.5C7 3.73858 9.23858 1.5 12 1.5C14.7614 1.5 17 3.73858 17 6.5V7.5C17 8.05228 16.5523 8.5 16 8.5H8C7.44772 8.5 7 8.05228 7 7.5V6.5ZM12 3.5C10.3431 3.5 9 4.84315 9 6.5H15C15 4.84315 13.6569 3.5 12 3.5Z" fill="black"/>
<path fill-rule="evenodd" clip-rule="evenodd" d="M5.00254 7.42875C5.03992 6.90545 5.47536 6.5 6 6.5H18C18.5246 6.5 18.9601 6.90545 18.9975 7.42875L19.9975 21.4288C20.0172 21.7056 19.921 21.9783 19.7319 22.1815C19.5427 22.3846 19.2776 22.5 19 22.5H5C4.72241 22.5 4.45731 22.3846 4.26814 22.1815C4.07897 21.9783 3.98277 21.7056 4.00254 21.4288L5.00254 7.42875ZM12 16C9.51472 16 7.5 13.9853 7.5 11.5V11H9.5V11.5C9.5 12.8807 10.6193 14 12 14C13.3807 14 14.5 12.8807 14.5 11.5V11H16.5V11.5C16.5 13.9853 14.4853 16 12 16Z" fill="black"/>
</svg>
