<svg width="24" height="24" viewBox="0 0 24 24" fill="none" xmlns="http://www.w3.org/2000/svg">
<path fill-rule="evenodd" clip-rule="evenodd" d="M1.5 12.5C0.947715 12.5 0.5 12.9477 0.5 13.5V19.5C0.5 20.0523 0.947715 20.5 1.5 20.5H4.5C5.05228 20.5 5.5 20.0523 5.5 19.5V13.5C5.5 12.9477 5.05228 12.5 4.5 12.5H1.5Z" fill="black"/>
<path fill-rule="evenodd" clip-rule="evenodd" d="M7.5 9.5C6.94772 9.5 6.5 9.94772 6.5 10.5V19.5C6.5 20.0523 6.94772 20.5 7.5 20.5H10.5C11.0523 20.5 11.5 20.0523 11.5 19.5V10.5C11.5 9.94772 11.0523 9.5 10.5 9.5H7.5Z" fill="black"/>
<path fill-rule="evenodd" clip-rule="evenodd" d="M13.5 6.5C12.9477 6.5 12.5 6.94772 12.5 7.5V19.5C12.5 20.0523 12.9477 20.5 13.5 20.5H16.5C17.0523 20.5 17.5 20.0523 17.5 19.5V7.5C17.5 6.94772 17.0523 6.5 16.5 6.5H13.5Z" fill="black"/>
<path fill-rule="evenodd" clip-rule="evenodd" d="M19.5 3.5C18.9477 3.5 18.5 3.94772 18.5 4.5V19.5C18.5 20.0523 18.9477 20.5 19.5 20.5H22.5C23.0523 20.5 23.5 20.0523 23.5 19.5V4.5C23.5 3.94772 23.0523 3.5 22.5 3.5H19.5Z" fill="black"/>
</svg>
