<svg width="24" height="24" viewBox="0 0 24 24" fill="none" xmlns="http://www.w3.org/2000/svg">
<path fill-rule="evenodd" clip-rule="evenodd" d="M6 3C5.44772 3 5 3.44772 5 4V20C5 20.5523 5.44772 21 6 21H18C18.5523 21 19 20.5523 19 20V8.91987C19 8.62794 18.8724 8.3506 18.6508 8.16061L12.9109 3.24074C12.7297 3.08539 12.4989 3 12.2602 3H6ZM3 4C3 2.34315 4.34315 1 6 1H12.2602C12.9763 1 13.6688 1.25618 14.2125 1.72223L19.9524 6.6421C20.6173 7.21205 21 8.0441 21 8.91987V20C21 21.6569 19.6569 23 18 23H6C4.34315 23 3 21.6569 3 20V4Z" fill="black"/>
<path fill-rule="evenodd" clip-rule="evenodd" d="M13 11V14.5H17.5V14C17.5 12.3431 16.1569 11 14.5 11H13ZM11 11V15.5V20H9.5C7.84315 20 6.5 18.6569 6.5 17V14C6.5 12.3431 7.84315 11 9.5 11H11ZM13 20H14.5C16.1569 20 17.5 18.6569 17.5 17V16.5H13V20Z" fill="black"/>
</svg>
