<svg width="48" height="48" viewBox="0 0 48 48" fill="none" xmlns="http://www.w3.org/2000/svg">
<path d="M24.0953 38.4458C16.1217 38.4458 12.4786 34.3839 12.4786 31.4047C12.4775 30.6939 12.7692 30.0142 13.2851 29.5252C13.8009 29.0363 14.4953 28.7814 15.205 28.8205C18.6189 28.8205 17.7259 33.9414 24.0953 33.9414C27.3512 33.9414 29.2636 31.9816 29.2636 30.1403C29.2636 29.0339 28.6314 27.7695 26.4819 27.2637L19.3696 25.4699C13.6561 24.0158 12.6604 20.839 12.6604 17.8914C12.6604 11.7748 18.2554 9.56209 23.5817 9.56209C28.4891 9.56209 34.3212 12.2727 34.3212 15.9394C34.3212 17.5199 33.0015 18.3655 31.4684 18.3655C28.5524 18.3655 29.0423 14.272 23.1786 14.272C20.2626 14.272 18.7295 15.6391 18.7295 17.5515C18.7295 19.464 20.9975 20.112 22.989 20.5466L28.2363 21.732C33.9893 23.028 35.5224 26.4024 35.5224 29.6345C35.5224 34.6052 31.6738 38.4458 24.0874 38.4458H24.0953ZM46.1118 27.9276C46.3396 26.6228 46.4533 25.3008 46.4516 23.9763C46.4795 17.3233 43.5562 11.0002 38.4697 6.7117C33.3833 2.42314 26.6572 0.61047 20.1046 1.7623C18.0905 0.602705 15.8062 -0.00516098 13.4822 3.30082e-05C8.71195 0.0291736 4.31489 2.5858 1.92977 6.71709C-0.455362 10.8484 -0.470791 15.9347 1.88923 20.0804C0.572355 27.3162 2.87912 34.7385 8.06547 39.9532C13.2518 45.1679 20.6614 47.5151 27.9043 46.2377C29.9159 47.3963 32.1974 48.0042 34.5188 48C39.2866 47.9693 43.681 45.4137 46.0656 41.2849C48.4502 37.1561 48.4678 32.0727 46.1118 27.9276Z" fill="white"/>
</svg>
