<svg width="24" height="24" viewBox="0 0 24 24" fill="none" xmlns="http://www.w3.org/2000/svg">
<path fill-rule="evenodd" clip-rule="evenodd" d="M8 4.5C6.34315 4.5 5 5.84315 5 7.5V16.5C5 18.1569 6.34315 19.5 8 19.5H15C16.6569 19.5 18 18.1569 18 16.5V7.5C18 5.84315 16.6569 4.5 15 4.5H8Z" fill="black"/>
<path fill-rule="evenodd" clip-rule="evenodd" d="M19 10H17V8H19V10Z" fill="black"/>
<path fill-rule="evenodd" clip-rule="evenodd" d="M7.0066 1.42192C7.07035 0.92266 7.49523 0.548584 7.99854 0.548584H14.9985C15.5019 0.548584 15.9267 0.92266 15.9905 1.42192L16.3788 4.46255C15.9609 4.24173 15.4846 4.1167 14.9791 4.1167H7.97908C7.49031 4.1167 7.02884 4.23359 6.62109 4.44093L7.0066 1.42192Z" fill="black"/>
<path fill-rule="evenodd" clip-rule="evenodd" d="M7.0066 22.5778C7.07035 23.0771 7.49523 23.4512 7.99854 23.4512H14.9985C15.5019 23.4512 15.9267 23.0771 15.9905 22.5778L16.3788 19.5372C15.9609 19.758 15.4846 19.8831 14.9791 19.8831H7.97908C7.49031 19.8831 7.02884 19.7662 6.62109 19.5588L7.0066 22.5778Z" fill="black"/>
</svg>
