<svg width="24" height="24" viewBox="0 0 24 24" fill="none" xmlns="http://www.w3.org/2000/svg">
<path fill-rule="evenodd" clip-rule="evenodd" d="M3 21V2H1V22C1 22.5523 1.44772 23 2 23H22V21H3Z" fill="black"/>
<path fill-rule="evenodd" clip-rule="evenodd" d="M22.7072 6.70718L16.7072 12.7072C16.3167 13.0977 15.6835 13.0977 15.293 12.7072L14.0001 11.4143L9.70718 15.7072C9.31666 16.0977 8.68349 16.0977 8.29297 15.7072L6.00008 13.4143L2.70718 16.7072L1.29297 15.293L5.29297 11.293C5.68349 10.9024 6.31666 10.9024 6.70718 11.293L9.00008 13.5859L13.293 9.29297C13.6835 8.90244 14.3167 8.90244 14.7072 9.29297L16.0001 10.5859L21.293 5.29297L22.7072 6.70718Z" fill="black"/>
</svg>
