<svg width="24" height="24" viewBox="0 0 24 24" fill="none" xmlns="http://www.w3.org/2000/svg">
<path fill-rule="evenodd" clip-rule="evenodd" d="M13.8947 3H10.1052V1H13.8947V3Z" fill="black"/>
<path fill-rule="evenodd" clip-rule="evenodd" d="M20.2911 7.46708L17.449 4.60994L18.8669 3.19946L21.709 6.05661L20.2911 7.46708Z" fill="black"/>
<path fill-rule="evenodd" clip-rule="evenodd" d="M3.70892 7.46708L6.55103 4.60994L5.13309 3.19946L2.29098 6.05661L3.70892 7.46708Z" fill="black"/>
<path fill-rule="evenodd" clip-rule="evenodd" d="M13 2.47607V4.85703H11V2.47607H13Z" fill="black"/>
<path fill-rule="evenodd" clip-rule="evenodd" d="M2.47363 13.4286C2.47363 8.14743 6.73374 3.85718 11.9999 3.85718C17.2662 3.85718 21.5263 8.14743 21.5263 13.4286C21.5263 18.7098 17.2662 23 11.9999 23C6.73374 23 2.47363 18.7098 2.47363 13.4286ZM10.9999 7.2381V13.9048H12.9999V7.2381H10.9999Z" fill="black"/>
</svg>
