<svg width="24" height="24" viewBox="0 0 24 24" fill="none" xmlns="http://www.w3.org/2000/svg">
<path fill-rule="evenodd" clip-rule="evenodd" d="M14.5266 6.56614C13.1316 5.1661 10.8684 5.1661 9.47344 6.56614C8.08047 7.96418 8.08047 10.2293 9.47344 11.6274C10.8684 13.0274 13.1316 13.0274 14.5266 11.6274C15.9195 10.2293 15.9195 7.96418 14.5266 6.56614Z" fill="black"/>
<path fill-rule="evenodd" clip-rule="evenodd" d="M8.20861 5.2864C6.11227 7.39036 6.11227 10.8031 8.20861 12.907L6.79183 14.3187C3.91786 11.4342 3.91786 6.75917 6.79183 3.87476L8.20861 5.2864ZM15.7914 12.907C17.8877 10.8031 17.8877 7.39036 15.7914 5.2864L17.2081 3.87476C20.0821 6.75917 20.0821 11.4342 17.2081 14.3187L15.7914 12.907Z" fill="black"/>
<path fill-rule="evenodd" clip-rule="evenodd" d="M5.63732 2.70583C2.12089 6.23505 2.12089 11.9585 5.63732 15.4877L4.22054 16.8994C-0.0735147 12.5897 -0.0735145 5.60386 4.22054 1.29419L5.63732 2.70583ZM18.3627 15.4877C21.8791 11.9585 21.8791 6.23505 18.3627 2.70584L19.7795 1.29419C24.0735 5.60386 24.0735 12.5897 19.7795 16.8994L18.3627 15.4877Z" fill="black"/>
<path fill-rule="evenodd" clip-rule="evenodd" d="M11 22.0001V11.6775H13V22.0001H11Z" fill="black"/>
</svg>
