<svg width="24" height="24" viewBox="0 0 24 24" fill="none" xmlns="http://www.w3.org/2000/svg">
<path fill-rule="evenodd" clip-rule="evenodd" d="M14.4734 11.1351C13.1069 9.7743 10.8931 9.7743 9.5266 11.1351C8.1578 12.4982 8.1578 14.71 9.5266 16.0731C10.8931 17.4339 13.1069 17.4339 14.4734 16.0731C15.8422 14.71 15.8422 12.4982 14.4734 11.1351Z" fill="black"/>
<path fill-rule="evenodd" clip-rule="evenodd" d="M15.7138 9.91167C13.6632 7.86961 10.3368 7.86961 8.28621 9.91167C6.23793 11.9514 6.23793 15.2568 8.28621 17.2965L6.87495 18.7137C4.04168 15.8922 4.04168 11.316 6.87495 8.49451C9.70591 5.67533 14.2941 5.67533 17.125 8.49451C19.9583 11.316 19.9583 15.8922 17.125 18.7137L15.7138 17.2965C17.7621 15.2568 17.7621 11.9514 15.7138 9.91167Z" fill="black"/>
<path fill-rule="evenodd" clip-rule="evenodd" d="M18.3654 7.27107C14.8504 3.77065 9.14962 3.77065 5.63456 7.27107C2.12181 10.7692 2.12181 16.439 5.63456 19.9372L4.2233 21.3543C-0.0744324 17.0745 -0.0744352 10.1338 4.2233 5.85391C8.51873 1.57636 15.4813 1.57637 19.7767 5.85391C24.0744 10.1338 24.0744 17.0745 19.7767 21.3543L18.3654 19.9372C21.8782 16.439 21.8782 10.7692 18.3654 7.27107Z" fill="black"/>
</svg>
