<svg width="24" height="24" viewBox="0 0 24 24" fill="none" xmlns="http://www.w3.org/2000/svg">
<path fill-rule="evenodd" clip-rule="evenodd" d="M1 4C1 3.44772 1.44772 3 2 3H20C20.5523 3 21 3.44772 21 4V9.5H19V5H3V19H9V21H2C1.44772 21 1 20.5523 1 20V4Z" fill="black"/>
<path fill-rule="evenodd" clip-rule="evenodd" d="M11 17C11 13.6863 13.6863 11 17 11C20.3137 11 23 13.6863 23 17C23 20.3137 20.3137 23 17 23C13.6863 23 11 20.3137 11 17ZM15.5 14.5V17.5C15.5 18.0523 15.9477 18.5 16.5 18.5H19.5V16.5H17.5V14.5H15.5Z" fill="black"/>
<path fill-rule="evenodd" clip-rule="evenodd" d="M2 7H20V9H2V7Z" fill="black"/>
<path fill-rule="evenodd" clip-rule="evenodd" d="M5 5.5V2H7V5.5H5Z" fill="black"/>
<path fill-rule="evenodd" clip-rule="evenodd" d="M15 5.5V2H17V5.5H15Z" fill="black"/>
</svg>
