<svg width="24" height="24" viewBox="0 0 24 24" fill="none" xmlns="http://www.w3.org/2000/svg">
<path fill-rule="evenodd" clip-rule="evenodd" d="M6 7C4.34315 7 3 8.34315 3 10V20C3 21.6569 4.34315 23 6 23H18C19.6569 23 21 21.6569 21 20V10C21 8.34315 19.6569 7 18 7H6ZM10 14C10 12.8954 10.8954 12 12 12C13.1046 12 14 12.8954 14 14C14 14.7403 13.5978 15.3866 13 15.7324V18H11V15.7324C10.4022 15.3866 10 14.7403 10 14Z" fill="black"/>
<path fill-rule="evenodd" clip-rule="evenodd" d="M8.66382 3C8.11154 3 7.66382 3.44772 7.66382 4V8.37815H5.66382V4C5.66382 2.34315 7.00696 1 8.66382 1H15.1008C16.7576 1 18.1008 2.34315 18.1008 4V4.87815H16.1008V4C16.1008 3.44771 15.6531 3 15.1008 3H8.66382Z" fill="black"/>
</svg>
