<svg width="24" height="24" viewBox="0 0 24 24" fill="none" xmlns="http://www.w3.org/2000/svg">
<path fill-rule="evenodd" clip-rule="evenodd" d="M12 5C7.02944 5 3 9.02944 3 14C3 18.9706 7.02944 23 12 23C16.9706 23 21 18.9706 21 14C21 9.02944 16.9706 5 12 5ZM12 10.5C10.6193 10.5 9.5 11.6193 9.5 13C9.5 14.0252 10.117 14.9062 11 15.292V18H13V15.292C13.883 14.9062 14.5 14.0252 14.5 13C14.5 11.6193 13.3807 10.5 12 10.5Z" fill="black"/>
<path fill-rule="evenodd" clip-rule="evenodd" d="M8.66382 3C8.11154 3 7.66382 3.44772 7.66382 4V8.37815H5.66382V4C5.66382 2.34315 7.00696 1 8.66382 1H15.1008C16.7576 1 18.1008 2.34315 18.1008 4V4.87815H16.1008V4C16.1008 3.44771 15.6531 3 15.1008 3H8.66382Z" fill="black"/>
</svg>
