<svg width="24" height="24" viewBox="0 0 24 24" fill="none" xmlns="http://www.w3.org/2000/svg">
<path fill-rule="evenodd" clip-rule="evenodd" d="M0.5 4C0.5 3.44772 0.947715 3 1.5 3H6.9C7.22973 3 7.53826 3.16254 7.72473 3.43447L9.2268 5.625H19C19.5523 5.625 20 6.07272 20 6.625V8H18V7.625H8.7C8.37027 7.625 8.06174 7.46246 7.87527 7.19053L6.37319 5H2.5V19H9V21H1.5C0.947715 21 0.5 20.5523 0.5 20V4Z" fill="black"/>
<path fill-rule="evenodd" clip-rule="evenodd" d="M16.5 9C12.634 9 9.5 12.134 9.5 16C9.5 19.866 12.634 23 16.5 23C20.366 23 23.5 19.866 23.5 16C23.5 12.134 20.366 9 16.5 9ZM17.5 14.9142V19.5H15.5V14.9142L14.2071 16.2071L12.7929 14.7929L15.7929 11.7929C16.1834 11.4024 16.8166 11.4024 17.2071 11.7929L20.2071 14.7929L18.7929 16.2071L17.5 14.9142Z" fill="black"/>
</svg>
