<svg width="24" height="24" viewBox="0 0 24 24" fill="none" xmlns="http://www.w3.org/2000/svg">
<path fill-rule="evenodd" clip-rule="evenodd" d="M1 3.5C1 2.94772 1.44772 2.5 2 2.5H8C8.33435 2.5 8.64658 2.6671 8.83205 2.9453L10.5352 5.5H22C22.5523 5.5 23 5.94772 23 6.5V20.5C23 21.0523 22.5523 21.5 22 21.5H2C1.44772 21.5 1 21.0523 1 20.5V3.5ZM8 16.5V18.5H16V16.5H8ZM13 11.9142V15H11V11.9142L9.70711 13.2071L8.29289 11.7929L11.2929 8.79289C11.6834 8.40237 12.3166 8.40237 12.7071 8.79289L15.7071 11.7929L14.2929 13.2071L13 11.9142Z" fill="black"/>
</svg>
