<svg width="24" height="24" viewBox="0 0 24 24" fill="none" xmlns="http://www.w3.org/2000/svg">
<path fill-rule="evenodd" clip-rule="evenodd" d="M2 17V14H4V17C4 17.5523 4.44772 18 5 18H19C19.5523 18 20 17.5523 20 17V14H22V17C22 18.6569 20.6569 20 19 20H5C3.34315 20 2 18.6569 2 17Z" fill="black"/>
<path fill-rule="evenodd" clip-rule="evenodd" d="M13 5V16H11V5H13Z" fill="black"/>
<path fill-rule="evenodd" clip-rule="evenodd" d="M12 4C12.3038 4 12.5911 4.13809 12.7809 4.3753L16.7809 9.37531L15.2191 10.6247L12 6.60078L8.78085 10.6247L7.21912 9.37531L11.2191 4.3753C11.4089 4.13809 11.6962 4 12 4Z" fill="black"/>
</svg>
