<svg width="24" height="24" viewBox="0 0 24 24" fill="none" xmlns="http://www.w3.org/2000/svg">
<path fill-rule="evenodd" clip-rule="evenodd" d="M11.0625 3C7.37844 3 4.41885 5.94784 4.1456 9.61965C2.31933 10.0756 1 11.778 1 13.75C1 16.0599 2.81022 18 5.125 18H17.625C18.2396 18 18.8244 17.8609 19.3494 17.6118C21.5006 16.7594 23 14.6109 23 12.125C23 8.91766 20.4902 6.25 17.3125 6.25C17.1676 6.25 17.0237 6.25562 16.8813 6.26668C15.6511 4.31194 13.514 3 11.0625 3ZM11.2929 12.2929C11.6834 11.9024 12.3166 11.9024 12.7071 12.2929L15.7071 15.2929L14.2929 16.7071L13 15.4142V21H11V15.4142L9.70712 16.7071L8.29291 15.2929L11.2929 12.2929Z" fill="black"/>
</svg>
