<svg width="24" height="24" viewBox="0 0 24 24" fill="none" xmlns="http://www.w3.org/2000/svg">
<path fill-rule="evenodd" clip-rule="evenodd" d="M12 3C9.51472 3 7.5 5.01472 7.5 7.5C7.5 9.98528 9.51472 12 12 12C14.4853 12 16.5 9.98528 16.5 7.5C16.5 5.01472 14.4853 3 12 3ZM5.5 7.5C5.5 3.91015 8.41015 1 12 1C15.5899 1 18.5 3.91015 18.5 7.5C18.5 11.0899 15.5899 14 12 14C8.41015 14 5.5 11.0899 5.5 7.5Z" fill="black"/>
<path fill-rule="evenodd" clip-rule="evenodd" d="M12 14C7.635 14 4.0913 16.7424 3.21318 20.2615C3.16875 20.4395 3.21323 20.5945 3.34054 20.732C3.4799 20.8824 3.71721 21 3.99998 21H20C20.2828 21 20.5201 20.8824 20.6594 20.732C20.7867 20.5945 20.8312 20.4395 20.7868 20.2615C19.9087 16.7424 16.365 14 12 14ZM1.27268 19.7772C2.39966 15.2609 6.83149 12 12 12C17.1685 12 21.6003 15.2609 22.7273 19.7772C23.1948 21.6507 21.567 23 20 23H3.99998C2.43292 23 0.805185 21.6507 1.27268 19.7772Z" fill="black"/>
</svg>
