<svg width="24" height="24" viewBox="0 0 24 24" fill="none" xmlns="http://www.w3.org/2000/svg">
<path fill-rule="evenodd" clip-rule="evenodd" d="M2 8C2 6.34315 3.34315 5 5 5H14.0444C14.4521 5 14.819 5.2475 14.9716 5.62554C15.1243 6.00358 15.0322 6.43644 14.7388 6.71956L3.69443 17.3783C3.40572 17.6569 2.97843 17.736 2.60912 17.5791C2.23981 17.4223 2 17.0599 2 16.6587V8ZM16.8827 6.57612C17.2564 6.7309 17.5 7.09554 17.5 7.5V8.46124L20.5939 7.08619C20.9032 6.94871 21.2611 6.97705 21.5449 7.16151C21.8287 7.34596 22 7.66149 22 8V16C22 16.3385 21.8287 16.654 21.5449 16.8385C21.2611 17.0229 20.9032 17.0513 20.5939 16.9138L17.5 15.5388V16C17.5 17.6569 16.1569 19 14.5 19H6C5.59554 19 5.2309 18.7564 5.07612 18.3827C4.92134 18.009 5.0069 17.5789 5.29289 17.2929L15.7929 6.79289C16.0789 6.5069 16.509 6.42134 16.8827 6.57612ZM10 8H6V10H10V8Z" fill="black"/>
<path fill-rule="evenodd" clip-rule="evenodd" d="M2.29285 20.293L20.2928 2.29297L21.7071 3.70718L3.70706 21.7072L2.29285 20.293Z" fill="black"/>
</svg>
