<svg width="24" height="24" viewBox="0 0 24 24" fill="none" xmlns="http://www.w3.org/2000/svg">
<path fill-rule="evenodd" clip-rule="evenodd" d="M2 8C2 6.34315 3.34315 5 5 5H14.5C16.1569 5 17.5 6.34315 17.5 8V8.46124L20.5939 7.08619C20.9032 6.94871 21.2611 6.97705 21.5449 7.16151C21.8287 7.34596 22 7.66149 22 8V16C22 16.3385 21.8287 16.654 21.5449 16.8385C21.2611 17.0229 20.9032 17.0513 20.5939 16.9138L17.5 15.5388V16C17.5 17.6569 16.1569 19 14.5 19H5C3.34315 19 2 17.6569 2 16V8ZM10 8H6V10H10V8Z" fill="black"/>
</svg>
