<svg width="160" height="49" viewBox="0 0 160 49" fill="none" xmlns="http://www.w3.org/2000/svg">
<path d="M69.6911 48.2156H56.8417L64.8786 1.66324H77.7274L69.6911 48.2156Z" fill="#15195A"/>
<path d="M116.271 2.80131C113.737 1.85939 109.717 0.819397 104.746 0.819397C92.0569 0.819397 83.1213 7.15811 83.0665 16.2206C82.9611 22.9068 89.4641 26.6205 94.3279 28.8499C99.2992 31.128 100.989 32.615 100.989 34.6456C100.938 37.7643 96.972 39.2018 93.2725 39.2018C88.1425 39.2018 85.3937 38.4607 81.2164 36.7256L79.5244 35.9818L77.7263 46.4318C80.74 47.718 86.2924 48.8593 92.0569 48.9094C105.539 48.9094 114.317 42.6687 114.421 33.0112C114.472 27.7119 111.038 23.6513 103.635 20.3332C99.1411 18.2031 96.3888 16.7669 96.3888 14.5875C96.4415 12.6062 98.7167 10.5769 103.79 10.5769C107.967 10.4775 111.036 11.4181 113.361 12.3594L114.524 12.8537L116.271 2.80131Z" fill="#15195A"/>
<path fill-rule="evenodd" clip-rule="evenodd" d="M139.271 1.66324H149.21L159.577 48.2149H147.679C147.679 48.2149 146.515 42.8662 146.146 41.2318H129.648C129.171 42.4693 126.952 48.2149 126.952 48.2149H113.469L132.555 5.52571C133.878 2.50445 136.206 1.66324 139.271 1.66324ZM138.479 18.6989C138.479 18.6989 134.407 29.0495 133.349 31.7238H144.03C143.501 29.3963 141.068 18.2532 141.068 18.2532L140.17 14.242C139.792 15.2749 139.245 16.695 138.876 17.6528C138.626 18.3021 138.458 18.739 138.479 18.6989Z" fill="#15195A"/>
<path fill-rule="evenodd" clip-rule="evenodd" d="M33.5254 33.4075L46.1092 1.66324H59.6964L39.4993 48.1662H25.9114L14.4587 7.71631C10.5072 5.55221 5.99748 3.81171 0.955322 2.60386L1.16682 1.66325H21.8403C24.6425 1.76133 26.9163 2.6032 27.6562 5.5764L32.1492 26.966C32.1495 26.9671 32.1499 26.9682 32.1503 26.9694L33.5254 33.4075Z" fill="#15195A"/>
</svg>
