<svg width="24" height="24" viewBox="0 0 24 24" fill="none" xmlns="http://www.w3.org/2000/svg">
<path fill-rule="evenodd" clip-rule="evenodd" d="M13.375 3.00002C13.375 2.60623 13.1439 2.2491 12.7847 2.08778C12.4254 1.92646 12.005 1.99099 11.7106 2.25261L6.3698 7.00002H2.375C1.82272 7.00002 1.375 7.44773 1.375 8.00002V16C1.375 16.5523 1.82272 17 2.375 17H6.3698L11.7106 21.7474C12.005 22.009 12.4254 22.0736 12.7847 21.9123C13.1439 21.7509 13.375 21.3938 13.375 21V3.00002Z" fill="black"/>
<path fill-rule="evenodd" clip-rule="evenodd" d="M14.3626 10.2111L13.9806 9.44716L15.7694 8.55273L16.1514 9.31667C16.996 11.0058 16.996 12.9941 16.1514 14.6832L15.7694 15.4472L13.9806 14.5527L14.3626 13.7888C14.9256 12.6627 14.9256 11.3372 14.3626 10.2111Z" fill="black"/>
<path fill-rule="evenodd" clip-rule="evenodd" d="M17.1976 9.5633L16.4612 7.90627L18.2888 7.09399L19.0253 8.75102C19.9446 10.8195 19.9446 13.1807 19.0253 15.2492L18.2888 16.9063L16.4612 16.094L17.1976 14.437C17.8871 12.8856 17.8871 11.1147 17.1976 9.5633Z" fill="black"/>
<path fill-rule="evenodd" clip-rule="evenodd" d="M20.0096 8.92317L18.9519 6.38471L20.7981 5.61548L21.8558 8.15394C22.8814 10.6155 22.8814 13.3847 21.8558 15.8462L20.7981 18.3847L18.9519 17.6155L20.0096 15.077C20.8301 13.1078 20.8301 10.8924 20.0096 8.92317Z" fill="black"/>
</svg>
