<svg width="24" height="24" viewBox="0 0 24 24" fill="none" xmlns="http://www.w3.org/2000/svg">
<path fill-rule="evenodd" clip-rule="evenodd" d="M16.045 3.00002C16.045 2.60623 15.8139 2.2491 15.4547 2.08778C15.0955 1.92646 14.675 1.99099 14.3807 2.25261L9.03984 7.00002H4.54504C3.99276 7.00002 3.54504 7.44773 3.54504 8.00002V16C3.54504 16.5523 3.99276 17 4.54504 17H9.03984L14.3807 21.7474C14.675 22.009 15.0955 22.0736 15.4547 21.9123C15.8139 21.7509 16.045 21.3938 16.045 21V3.00002Z" fill="current"/>
<path fill-rule="evenodd" clip-rule="evenodd" d="M18.0326 10.2111L17.6506 9.44716L19.4395 8.55273L19.8215 9.31667C20.666 11.0058 20.666 12.9941 19.8215 14.6832L19.4395 15.4472L17.6506 14.5527L18.0326 13.7888C18.5957 12.6627 18.5957 11.3372 18.0326 10.2111Z" fill="current"/>
</svg>
