<svg width="24" height="24" viewBox="0 0 24 24" fill="none" xmlns="http://www.w3.org/2000/svg">
<path fill-rule="evenodd" clip-rule="evenodd" d="M7.05299 1.39308C7.10206 0.880013 7.53304 0.488281 8.04845 0.488281H15.0484C15.5639 0.488281 15.9948 0.880013 16.0439 1.39308L16.408 5.20021C15.0529 4.14604 13.3498 3.51822 11.5 3.51822C9.69747 3.51822 8.03418 4.11436 6.69653 5.12023L7.05299 1.39308Z" fill="black"/>
<path fill-rule="evenodd" clip-rule="evenodd" d="M7.05299 22.6069C7.10206 23.12 7.53304 23.5117 8.04844 23.5117H15.0484C15.5639 23.5117 15.9948 23.12 16.0439 22.6069L16.408 18.7998C15.0529 19.854 13.3498 20.4818 11.5 20.4818C9.69746 20.4818 8.03418 19.8856 6.69653 18.8798L7.05299 22.6069Z" fill="black"/>
<path fill-rule="evenodd" clip-rule="evenodd" d="M3.5 11.9521C3.5 7.53387 7.08172 3.95215 11.5 3.95215C15.9183 3.95215 19.5 7.53387 19.5 11.9521C19.5 16.3704 15.9183 19.9521 11.5 19.9521C7.08172 19.9521 3.5 16.3704 3.5 11.9521ZM10.5 6.95215V11.9521C10.5 12.5044 10.9477 12.9521 11.5 12.9521H16.5V10.9521H12.5V6.95215H10.5Z" fill="black"/>
<path fill-rule="evenodd" clip-rule="evenodd" d="M20.5 12.991H18.5V10.991H20.5V12.991Z" fill="black"/>
</svg>
