<svg width="24" height="24" viewBox="0 0 24 24" fill="none" xmlns="http://www.w3.org/2000/svg">
<g clip-path="url(#clip0_1906_1314)">
<path fill-rule="evenodd" clip-rule="evenodd" d="M9.95487 15.3794C8.88093 16.4534 8.88093 18.1946 9.95487 19.2685C11.0288 20.3425 12.77 20.3425 13.844 19.2685C14.9179 18.1946 14.9179 16.4534 13.844 15.3794C12.77 14.3055 11.0288 14.3055 9.95487 15.3794Z" fill="black"/>
<path fill-rule="evenodd" clip-rule="evenodd" d="M16.142 15.5563C13.7989 13.2132 9.99991 13.2132 7.65677 15.5563L6.24255 14.1421C9.36675 11.0179 14.4321 11.0179 17.5563 14.1421L16.142 15.5563Z" fill="black"/>
<path fill-rule="evenodd" clip-rule="evenodd" d="M18.6169 13.0814C14.907 9.37147 8.89189 9.37147 5.18191 13.0814L3.7677 11.6672C8.25873 7.17621 15.5401 7.17621 20.0312 11.6672L18.6169 13.0814Z" fill="black"/>
<path fill-rule="evenodd" clip-rule="evenodd" d="M21.0918 10.6066C16.015 5.52978 7.78388 5.52978 2.70706 10.6066L1.29285 9.19238C7.15071 3.33452 16.6482 3.33452 22.506 9.19238L21.0918 10.6066Z" fill="black"/>
</g>
<defs>
<clipPath id="clip0_1906_1314">
<rect width="24" height="24" fill="white"/>
</clipPath>
</defs>
</svg>
